G75*
%MOIN*%
%OFA0B0*%
%FSLAX25Y25*%
%IPPOS*%
%LPD*%
%AMOC8*
5,1,8,0,0,1.08239X$1,22.5*
%
%ADD10C,0.00000*%
%ADD11C,0.00300*%
%ADD12C,0.00500*%
%ADD13C,0.00600*%
%ADD14C,0.00400*%
D10*
X0073845Y0002513D02*
X0073845Y0198723D01*
X0073845Y0198724D02*
X0073840Y0198731D01*
X0073837Y0198739D01*
X0073837Y0198747D01*
X0073840Y0198755D01*
X0073845Y0198762D01*
X0073845Y0198763D02*
X0232507Y0198763D01*
X0232507Y0198762D02*
X0232517Y0198761D01*
X0232527Y0198757D01*
X0232535Y0198751D01*
X0232541Y0198743D01*
X0232545Y0198733D01*
X0232546Y0198723D01*
X0232546Y0002513D01*
X0232595Y0002513D01*
X0232596Y0002513D02*
X0232589Y0002519D01*
X0232580Y0002524D01*
X0232571Y0002525D01*
X0232562Y0002524D01*
X0232553Y0002519D01*
X0232546Y0002513D01*
X0073845Y0002513D01*
X0077083Y0012513D02*
X0077085Y0012661D01*
X0077091Y0012809D01*
X0077101Y0012957D01*
X0077115Y0013104D01*
X0077133Y0013251D01*
X0077154Y0013397D01*
X0077180Y0013543D01*
X0077210Y0013688D01*
X0077243Y0013832D01*
X0077281Y0013975D01*
X0077322Y0014117D01*
X0077367Y0014258D01*
X0077415Y0014398D01*
X0077468Y0014537D01*
X0077524Y0014674D01*
X0077584Y0014809D01*
X0077647Y0014943D01*
X0077714Y0015075D01*
X0077785Y0015205D01*
X0077859Y0015333D01*
X0077936Y0015459D01*
X0078017Y0015583D01*
X0078101Y0015705D01*
X0078188Y0015824D01*
X0078279Y0015941D01*
X0078373Y0016056D01*
X0078469Y0016168D01*
X0078569Y0016278D01*
X0078671Y0016384D01*
X0078777Y0016488D01*
X0078885Y0016589D01*
X0078996Y0016687D01*
X0079109Y0016783D01*
X0079225Y0016875D01*
X0079343Y0016964D01*
X0079464Y0017049D01*
X0079587Y0017132D01*
X0079712Y0017211D01*
X0079839Y0017287D01*
X0079968Y0017359D01*
X0080099Y0017428D01*
X0080232Y0017493D01*
X0080367Y0017554D01*
X0080503Y0017612D01*
X0080640Y0017667D01*
X0080779Y0017717D01*
X0080920Y0017764D01*
X0081061Y0017807D01*
X0081204Y0017847D01*
X0081348Y0017882D01*
X0081492Y0017914D01*
X0081638Y0017941D01*
X0081784Y0017965D01*
X0081931Y0017985D01*
X0082078Y0018001D01*
X0082225Y0018013D01*
X0082373Y0018021D01*
X0082521Y0018025D01*
X0082669Y0018025D01*
X0082817Y0018021D01*
X0082965Y0018013D01*
X0083112Y0018001D01*
X0083259Y0017985D01*
X0083406Y0017965D01*
X0083552Y0017941D01*
X0083698Y0017914D01*
X0083842Y0017882D01*
X0083986Y0017847D01*
X0084129Y0017807D01*
X0084270Y0017764D01*
X0084411Y0017717D01*
X0084550Y0017667D01*
X0084687Y0017612D01*
X0084823Y0017554D01*
X0084958Y0017493D01*
X0085091Y0017428D01*
X0085222Y0017359D01*
X0085351Y0017287D01*
X0085478Y0017211D01*
X0085603Y0017132D01*
X0085726Y0017049D01*
X0085847Y0016964D01*
X0085965Y0016875D01*
X0086081Y0016783D01*
X0086194Y0016687D01*
X0086305Y0016589D01*
X0086413Y0016488D01*
X0086519Y0016384D01*
X0086621Y0016278D01*
X0086721Y0016168D01*
X0086817Y0016056D01*
X0086911Y0015941D01*
X0087002Y0015824D01*
X0087089Y0015705D01*
X0087173Y0015583D01*
X0087254Y0015459D01*
X0087331Y0015333D01*
X0087405Y0015205D01*
X0087476Y0015075D01*
X0087543Y0014943D01*
X0087606Y0014809D01*
X0087666Y0014674D01*
X0087722Y0014537D01*
X0087775Y0014398D01*
X0087823Y0014258D01*
X0087868Y0014117D01*
X0087909Y0013975D01*
X0087947Y0013832D01*
X0087980Y0013688D01*
X0088010Y0013543D01*
X0088036Y0013397D01*
X0088057Y0013251D01*
X0088075Y0013104D01*
X0088089Y0012957D01*
X0088099Y0012809D01*
X0088105Y0012661D01*
X0088107Y0012513D01*
X0088105Y0012365D01*
X0088099Y0012217D01*
X0088089Y0012069D01*
X0088075Y0011922D01*
X0088057Y0011775D01*
X0088036Y0011629D01*
X0088010Y0011483D01*
X0087980Y0011338D01*
X0087947Y0011194D01*
X0087909Y0011051D01*
X0087868Y0010909D01*
X0087823Y0010768D01*
X0087775Y0010628D01*
X0087722Y0010489D01*
X0087666Y0010352D01*
X0087606Y0010217D01*
X0087543Y0010083D01*
X0087476Y0009951D01*
X0087405Y0009821D01*
X0087331Y0009693D01*
X0087254Y0009567D01*
X0087173Y0009443D01*
X0087089Y0009321D01*
X0087002Y0009202D01*
X0086911Y0009085D01*
X0086817Y0008970D01*
X0086721Y0008858D01*
X0086621Y0008748D01*
X0086519Y0008642D01*
X0086413Y0008538D01*
X0086305Y0008437D01*
X0086194Y0008339D01*
X0086081Y0008243D01*
X0085965Y0008151D01*
X0085847Y0008062D01*
X0085726Y0007977D01*
X0085603Y0007894D01*
X0085478Y0007815D01*
X0085351Y0007739D01*
X0085222Y0007667D01*
X0085091Y0007598D01*
X0084958Y0007533D01*
X0084823Y0007472D01*
X0084687Y0007414D01*
X0084550Y0007359D01*
X0084411Y0007309D01*
X0084270Y0007262D01*
X0084129Y0007219D01*
X0083986Y0007179D01*
X0083842Y0007144D01*
X0083698Y0007112D01*
X0083552Y0007085D01*
X0083406Y0007061D01*
X0083259Y0007041D01*
X0083112Y0007025D01*
X0082965Y0007013D01*
X0082817Y0007005D01*
X0082669Y0007001D01*
X0082521Y0007001D01*
X0082373Y0007005D01*
X0082225Y0007013D01*
X0082078Y0007025D01*
X0081931Y0007041D01*
X0081784Y0007061D01*
X0081638Y0007085D01*
X0081492Y0007112D01*
X0081348Y0007144D01*
X0081204Y0007179D01*
X0081061Y0007219D01*
X0080920Y0007262D01*
X0080779Y0007309D01*
X0080640Y0007359D01*
X0080503Y0007414D01*
X0080367Y0007472D01*
X0080232Y0007533D01*
X0080099Y0007598D01*
X0079968Y0007667D01*
X0079839Y0007739D01*
X0079712Y0007815D01*
X0079587Y0007894D01*
X0079464Y0007977D01*
X0079343Y0008062D01*
X0079225Y0008151D01*
X0079109Y0008243D01*
X0078996Y0008339D01*
X0078885Y0008437D01*
X0078777Y0008538D01*
X0078671Y0008642D01*
X0078569Y0008748D01*
X0078469Y0008858D01*
X0078373Y0008970D01*
X0078279Y0009085D01*
X0078188Y0009202D01*
X0078101Y0009321D01*
X0078017Y0009443D01*
X0077936Y0009567D01*
X0077859Y0009693D01*
X0077785Y0009821D01*
X0077714Y0009951D01*
X0077647Y0010083D01*
X0077584Y0010217D01*
X0077524Y0010352D01*
X0077468Y0010489D01*
X0077415Y0010628D01*
X0077367Y0010768D01*
X0077322Y0010909D01*
X0077281Y0011051D01*
X0077243Y0011194D01*
X0077210Y0011338D01*
X0077180Y0011483D01*
X0077154Y0011629D01*
X0077133Y0011775D01*
X0077115Y0011922D01*
X0077101Y0012069D01*
X0077091Y0012217D01*
X0077085Y0012365D01*
X0077083Y0012513D01*
X0218796Y0012513D02*
X0218798Y0012671D01*
X0218804Y0012829D01*
X0218814Y0012987D01*
X0218828Y0013145D01*
X0218846Y0013302D01*
X0218867Y0013459D01*
X0218893Y0013615D01*
X0218923Y0013771D01*
X0218956Y0013926D01*
X0218994Y0014079D01*
X0219035Y0014232D01*
X0219080Y0014384D01*
X0219129Y0014535D01*
X0219182Y0014684D01*
X0219238Y0014832D01*
X0219298Y0014978D01*
X0219362Y0015123D01*
X0219430Y0015266D01*
X0219501Y0015408D01*
X0219575Y0015548D01*
X0219653Y0015685D01*
X0219735Y0015821D01*
X0219819Y0015955D01*
X0219908Y0016086D01*
X0219999Y0016215D01*
X0220094Y0016342D01*
X0220191Y0016467D01*
X0220292Y0016589D01*
X0220396Y0016708D01*
X0220503Y0016825D01*
X0220613Y0016939D01*
X0220726Y0017050D01*
X0220841Y0017159D01*
X0220959Y0017264D01*
X0221080Y0017366D01*
X0221203Y0017466D01*
X0221329Y0017562D01*
X0221457Y0017655D01*
X0221587Y0017745D01*
X0221720Y0017831D01*
X0221855Y0017915D01*
X0221991Y0017994D01*
X0222130Y0018071D01*
X0222271Y0018143D01*
X0222413Y0018213D01*
X0222557Y0018278D01*
X0222703Y0018340D01*
X0222850Y0018398D01*
X0222999Y0018453D01*
X0223149Y0018504D01*
X0223300Y0018551D01*
X0223452Y0018594D01*
X0223605Y0018633D01*
X0223760Y0018669D01*
X0223915Y0018700D01*
X0224071Y0018728D01*
X0224227Y0018752D01*
X0224384Y0018772D01*
X0224542Y0018788D01*
X0224699Y0018800D01*
X0224858Y0018808D01*
X0225016Y0018812D01*
X0225174Y0018812D01*
X0225332Y0018808D01*
X0225491Y0018800D01*
X0225648Y0018788D01*
X0225806Y0018772D01*
X0225963Y0018752D01*
X0226119Y0018728D01*
X0226275Y0018700D01*
X0226430Y0018669D01*
X0226585Y0018633D01*
X0226738Y0018594D01*
X0226890Y0018551D01*
X0227041Y0018504D01*
X0227191Y0018453D01*
X0227340Y0018398D01*
X0227487Y0018340D01*
X0227633Y0018278D01*
X0227777Y0018213D01*
X0227919Y0018143D01*
X0228060Y0018071D01*
X0228199Y0017994D01*
X0228335Y0017915D01*
X0228470Y0017831D01*
X0228603Y0017745D01*
X0228733Y0017655D01*
X0228861Y0017562D01*
X0228987Y0017466D01*
X0229110Y0017366D01*
X0229231Y0017264D01*
X0229349Y0017159D01*
X0229464Y0017050D01*
X0229577Y0016939D01*
X0229687Y0016825D01*
X0229794Y0016708D01*
X0229898Y0016589D01*
X0229999Y0016467D01*
X0230096Y0016342D01*
X0230191Y0016215D01*
X0230282Y0016086D01*
X0230371Y0015955D01*
X0230455Y0015821D01*
X0230537Y0015685D01*
X0230615Y0015548D01*
X0230689Y0015408D01*
X0230760Y0015266D01*
X0230828Y0015123D01*
X0230892Y0014978D01*
X0230952Y0014832D01*
X0231008Y0014684D01*
X0231061Y0014535D01*
X0231110Y0014384D01*
X0231155Y0014232D01*
X0231196Y0014079D01*
X0231234Y0013926D01*
X0231267Y0013771D01*
X0231297Y0013615D01*
X0231323Y0013459D01*
X0231344Y0013302D01*
X0231362Y0013145D01*
X0231376Y0012987D01*
X0231386Y0012829D01*
X0231392Y0012671D01*
X0231394Y0012513D01*
X0231392Y0012355D01*
X0231386Y0012197D01*
X0231376Y0012039D01*
X0231362Y0011881D01*
X0231344Y0011724D01*
X0231323Y0011567D01*
X0231297Y0011411D01*
X0231267Y0011255D01*
X0231234Y0011100D01*
X0231196Y0010947D01*
X0231155Y0010794D01*
X0231110Y0010642D01*
X0231061Y0010491D01*
X0231008Y0010342D01*
X0230952Y0010194D01*
X0230892Y0010048D01*
X0230828Y0009903D01*
X0230760Y0009760D01*
X0230689Y0009618D01*
X0230615Y0009478D01*
X0230537Y0009341D01*
X0230455Y0009205D01*
X0230371Y0009071D01*
X0230282Y0008940D01*
X0230191Y0008811D01*
X0230096Y0008684D01*
X0229999Y0008559D01*
X0229898Y0008437D01*
X0229794Y0008318D01*
X0229687Y0008201D01*
X0229577Y0008087D01*
X0229464Y0007976D01*
X0229349Y0007867D01*
X0229231Y0007762D01*
X0229110Y0007660D01*
X0228987Y0007560D01*
X0228861Y0007464D01*
X0228733Y0007371D01*
X0228603Y0007281D01*
X0228470Y0007195D01*
X0228335Y0007111D01*
X0228199Y0007032D01*
X0228060Y0006955D01*
X0227919Y0006883D01*
X0227777Y0006813D01*
X0227633Y0006748D01*
X0227487Y0006686D01*
X0227340Y0006628D01*
X0227191Y0006573D01*
X0227041Y0006522D01*
X0226890Y0006475D01*
X0226738Y0006432D01*
X0226585Y0006393D01*
X0226430Y0006357D01*
X0226275Y0006326D01*
X0226119Y0006298D01*
X0225963Y0006274D01*
X0225806Y0006254D01*
X0225648Y0006238D01*
X0225491Y0006226D01*
X0225332Y0006218D01*
X0225174Y0006214D01*
X0225016Y0006214D01*
X0224858Y0006218D01*
X0224699Y0006226D01*
X0224542Y0006238D01*
X0224384Y0006254D01*
X0224227Y0006274D01*
X0224071Y0006298D01*
X0223915Y0006326D01*
X0223760Y0006357D01*
X0223605Y0006393D01*
X0223452Y0006432D01*
X0223300Y0006475D01*
X0223149Y0006522D01*
X0222999Y0006573D01*
X0222850Y0006628D01*
X0222703Y0006686D01*
X0222557Y0006748D01*
X0222413Y0006813D01*
X0222271Y0006883D01*
X0222130Y0006955D01*
X0221991Y0007032D01*
X0221855Y0007111D01*
X0221720Y0007195D01*
X0221587Y0007281D01*
X0221457Y0007371D01*
X0221329Y0007464D01*
X0221203Y0007560D01*
X0221080Y0007660D01*
X0220959Y0007762D01*
X0220841Y0007867D01*
X0220726Y0007976D01*
X0220613Y0008087D01*
X0220503Y0008201D01*
X0220396Y0008318D01*
X0220292Y0008437D01*
X0220191Y0008559D01*
X0220094Y0008684D01*
X0219999Y0008811D01*
X0219908Y0008940D01*
X0219819Y0009071D01*
X0219735Y0009205D01*
X0219653Y0009341D01*
X0219575Y0009478D01*
X0219501Y0009618D01*
X0219430Y0009760D01*
X0219362Y0009903D01*
X0219298Y0010048D01*
X0219238Y0010194D01*
X0219182Y0010342D01*
X0219129Y0010491D01*
X0219080Y0010642D01*
X0219035Y0010794D01*
X0218994Y0010947D01*
X0218956Y0011100D01*
X0218923Y0011255D01*
X0218893Y0011411D01*
X0218867Y0011567D01*
X0218846Y0011724D01*
X0218828Y0011881D01*
X0218814Y0012039D01*
X0218804Y0012197D01*
X0218798Y0012355D01*
X0218796Y0012513D01*
X0218796Y0187513D02*
X0218798Y0187671D01*
X0218804Y0187829D01*
X0218814Y0187987D01*
X0218828Y0188145D01*
X0218846Y0188302D01*
X0218867Y0188459D01*
X0218893Y0188615D01*
X0218923Y0188771D01*
X0218956Y0188926D01*
X0218994Y0189079D01*
X0219035Y0189232D01*
X0219080Y0189384D01*
X0219129Y0189535D01*
X0219182Y0189684D01*
X0219238Y0189832D01*
X0219298Y0189978D01*
X0219362Y0190123D01*
X0219430Y0190266D01*
X0219501Y0190408D01*
X0219575Y0190548D01*
X0219653Y0190685D01*
X0219735Y0190821D01*
X0219819Y0190955D01*
X0219908Y0191086D01*
X0219999Y0191215D01*
X0220094Y0191342D01*
X0220191Y0191467D01*
X0220292Y0191589D01*
X0220396Y0191708D01*
X0220503Y0191825D01*
X0220613Y0191939D01*
X0220726Y0192050D01*
X0220841Y0192159D01*
X0220959Y0192264D01*
X0221080Y0192366D01*
X0221203Y0192466D01*
X0221329Y0192562D01*
X0221457Y0192655D01*
X0221587Y0192745D01*
X0221720Y0192831D01*
X0221855Y0192915D01*
X0221991Y0192994D01*
X0222130Y0193071D01*
X0222271Y0193143D01*
X0222413Y0193213D01*
X0222557Y0193278D01*
X0222703Y0193340D01*
X0222850Y0193398D01*
X0222999Y0193453D01*
X0223149Y0193504D01*
X0223300Y0193551D01*
X0223452Y0193594D01*
X0223605Y0193633D01*
X0223760Y0193669D01*
X0223915Y0193700D01*
X0224071Y0193728D01*
X0224227Y0193752D01*
X0224384Y0193772D01*
X0224542Y0193788D01*
X0224699Y0193800D01*
X0224858Y0193808D01*
X0225016Y0193812D01*
X0225174Y0193812D01*
X0225332Y0193808D01*
X0225491Y0193800D01*
X0225648Y0193788D01*
X0225806Y0193772D01*
X0225963Y0193752D01*
X0226119Y0193728D01*
X0226275Y0193700D01*
X0226430Y0193669D01*
X0226585Y0193633D01*
X0226738Y0193594D01*
X0226890Y0193551D01*
X0227041Y0193504D01*
X0227191Y0193453D01*
X0227340Y0193398D01*
X0227487Y0193340D01*
X0227633Y0193278D01*
X0227777Y0193213D01*
X0227919Y0193143D01*
X0228060Y0193071D01*
X0228199Y0192994D01*
X0228335Y0192915D01*
X0228470Y0192831D01*
X0228603Y0192745D01*
X0228733Y0192655D01*
X0228861Y0192562D01*
X0228987Y0192466D01*
X0229110Y0192366D01*
X0229231Y0192264D01*
X0229349Y0192159D01*
X0229464Y0192050D01*
X0229577Y0191939D01*
X0229687Y0191825D01*
X0229794Y0191708D01*
X0229898Y0191589D01*
X0229999Y0191467D01*
X0230096Y0191342D01*
X0230191Y0191215D01*
X0230282Y0191086D01*
X0230371Y0190955D01*
X0230455Y0190821D01*
X0230537Y0190685D01*
X0230615Y0190548D01*
X0230689Y0190408D01*
X0230760Y0190266D01*
X0230828Y0190123D01*
X0230892Y0189978D01*
X0230952Y0189832D01*
X0231008Y0189684D01*
X0231061Y0189535D01*
X0231110Y0189384D01*
X0231155Y0189232D01*
X0231196Y0189079D01*
X0231234Y0188926D01*
X0231267Y0188771D01*
X0231297Y0188615D01*
X0231323Y0188459D01*
X0231344Y0188302D01*
X0231362Y0188145D01*
X0231376Y0187987D01*
X0231386Y0187829D01*
X0231392Y0187671D01*
X0231394Y0187513D01*
X0231392Y0187355D01*
X0231386Y0187197D01*
X0231376Y0187039D01*
X0231362Y0186881D01*
X0231344Y0186724D01*
X0231323Y0186567D01*
X0231297Y0186411D01*
X0231267Y0186255D01*
X0231234Y0186100D01*
X0231196Y0185947D01*
X0231155Y0185794D01*
X0231110Y0185642D01*
X0231061Y0185491D01*
X0231008Y0185342D01*
X0230952Y0185194D01*
X0230892Y0185048D01*
X0230828Y0184903D01*
X0230760Y0184760D01*
X0230689Y0184618D01*
X0230615Y0184478D01*
X0230537Y0184341D01*
X0230455Y0184205D01*
X0230371Y0184071D01*
X0230282Y0183940D01*
X0230191Y0183811D01*
X0230096Y0183684D01*
X0229999Y0183559D01*
X0229898Y0183437D01*
X0229794Y0183318D01*
X0229687Y0183201D01*
X0229577Y0183087D01*
X0229464Y0182976D01*
X0229349Y0182867D01*
X0229231Y0182762D01*
X0229110Y0182660D01*
X0228987Y0182560D01*
X0228861Y0182464D01*
X0228733Y0182371D01*
X0228603Y0182281D01*
X0228470Y0182195D01*
X0228335Y0182111D01*
X0228199Y0182032D01*
X0228060Y0181955D01*
X0227919Y0181883D01*
X0227777Y0181813D01*
X0227633Y0181748D01*
X0227487Y0181686D01*
X0227340Y0181628D01*
X0227191Y0181573D01*
X0227041Y0181522D01*
X0226890Y0181475D01*
X0226738Y0181432D01*
X0226585Y0181393D01*
X0226430Y0181357D01*
X0226275Y0181326D01*
X0226119Y0181298D01*
X0225963Y0181274D01*
X0225806Y0181254D01*
X0225648Y0181238D01*
X0225491Y0181226D01*
X0225332Y0181218D01*
X0225174Y0181214D01*
X0225016Y0181214D01*
X0224858Y0181218D01*
X0224699Y0181226D01*
X0224542Y0181238D01*
X0224384Y0181254D01*
X0224227Y0181274D01*
X0224071Y0181298D01*
X0223915Y0181326D01*
X0223760Y0181357D01*
X0223605Y0181393D01*
X0223452Y0181432D01*
X0223300Y0181475D01*
X0223149Y0181522D01*
X0222999Y0181573D01*
X0222850Y0181628D01*
X0222703Y0181686D01*
X0222557Y0181748D01*
X0222413Y0181813D01*
X0222271Y0181883D01*
X0222130Y0181955D01*
X0221991Y0182032D01*
X0221855Y0182111D01*
X0221720Y0182195D01*
X0221587Y0182281D01*
X0221457Y0182371D01*
X0221329Y0182464D01*
X0221203Y0182560D01*
X0221080Y0182660D01*
X0220959Y0182762D01*
X0220841Y0182867D01*
X0220726Y0182976D01*
X0220613Y0183087D01*
X0220503Y0183201D01*
X0220396Y0183318D01*
X0220292Y0183437D01*
X0220191Y0183559D01*
X0220094Y0183684D01*
X0219999Y0183811D01*
X0219908Y0183940D01*
X0219819Y0184071D01*
X0219735Y0184205D01*
X0219653Y0184341D01*
X0219575Y0184478D01*
X0219501Y0184618D01*
X0219430Y0184760D01*
X0219362Y0184903D01*
X0219298Y0185048D01*
X0219238Y0185194D01*
X0219182Y0185342D01*
X0219129Y0185491D01*
X0219080Y0185642D01*
X0219035Y0185794D01*
X0218994Y0185947D01*
X0218956Y0186100D01*
X0218923Y0186255D01*
X0218893Y0186411D01*
X0218867Y0186567D01*
X0218846Y0186724D01*
X0218828Y0186881D01*
X0218814Y0187039D01*
X0218804Y0187197D01*
X0218798Y0187355D01*
X0218796Y0187513D01*
X0076296Y0187513D02*
X0076298Y0187671D01*
X0076304Y0187829D01*
X0076314Y0187987D01*
X0076328Y0188145D01*
X0076346Y0188302D01*
X0076367Y0188459D01*
X0076393Y0188615D01*
X0076423Y0188771D01*
X0076456Y0188926D01*
X0076494Y0189079D01*
X0076535Y0189232D01*
X0076580Y0189384D01*
X0076629Y0189535D01*
X0076682Y0189684D01*
X0076738Y0189832D01*
X0076798Y0189978D01*
X0076862Y0190123D01*
X0076930Y0190266D01*
X0077001Y0190408D01*
X0077075Y0190548D01*
X0077153Y0190685D01*
X0077235Y0190821D01*
X0077319Y0190955D01*
X0077408Y0191086D01*
X0077499Y0191215D01*
X0077594Y0191342D01*
X0077691Y0191467D01*
X0077792Y0191589D01*
X0077896Y0191708D01*
X0078003Y0191825D01*
X0078113Y0191939D01*
X0078226Y0192050D01*
X0078341Y0192159D01*
X0078459Y0192264D01*
X0078580Y0192366D01*
X0078703Y0192466D01*
X0078829Y0192562D01*
X0078957Y0192655D01*
X0079087Y0192745D01*
X0079220Y0192831D01*
X0079355Y0192915D01*
X0079491Y0192994D01*
X0079630Y0193071D01*
X0079771Y0193143D01*
X0079913Y0193213D01*
X0080057Y0193278D01*
X0080203Y0193340D01*
X0080350Y0193398D01*
X0080499Y0193453D01*
X0080649Y0193504D01*
X0080800Y0193551D01*
X0080952Y0193594D01*
X0081105Y0193633D01*
X0081260Y0193669D01*
X0081415Y0193700D01*
X0081571Y0193728D01*
X0081727Y0193752D01*
X0081884Y0193772D01*
X0082042Y0193788D01*
X0082199Y0193800D01*
X0082358Y0193808D01*
X0082516Y0193812D01*
X0082674Y0193812D01*
X0082832Y0193808D01*
X0082991Y0193800D01*
X0083148Y0193788D01*
X0083306Y0193772D01*
X0083463Y0193752D01*
X0083619Y0193728D01*
X0083775Y0193700D01*
X0083930Y0193669D01*
X0084085Y0193633D01*
X0084238Y0193594D01*
X0084390Y0193551D01*
X0084541Y0193504D01*
X0084691Y0193453D01*
X0084840Y0193398D01*
X0084987Y0193340D01*
X0085133Y0193278D01*
X0085277Y0193213D01*
X0085419Y0193143D01*
X0085560Y0193071D01*
X0085699Y0192994D01*
X0085835Y0192915D01*
X0085970Y0192831D01*
X0086103Y0192745D01*
X0086233Y0192655D01*
X0086361Y0192562D01*
X0086487Y0192466D01*
X0086610Y0192366D01*
X0086731Y0192264D01*
X0086849Y0192159D01*
X0086964Y0192050D01*
X0087077Y0191939D01*
X0087187Y0191825D01*
X0087294Y0191708D01*
X0087398Y0191589D01*
X0087499Y0191467D01*
X0087596Y0191342D01*
X0087691Y0191215D01*
X0087782Y0191086D01*
X0087871Y0190955D01*
X0087955Y0190821D01*
X0088037Y0190685D01*
X0088115Y0190548D01*
X0088189Y0190408D01*
X0088260Y0190266D01*
X0088328Y0190123D01*
X0088392Y0189978D01*
X0088452Y0189832D01*
X0088508Y0189684D01*
X0088561Y0189535D01*
X0088610Y0189384D01*
X0088655Y0189232D01*
X0088696Y0189079D01*
X0088734Y0188926D01*
X0088767Y0188771D01*
X0088797Y0188615D01*
X0088823Y0188459D01*
X0088844Y0188302D01*
X0088862Y0188145D01*
X0088876Y0187987D01*
X0088886Y0187829D01*
X0088892Y0187671D01*
X0088894Y0187513D01*
X0088892Y0187355D01*
X0088886Y0187197D01*
X0088876Y0187039D01*
X0088862Y0186881D01*
X0088844Y0186724D01*
X0088823Y0186567D01*
X0088797Y0186411D01*
X0088767Y0186255D01*
X0088734Y0186100D01*
X0088696Y0185947D01*
X0088655Y0185794D01*
X0088610Y0185642D01*
X0088561Y0185491D01*
X0088508Y0185342D01*
X0088452Y0185194D01*
X0088392Y0185048D01*
X0088328Y0184903D01*
X0088260Y0184760D01*
X0088189Y0184618D01*
X0088115Y0184478D01*
X0088037Y0184341D01*
X0087955Y0184205D01*
X0087871Y0184071D01*
X0087782Y0183940D01*
X0087691Y0183811D01*
X0087596Y0183684D01*
X0087499Y0183559D01*
X0087398Y0183437D01*
X0087294Y0183318D01*
X0087187Y0183201D01*
X0087077Y0183087D01*
X0086964Y0182976D01*
X0086849Y0182867D01*
X0086731Y0182762D01*
X0086610Y0182660D01*
X0086487Y0182560D01*
X0086361Y0182464D01*
X0086233Y0182371D01*
X0086103Y0182281D01*
X0085970Y0182195D01*
X0085835Y0182111D01*
X0085699Y0182032D01*
X0085560Y0181955D01*
X0085419Y0181883D01*
X0085277Y0181813D01*
X0085133Y0181748D01*
X0084987Y0181686D01*
X0084840Y0181628D01*
X0084691Y0181573D01*
X0084541Y0181522D01*
X0084390Y0181475D01*
X0084238Y0181432D01*
X0084085Y0181393D01*
X0083930Y0181357D01*
X0083775Y0181326D01*
X0083619Y0181298D01*
X0083463Y0181274D01*
X0083306Y0181254D01*
X0083148Y0181238D01*
X0082991Y0181226D01*
X0082832Y0181218D01*
X0082674Y0181214D01*
X0082516Y0181214D01*
X0082358Y0181218D01*
X0082199Y0181226D01*
X0082042Y0181238D01*
X0081884Y0181254D01*
X0081727Y0181274D01*
X0081571Y0181298D01*
X0081415Y0181326D01*
X0081260Y0181357D01*
X0081105Y0181393D01*
X0080952Y0181432D01*
X0080800Y0181475D01*
X0080649Y0181522D01*
X0080499Y0181573D01*
X0080350Y0181628D01*
X0080203Y0181686D01*
X0080057Y0181748D01*
X0079913Y0181813D01*
X0079771Y0181883D01*
X0079630Y0181955D01*
X0079491Y0182032D01*
X0079355Y0182111D01*
X0079220Y0182195D01*
X0079087Y0182281D01*
X0078957Y0182371D01*
X0078829Y0182464D01*
X0078703Y0182560D01*
X0078580Y0182660D01*
X0078459Y0182762D01*
X0078341Y0182867D01*
X0078226Y0182976D01*
X0078113Y0183087D01*
X0078003Y0183201D01*
X0077896Y0183318D01*
X0077792Y0183437D01*
X0077691Y0183559D01*
X0077594Y0183684D01*
X0077499Y0183811D01*
X0077408Y0183940D01*
X0077319Y0184071D01*
X0077235Y0184205D01*
X0077153Y0184341D01*
X0077075Y0184478D01*
X0077001Y0184618D01*
X0076930Y0184760D01*
X0076862Y0184903D01*
X0076798Y0185048D01*
X0076738Y0185194D01*
X0076682Y0185342D01*
X0076629Y0185491D01*
X0076580Y0185642D01*
X0076535Y0185794D01*
X0076494Y0185947D01*
X0076456Y0186100D01*
X0076423Y0186255D01*
X0076393Y0186411D01*
X0076367Y0186567D01*
X0076346Y0186724D01*
X0076328Y0186881D01*
X0076314Y0187039D01*
X0076304Y0187197D01*
X0076298Y0187355D01*
X0076296Y0187513D01*
D11*
X0092207Y0193615D02*
X0094142Y0193615D01*
X0093174Y0193615D02*
X0093174Y0190713D01*
X0095153Y0190713D02*
X0095153Y0192648D01*
X0096121Y0193615D01*
X0097088Y0192648D01*
X0097088Y0190713D01*
X0098100Y0191196D02*
X0098583Y0190713D01*
X0100035Y0190713D01*
X0100035Y0193615D01*
X0098583Y0193615D01*
X0098100Y0193131D01*
X0098100Y0192648D01*
X0098583Y0192164D01*
X0100035Y0192164D01*
X0098583Y0192164D02*
X0098100Y0191680D01*
X0098100Y0191196D01*
X0097088Y0192164D02*
X0095153Y0192164D01*
X0103457Y0191196D02*
X0103457Y0193131D01*
X0103940Y0193615D01*
X0105392Y0193615D01*
X0105392Y0190713D01*
X0103940Y0190713D01*
X0103457Y0191196D01*
X0106403Y0190713D02*
X0106403Y0193615D01*
X0108338Y0193615D02*
X0106403Y0190713D01*
X0108338Y0190713D02*
X0108338Y0193615D01*
X0109350Y0193131D02*
X0109833Y0193615D01*
X0110801Y0193615D01*
X0111285Y0193131D01*
X0111285Y0191196D01*
X0110801Y0190713D01*
X0109833Y0190713D01*
X0109350Y0191196D01*
X0109350Y0192164D01*
X0110317Y0192164D01*
X0112244Y0173065D02*
X0111760Y0172581D01*
X0111760Y0172098D01*
X0112244Y0171614D01*
X0111760Y0171130D01*
X0111760Y0170646D01*
X0112244Y0170163D01*
X0113211Y0170163D01*
X0113695Y0170646D01*
X0112728Y0171614D02*
X0112244Y0171614D01*
X0112244Y0173065D02*
X0113211Y0173065D01*
X0113695Y0172581D01*
X0114617Y0173065D02*
X0116552Y0173065D01*
X0115585Y0173065D02*
X0115585Y0170163D01*
X0117564Y0170163D02*
X0117564Y0172098D01*
X0118531Y0173065D01*
X0119499Y0172098D01*
X0119499Y0170163D01*
X0120510Y0170646D02*
X0120994Y0170163D01*
X0122445Y0170163D01*
X0122445Y0173065D01*
X0120994Y0173065D01*
X0120510Y0172581D01*
X0120510Y0172098D01*
X0120994Y0171614D01*
X0122445Y0171614D01*
X0120994Y0171614D02*
X0120510Y0171130D01*
X0120510Y0170646D01*
X0119499Y0171614D02*
X0117564Y0171614D01*
X0110749Y0169195D02*
X0109781Y0170163D01*
X0110265Y0170163D01*
X0110265Y0170646D01*
X0109781Y0170646D01*
X0109781Y0170163D01*
X0108784Y0170646D02*
X0108301Y0170163D01*
X0107333Y0170163D01*
X0106849Y0170646D01*
X0106849Y0171130D01*
X0107333Y0171614D01*
X0107817Y0171614D01*
X0107333Y0171614D02*
X0106849Y0172098D01*
X0106849Y0172581D01*
X0107333Y0173065D01*
X0108301Y0173065D01*
X0108784Y0172581D01*
X0105838Y0173065D02*
X0105838Y0171130D01*
X0104870Y0170163D01*
X0103903Y0171130D01*
X0103903Y0173065D01*
X0104195Y0160065D02*
X0102744Y0160065D01*
X0102260Y0159581D01*
X0102260Y0158614D01*
X0102744Y0158130D01*
X0104195Y0158130D01*
X0104195Y0157163D02*
X0104195Y0160065D01*
X0103228Y0158130D02*
X0102260Y0157163D01*
X0101249Y0157163D02*
X0099314Y0157163D01*
X0100281Y0157163D02*
X0100281Y0160065D01*
X0101249Y0159098D01*
X0097464Y0154651D02*
X0097948Y0154167D01*
X0097948Y0153200D01*
X0097464Y0152716D01*
X0097464Y0151705D02*
X0096496Y0151705D01*
X0096013Y0151221D01*
X0096013Y0149770D01*
X0096013Y0150737D02*
X0095045Y0151705D01*
X0095045Y0152716D02*
X0096980Y0154651D01*
X0097464Y0154651D01*
X0095045Y0154651D02*
X0095045Y0152716D01*
X0097464Y0151705D02*
X0097948Y0151221D01*
X0097948Y0149770D01*
X0095045Y0149770D01*
X0100229Y0143294D02*
X0099745Y0142811D01*
X0099745Y0141843D01*
X0100229Y0141359D01*
X0099745Y0140348D02*
X0100713Y0139380D01*
X0100713Y0139864D02*
X0100713Y0138413D01*
X0099745Y0138413D02*
X0102648Y0138413D01*
X0102648Y0139864D01*
X0102164Y0140348D01*
X0101196Y0140348D01*
X0100713Y0139864D01*
X0102164Y0141359D02*
X0102648Y0141843D01*
X0102648Y0142811D01*
X0102164Y0143294D01*
X0101680Y0143294D01*
X0101196Y0142811D01*
X0100713Y0143294D01*
X0100229Y0143294D01*
X0101196Y0142811D02*
X0101196Y0142327D01*
X0079398Y0140811D02*
X0078914Y0141294D01*
X0078430Y0141294D01*
X0077946Y0140811D01*
X0077463Y0141294D01*
X0076979Y0141294D01*
X0076495Y0140811D01*
X0076495Y0139843D01*
X0076979Y0139359D01*
X0076979Y0138348D02*
X0076495Y0137864D01*
X0076495Y0136413D01*
X0079398Y0136413D01*
X0079398Y0137864D01*
X0078914Y0138348D01*
X0076979Y0138348D01*
X0078914Y0139359D02*
X0079398Y0139843D01*
X0079398Y0140811D01*
X0077946Y0140811D02*
X0077946Y0140327D01*
X0076979Y0145163D02*
X0076495Y0145646D01*
X0076495Y0146614D01*
X0076979Y0147098D01*
X0077463Y0147098D01*
X0077946Y0146614D01*
X0077946Y0146130D01*
X0077946Y0146614D02*
X0078430Y0147098D01*
X0078914Y0147098D01*
X0079398Y0146614D01*
X0079398Y0145646D01*
X0078914Y0145163D01*
X0076979Y0148593D02*
X0076495Y0148593D01*
X0076495Y0149077D01*
X0076979Y0149077D01*
X0076979Y0148593D01*
X0076495Y0149077D02*
X0075528Y0148109D01*
X0076979Y0150074D02*
X0076495Y0150557D01*
X0076495Y0151525D01*
X0076979Y0152009D01*
X0077463Y0152009D01*
X0077946Y0151525D01*
X0077946Y0151041D01*
X0077946Y0151525D02*
X0078430Y0152009D01*
X0078914Y0152009D01*
X0079398Y0151525D01*
X0079398Y0150557D01*
X0078914Y0150074D01*
X0079398Y0153020D02*
X0077463Y0153020D01*
X0076495Y0153988D01*
X0077463Y0154955D01*
X0079398Y0154955D01*
X0079273Y0156413D02*
X0079273Y0157864D01*
X0078789Y0158348D01*
X0076854Y0158348D01*
X0076370Y0157864D01*
X0076370Y0156413D01*
X0079273Y0156413D01*
X0078789Y0159359D02*
X0079273Y0159843D01*
X0079273Y0160811D01*
X0078789Y0161294D01*
X0078305Y0161294D01*
X0076370Y0159359D01*
X0076370Y0161294D01*
X0076979Y0163913D02*
X0076495Y0164396D01*
X0076495Y0165364D01*
X0076979Y0165848D01*
X0077946Y0165848D01*
X0077946Y0164880D01*
X0076979Y0163913D02*
X0078914Y0163913D01*
X0079398Y0164396D01*
X0079398Y0165364D01*
X0078914Y0165848D01*
X0079398Y0166859D02*
X0076495Y0168794D01*
X0079398Y0168794D01*
X0079398Y0169806D02*
X0076495Y0169806D01*
X0076495Y0171257D01*
X0076979Y0171741D01*
X0078914Y0171741D01*
X0079398Y0171257D01*
X0079398Y0169806D01*
X0079398Y0166859D02*
X0076495Y0166859D01*
X0076979Y0131741D02*
X0076495Y0131257D01*
X0076495Y0129806D01*
X0079398Y0129806D01*
X0079398Y0131257D01*
X0078914Y0131741D01*
X0076979Y0131741D01*
X0076495Y0128794D02*
X0079398Y0128794D01*
X0079398Y0126859D02*
X0076495Y0126859D01*
X0076979Y0125848D02*
X0076495Y0125364D01*
X0076495Y0124396D01*
X0076979Y0123913D01*
X0078914Y0123913D01*
X0079398Y0124396D01*
X0079398Y0125364D01*
X0078914Y0125848D01*
X0077946Y0125848D02*
X0077946Y0124880D01*
X0077946Y0125848D02*
X0076979Y0125848D01*
X0079398Y0126859D02*
X0076495Y0128794D01*
X0076979Y0121741D02*
X0076495Y0121257D01*
X0076495Y0119806D01*
X0079398Y0119806D01*
X0079398Y0121257D01*
X0078914Y0121741D01*
X0076979Y0121741D01*
X0076495Y0118794D02*
X0079398Y0118794D01*
X0079398Y0116859D02*
X0076495Y0116859D01*
X0076979Y0115848D02*
X0076495Y0115364D01*
X0076495Y0114396D01*
X0076979Y0113913D01*
X0078914Y0113913D01*
X0079398Y0114396D01*
X0079398Y0115364D01*
X0078914Y0115848D01*
X0077946Y0115848D02*
X0077946Y0114880D01*
X0077946Y0115848D02*
X0076979Y0115848D01*
X0079398Y0116859D02*
X0076495Y0118794D01*
X0077696Y0110044D02*
X0077696Y0108109D01*
X0079148Y0109561D01*
X0076245Y0109561D01*
X0076729Y0107098D02*
X0078664Y0107098D01*
X0079148Y0106614D01*
X0079148Y0105163D01*
X0076245Y0105163D01*
X0076245Y0106614D01*
X0076729Y0107098D01*
X0077463Y0103705D02*
X0076495Y0102738D01*
X0077463Y0101770D01*
X0079398Y0101770D01*
X0078914Y0100759D02*
X0078430Y0100759D01*
X0077946Y0100275D01*
X0077463Y0100759D01*
X0076979Y0100759D01*
X0076495Y0100275D01*
X0076495Y0099307D01*
X0076979Y0098824D01*
X0076979Y0097827D02*
X0076979Y0097343D01*
X0076495Y0097343D01*
X0076495Y0097827D01*
X0076979Y0097827D01*
X0076495Y0097827D02*
X0075528Y0096859D01*
X0076979Y0095848D02*
X0076495Y0095364D01*
X0076495Y0094396D01*
X0076979Y0093913D01*
X0077946Y0094880D02*
X0077946Y0095364D01*
X0077463Y0095848D01*
X0076979Y0095848D01*
X0077946Y0095364D02*
X0078430Y0095848D01*
X0078914Y0095848D01*
X0079398Y0095364D01*
X0079398Y0094396D01*
X0078914Y0093913D01*
X0078914Y0098824D02*
X0079398Y0099307D01*
X0079398Y0100275D01*
X0078914Y0100759D01*
X0077946Y0100275D02*
X0077946Y0099791D01*
X0077463Y0103705D02*
X0079398Y0103705D01*
X0125564Y0097081D02*
X0126047Y0097565D01*
X0127015Y0097565D01*
X0127499Y0097081D01*
X0127499Y0096598D01*
X0127015Y0096114D01*
X0125564Y0096114D01*
X0127015Y0096114D01*
X0127499Y0096598D01*
X0127499Y0097081D01*
X0127015Y0097565D01*
X0126047Y0097565D01*
X0125564Y0097081D01*
X0125564Y0095146D01*
X0126047Y0094663D01*
X0127015Y0094663D01*
X0127499Y0095146D01*
X0127015Y0094663D01*
X0126047Y0094663D01*
X0125564Y0095146D01*
X0125564Y0097081D01*
X0128510Y0097081D02*
X0128994Y0097565D01*
X0130445Y0097565D01*
X0130445Y0094663D01*
X0130445Y0097565D01*
X0128994Y0097565D01*
X0128510Y0097081D01*
X0128510Y0096114D01*
X0128994Y0095630D01*
X0130445Y0095630D01*
X0128994Y0095630D01*
X0128510Y0096114D01*
X0128510Y0097081D01*
X0129478Y0095630D02*
X0128510Y0094663D01*
X0129478Y0095630D01*
X0128887Y0085365D02*
X0128403Y0084881D01*
X0128403Y0083914D01*
X0128887Y0083430D01*
X0130338Y0083430D01*
X0130338Y0082463D02*
X0130338Y0085365D01*
X0128887Y0085365D01*
X0129371Y0083430D02*
X0128403Y0082463D01*
X0127392Y0083914D02*
X0125457Y0083914D01*
X0125940Y0082463D02*
X0125940Y0085365D01*
X0127392Y0083914D01*
X0138862Y0067698D02*
X0138245Y0067081D01*
X0138245Y0065847D01*
X0138862Y0065230D01*
X0138245Y0065847D01*
X0138245Y0067081D01*
X0138862Y0067698D01*
X0139480Y0067698D01*
X0140097Y0067081D01*
X0140097Y0066464D01*
X0140097Y0067081D01*
X0140714Y0067698D01*
X0141331Y0067698D01*
X0141948Y0067081D01*
X0141948Y0065847D01*
X0141331Y0065230D01*
X0141948Y0065847D01*
X0141948Y0067081D01*
X0141331Y0067698D01*
X0140714Y0067698D01*
X0140097Y0067081D01*
X0139480Y0067698D01*
X0138862Y0067698D01*
X0138862Y0064015D02*
X0138245Y0063398D01*
X0138245Y0062164D01*
X0138862Y0061546D01*
X0141331Y0061546D01*
X0141948Y0062164D01*
X0141948Y0063398D01*
X0141331Y0064015D01*
X0141948Y0063398D01*
X0141948Y0062164D01*
X0141331Y0061546D01*
X0138862Y0061546D01*
X0138245Y0062164D01*
X0138245Y0063398D01*
X0138862Y0064015D01*
X0138245Y0060325D02*
X0138245Y0059091D01*
X0138245Y0060325D01*
X0138245Y0059708D02*
X0141948Y0059708D01*
X0138245Y0059708D01*
X0141948Y0059091D02*
X0141948Y0060325D01*
X0141948Y0059091D01*
X0165564Y0072646D02*
X0166047Y0072163D01*
X0167015Y0072163D01*
X0167499Y0072646D01*
X0167015Y0072163D01*
X0166047Y0072163D01*
X0165564Y0072646D01*
X0165564Y0073614D01*
X0166047Y0074098D01*
X0166531Y0074098D01*
X0167499Y0073614D01*
X0167499Y0075065D01*
X0165564Y0075065D01*
X0167499Y0075065D01*
X0167499Y0073614D01*
X0166531Y0074098D01*
X0166047Y0074098D01*
X0165564Y0073614D01*
X0165564Y0072646D01*
X0168510Y0072163D02*
X0169478Y0073130D01*
X0168510Y0072163D01*
X0168994Y0073130D02*
X0170445Y0073130D01*
X0168994Y0073130D01*
X0168510Y0073614D01*
X0168510Y0074581D01*
X0168994Y0075065D01*
X0170445Y0075065D01*
X0170445Y0072163D01*
X0170445Y0075065D01*
X0168994Y0075065D01*
X0168510Y0074581D01*
X0168510Y0073614D01*
X0168994Y0073130D01*
X0190564Y0073130D02*
X0191047Y0073614D01*
X0192499Y0073614D01*
X0192499Y0072646D01*
X0192015Y0072163D01*
X0191047Y0072163D01*
X0190564Y0072646D01*
X0190564Y0073130D01*
X0191531Y0074581D02*
X0190564Y0075065D01*
X0191531Y0074581D02*
X0192499Y0073614D01*
X0193510Y0073614D02*
X0193994Y0073130D01*
X0195445Y0073130D01*
X0195445Y0072163D02*
X0195445Y0075065D01*
X0193994Y0075065D01*
X0193510Y0074581D01*
X0193510Y0073614D01*
X0194478Y0073130D02*
X0193510Y0072163D01*
X0201367Y0072163D02*
X0203302Y0072163D01*
X0201367Y0074098D01*
X0201367Y0074581D01*
X0201851Y0075065D01*
X0202818Y0075065D01*
X0203302Y0074581D01*
X0202818Y0075065D01*
X0201851Y0075065D01*
X0201367Y0074581D01*
X0201367Y0074098D01*
X0203302Y0072163D01*
X0201367Y0072163D01*
X0204314Y0072163D02*
X0206249Y0072163D01*
X0204314Y0072163D01*
X0205281Y0072163D02*
X0205281Y0075065D01*
X0206249Y0074098D01*
X0205281Y0075065D01*
X0205281Y0072163D01*
X0207260Y0072163D02*
X0208228Y0073130D01*
X0207260Y0072163D01*
X0207744Y0073130D02*
X0209195Y0073130D01*
X0207744Y0073130D01*
X0207260Y0073614D01*
X0207260Y0074581D01*
X0207744Y0075065D01*
X0209195Y0075065D01*
X0209195Y0072163D01*
X0209195Y0075065D01*
X0207744Y0075065D01*
X0207260Y0074581D01*
X0207260Y0073614D01*
X0207744Y0073130D01*
X0228995Y0070327D02*
X0229963Y0071294D01*
X0231898Y0071294D01*
X0231898Y0069359D02*
X0229963Y0069359D01*
X0228995Y0070327D01*
X0229479Y0068348D02*
X0228995Y0067864D01*
X0228995Y0066896D01*
X0229479Y0066413D01*
X0230446Y0066413D02*
X0230930Y0067380D01*
X0230930Y0067864D01*
X0230446Y0068348D01*
X0229479Y0068348D01*
X0230446Y0066413D02*
X0231898Y0066413D01*
X0231898Y0068348D01*
X0231414Y0061741D02*
X0229479Y0061741D01*
X0228995Y0061257D01*
X0228995Y0059806D01*
X0231898Y0059806D01*
X0231898Y0061257D01*
X0231414Y0061741D01*
X0231898Y0058794D02*
X0228995Y0058794D01*
X0231898Y0056859D01*
X0228995Y0056859D01*
X0229479Y0055848D02*
X0230446Y0055848D01*
X0230446Y0054880D01*
X0229963Y0053705D02*
X0231898Y0053705D01*
X0231414Y0053913D02*
X0229479Y0053913D01*
X0228995Y0054396D01*
X0228995Y0055364D01*
X0229479Y0055848D01*
X0231414Y0055848D02*
X0231898Y0055364D01*
X0231898Y0054396D01*
X0231414Y0053913D01*
X0229963Y0053705D02*
X0228995Y0052738D01*
X0229963Y0051770D01*
X0231898Y0051770D01*
X0231414Y0050759D02*
X0230930Y0050759D01*
X0230446Y0050275D01*
X0229963Y0050759D01*
X0229479Y0050759D01*
X0228995Y0050275D01*
X0228995Y0049307D01*
X0229479Y0048824D01*
X0229479Y0047827D02*
X0229479Y0047343D01*
X0228995Y0047343D01*
X0228995Y0047827D01*
X0229479Y0047827D01*
X0228995Y0047827D02*
X0228028Y0046859D01*
X0229479Y0045848D02*
X0228995Y0045364D01*
X0228995Y0044396D01*
X0229479Y0043913D01*
X0230446Y0044880D02*
X0230446Y0045364D01*
X0229963Y0045848D01*
X0229479Y0045848D01*
X0230446Y0045364D02*
X0230930Y0045848D01*
X0231414Y0045848D01*
X0231898Y0045364D01*
X0231898Y0044396D01*
X0231414Y0043913D01*
X0231414Y0041294D02*
X0229479Y0039359D01*
X0228995Y0039359D01*
X0228995Y0038348D02*
X0230930Y0038348D01*
X0231898Y0037380D01*
X0230930Y0036413D01*
X0228995Y0036413D01*
X0230446Y0036413D02*
X0230446Y0038348D01*
X0231898Y0039359D02*
X0231898Y0041294D01*
X0231414Y0041294D01*
X0231414Y0048824D02*
X0231898Y0049307D01*
X0231898Y0050275D01*
X0231414Y0050759D01*
X0230446Y0050275D02*
X0230446Y0049791D01*
X0229479Y0031741D02*
X0231414Y0031741D01*
X0231898Y0031257D01*
X0231898Y0029806D01*
X0228995Y0029806D01*
X0228995Y0031257D01*
X0229479Y0031741D01*
X0228995Y0028794D02*
X0231898Y0028794D01*
X0231898Y0026859D02*
X0228995Y0026859D01*
X0229479Y0025848D02*
X0230446Y0025848D01*
X0230446Y0024880D01*
X0229479Y0023913D02*
X0228995Y0024396D01*
X0228995Y0025364D01*
X0229479Y0025848D01*
X0231414Y0025848D02*
X0231898Y0025364D01*
X0231898Y0024396D01*
X0231414Y0023913D01*
X0229479Y0023913D01*
X0231898Y0026859D02*
X0228995Y0028794D01*
X0206698Y0035573D02*
X0206698Y0037024D01*
X0206214Y0037508D01*
X0205246Y0037508D01*
X0204763Y0037024D01*
X0204763Y0035573D01*
X0204763Y0037024D01*
X0205246Y0037508D01*
X0206214Y0037508D01*
X0206698Y0037024D01*
X0206698Y0035573D01*
X0203795Y0035573D01*
X0206698Y0035573D01*
X0204763Y0036541D02*
X0203795Y0037508D01*
X0204763Y0036541D01*
X0205730Y0038520D02*
X0206698Y0039487D01*
X0203795Y0039487D01*
X0206698Y0039487D01*
X0205730Y0038520D01*
X0203795Y0038520D02*
X0203795Y0040455D01*
X0203795Y0038520D01*
X0204279Y0041466D02*
X0203795Y0041950D01*
X0203795Y0042917D01*
X0204279Y0043401D01*
X0206214Y0043401D01*
X0204279Y0041466D01*
X0206214Y0041466D01*
X0206698Y0041950D01*
X0206698Y0042917D01*
X0206214Y0043401D01*
X0204279Y0041466D01*
X0203795Y0041950D01*
X0203795Y0042917D01*
X0204279Y0043401D01*
X0206214Y0043401D01*
X0206698Y0042917D01*
X0206698Y0041950D01*
X0206214Y0041466D01*
X0204279Y0041466D01*
X0203714Y0009651D02*
X0203230Y0009651D01*
X0202746Y0009167D01*
X0202263Y0009651D01*
X0201779Y0009651D01*
X0201295Y0009167D01*
X0201295Y0008200D01*
X0201779Y0007716D01*
X0201295Y0008200D01*
X0201295Y0009167D01*
X0201779Y0009651D01*
X0202263Y0009651D01*
X0202746Y0009167D01*
X0202746Y0008684D01*
X0202746Y0009167D01*
X0203230Y0009651D01*
X0203714Y0009651D01*
X0204198Y0009167D01*
X0204198Y0008200D01*
X0203714Y0007716D01*
X0204198Y0008200D01*
X0204198Y0009167D01*
X0203714Y0009651D01*
X0203714Y0006705D02*
X0204198Y0006221D01*
X0204198Y0005253D01*
X0203714Y0004770D01*
X0201779Y0004770D01*
X0201295Y0005253D01*
X0201295Y0006221D01*
X0201779Y0006705D01*
X0201295Y0006221D01*
X0201295Y0005253D01*
X0201779Y0004770D01*
X0203714Y0004770D01*
X0204198Y0005253D01*
X0204198Y0006221D01*
X0203714Y0006705D01*
X0195749Y0006196D02*
X0195265Y0005713D01*
X0194298Y0005713D01*
X0193814Y0006196D01*
X0193814Y0006680D01*
X0194298Y0007164D01*
X0194782Y0007164D01*
X0194298Y0007164D02*
X0193814Y0007648D01*
X0193814Y0008131D01*
X0194298Y0008615D01*
X0195265Y0008615D01*
X0195749Y0008131D01*
X0192319Y0006196D02*
X0192319Y0005713D01*
X0191835Y0005713D01*
X0191835Y0006196D01*
X0192319Y0006196D01*
X0191835Y0005713D02*
X0192803Y0004745D01*
X0190838Y0006196D02*
X0190354Y0005713D01*
X0189387Y0005713D01*
X0188903Y0006196D01*
X0188903Y0006680D01*
X0189387Y0007164D01*
X0189871Y0007164D01*
X0189387Y0007164D02*
X0188903Y0007648D01*
X0188903Y0008131D01*
X0189387Y0008615D01*
X0190354Y0008615D01*
X0190838Y0008131D01*
X0187892Y0008615D02*
X0187892Y0006680D01*
X0186924Y0005713D01*
X0185957Y0006680D01*
X0185957Y0008615D01*
X0182535Y0008131D02*
X0182535Y0006196D01*
X0182051Y0005713D01*
X0181083Y0005713D01*
X0180600Y0006196D01*
X0180600Y0007164D01*
X0181567Y0007164D01*
X0180600Y0008131D02*
X0181083Y0008615D01*
X0182051Y0008615D01*
X0182535Y0008131D01*
X0179588Y0008615D02*
X0179588Y0005713D01*
X0177653Y0005713D02*
X0177653Y0008615D01*
X0176642Y0008615D02*
X0175190Y0008615D01*
X0174707Y0008131D01*
X0174707Y0006196D01*
X0175190Y0005713D01*
X0176642Y0005713D01*
X0176642Y0008615D01*
X0179588Y0008615D02*
X0177653Y0005713D01*
X0170838Y0005713D02*
X0169387Y0005713D01*
X0168903Y0006196D01*
X0168903Y0008131D01*
X0169387Y0008615D01*
X0170838Y0008615D01*
X0170838Y0005713D01*
X0167892Y0005713D02*
X0167892Y0006196D01*
X0165957Y0008131D01*
X0165957Y0008615D01*
X0167892Y0008615D01*
X0160838Y0007648D02*
X0159871Y0008615D01*
X0158903Y0007648D01*
X0158903Y0005713D01*
X0157892Y0005713D02*
X0155957Y0005713D01*
X0156924Y0005713D02*
X0156924Y0008615D01*
X0157892Y0007648D01*
X0158903Y0007164D02*
X0160838Y0007164D01*
X0160838Y0007648D02*
X0160838Y0005713D01*
X0149588Y0005713D02*
X0148137Y0005713D01*
X0147653Y0006196D01*
X0147653Y0008131D01*
X0148137Y0008615D01*
X0149588Y0008615D01*
X0149588Y0005713D01*
X0146642Y0006196D02*
X0146158Y0005713D01*
X0145190Y0005713D01*
X0144707Y0006196D01*
X0144707Y0007164D01*
X0145190Y0007648D01*
X0145674Y0007648D01*
X0146642Y0007164D01*
X0146642Y0008615D01*
X0144707Y0008615D01*
X0143249Y0008131D02*
X0142765Y0008615D01*
X0141798Y0008615D01*
X0141314Y0008131D01*
X0141314Y0007648D01*
X0141798Y0007164D01*
X0141314Y0006680D01*
X0141314Y0006196D01*
X0141798Y0005713D01*
X0142765Y0005713D01*
X0143249Y0006196D01*
X0142282Y0007164D02*
X0141798Y0007164D01*
X0139819Y0006196D02*
X0139819Y0005713D01*
X0139335Y0005713D01*
X0139335Y0006196D01*
X0139819Y0006196D01*
X0139335Y0005713D02*
X0140303Y0004745D01*
X0138338Y0006196D02*
X0137854Y0005713D01*
X0136887Y0005713D01*
X0136403Y0006196D01*
X0136403Y0006680D01*
X0136887Y0007164D01*
X0137371Y0007164D01*
X0136887Y0007164D02*
X0136403Y0007648D01*
X0136403Y0008131D01*
X0136887Y0008615D01*
X0137854Y0008615D01*
X0138338Y0008131D01*
X0135392Y0008615D02*
X0135392Y0006680D01*
X0134424Y0005713D01*
X0133457Y0006680D01*
X0133457Y0008615D01*
X0130035Y0008131D02*
X0130035Y0006196D01*
X0129551Y0005713D01*
X0128583Y0005713D01*
X0128100Y0006196D01*
X0128100Y0007164D01*
X0129067Y0007164D01*
X0128100Y0008131D02*
X0128583Y0008615D01*
X0129551Y0008615D01*
X0130035Y0008131D01*
X0127088Y0008615D02*
X0125153Y0005713D01*
X0125153Y0008615D01*
X0124142Y0008615D02*
X0124142Y0005713D01*
X0122690Y0005713D01*
X0122207Y0006196D01*
X0122207Y0008131D01*
X0122690Y0008615D01*
X0124142Y0008615D01*
X0127088Y0008615D02*
X0127088Y0005713D01*
X0118338Y0005713D02*
X0116887Y0005713D01*
X0116403Y0006196D01*
X0116403Y0008131D01*
X0116887Y0008615D01*
X0118338Y0008615D01*
X0118338Y0005713D01*
X0115392Y0006196D02*
X0114908Y0005713D01*
X0113940Y0005713D01*
X0113457Y0006196D01*
X0113457Y0006680D01*
X0113940Y0007164D01*
X0115392Y0007164D01*
X0115392Y0006196D01*
X0115392Y0007164D02*
X0114424Y0008131D01*
X0113457Y0008615D01*
X0111999Y0008131D02*
X0111515Y0008615D01*
X0110548Y0008615D01*
X0110064Y0008131D01*
X0110064Y0007648D01*
X0110548Y0007164D01*
X0110064Y0006680D01*
X0110064Y0006196D01*
X0110548Y0005713D01*
X0111515Y0005713D01*
X0111999Y0006196D01*
X0111032Y0007164D02*
X0110548Y0007164D01*
X0108569Y0006196D02*
X0108569Y0005713D01*
X0108085Y0005713D01*
X0108085Y0006196D01*
X0108569Y0006196D01*
X0108085Y0005713D02*
X0109053Y0004745D01*
X0107088Y0006196D02*
X0106604Y0005713D01*
X0105637Y0005713D01*
X0105153Y0006196D01*
X0105153Y0006680D01*
X0105637Y0007164D01*
X0106121Y0007164D01*
X0105637Y0007164D02*
X0105153Y0007648D01*
X0105153Y0008131D01*
X0105637Y0008615D01*
X0106604Y0008615D01*
X0107088Y0008131D01*
X0104142Y0008615D02*
X0104142Y0006680D01*
X0103174Y0005713D01*
X0102207Y0006680D01*
X0102207Y0008615D01*
X0100035Y0008131D02*
X0100035Y0006196D01*
X0099551Y0005713D01*
X0098583Y0005713D01*
X0098100Y0006196D01*
X0098100Y0007164D01*
X0099067Y0007164D01*
X0098100Y0008131D02*
X0098583Y0008615D01*
X0099551Y0008615D01*
X0100035Y0008131D01*
X0097088Y0008615D02*
X0097088Y0005713D01*
X0095153Y0005713D02*
X0095153Y0008615D01*
X0094142Y0008615D02*
X0092690Y0008615D01*
X0092207Y0008131D01*
X0092207Y0006196D01*
X0092690Y0005713D01*
X0094142Y0005713D01*
X0094142Y0008615D01*
X0097088Y0008615D02*
X0095153Y0005713D01*
X0109999Y0028413D02*
X0109999Y0028896D01*
X0108064Y0030831D01*
X0108064Y0031315D01*
X0109999Y0031315D01*
X0108064Y0031315D01*
X0108064Y0030831D01*
X0109999Y0028896D01*
X0109999Y0028413D01*
X0111010Y0028413D02*
X0111978Y0029380D01*
X0111010Y0028413D01*
X0111494Y0029380D02*
X0111010Y0029864D01*
X0111010Y0030831D01*
X0111494Y0031315D01*
X0112945Y0031315D01*
X0112945Y0028413D01*
X0112945Y0031315D01*
X0111494Y0031315D01*
X0111010Y0030831D01*
X0111010Y0029864D01*
X0111494Y0029380D01*
X0112945Y0029380D01*
X0111494Y0029380D01*
X0145564Y0029581D02*
X0145564Y0029098D01*
X0146047Y0028614D01*
X0147015Y0028614D01*
X0147499Y0029098D01*
X0147499Y0029581D01*
X0147015Y0030065D01*
X0146047Y0030065D01*
X0145564Y0029581D01*
X0145564Y0029098D01*
X0146047Y0028614D01*
X0145564Y0028130D01*
X0145564Y0027646D01*
X0146047Y0027163D01*
X0147015Y0027163D01*
X0147499Y0027646D01*
X0147499Y0028130D01*
X0147015Y0028614D01*
X0146047Y0028614D01*
X0145564Y0028130D01*
X0145564Y0027646D01*
X0146047Y0027163D01*
X0147015Y0027163D01*
X0147499Y0027646D01*
X0147499Y0028130D01*
X0147015Y0028614D01*
X0147499Y0029098D01*
X0147499Y0029581D01*
X0147015Y0030065D01*
X0146047Y0030065D01*
X0145564Y0029581D01*
X0148510Y0029581D02*
X0148510Y0028614D01*
X0148994Y0028130D01*
X0150445Y0028130D01*
X0148994Y0028130D01*
X0148510Y0028614D01*
X0148510Y0029581D01*
X0148994Y0030065D01*
X0150445Y0030065D01*
X0150445Y0027163D01*
X0150445Y0030065D01*
X0148994Y0030065D01*
X0148510Y0029581D01*
X0149478Y0028130D02*
X0148510Y0027163D01*
X0149478Y0028130D01*
X0160742Y0025913D02*
X0162677Y0025913D01*
X0161710Y0025913D02*
X0161710Y0028815D01*
X0162677Y0027848D01*
X0163689Y0025913D02*
X0165624Y0025913D01*
X0164656Y0025913D02*
X0164656Y0028815D01*
X0165624Y0027848D01*
X0166635Y0028331D02*
X0166635Y0027364D01*
X0167119Y0026880D01*
X0168570Y0026880D01*
X0168570Y0025913D02*
X0168570Y0028815D01*
X0167119Y0028815D01*
X0166635Y0028331D01*
X0167603Y0026880D02*
X0166635Y0025913D01*
X0228995Y0076413D02*
X0230930Y0076413D01*
X0231898Y0077380D01*
X0230930Y0078348D01*
X0228995Y0078348D01*
X0229479Y0079359D02*
X0228995Y0079843D01*
X0228995Y0080811D01*
X0229479Y0081294D01*
X0229963Y0081294D01*
X0230446Y0080811D01*
X0230446Y0079359D01*
X0229479Y0079359D01*
X0230446Y0079359D02*
X0231414Y0080327D01*
X0231898Y0081294D01*
X0230446Y0078348D02*
X0230446Y0076413D01*
X0230446Y0086413D02*
X0230446Y0088348D01*
X0230930Y0088348D02*
X0228995Y0088348D01*
X0229479Y0089359D02*
X0231414Y0091294D01*
X0229479Y0091294D01*
X0228995Y0090811D01*
X0228995Y0089843D01*
X0229479Y0089359D01*
X0231414Y0089359D01*
X0231898Y0089843D01*
X0231898Y0090811D01*
X0231414Y0091294D01*
X0230930Y0088348D02*
X0231898Y0087380D01*
X0230930Y0086413D01*
X0228995Y0086413D01*
X0229479Y0095163D02*
X0228995Y0095646D01*
X0228995Y0096614D01*
X0229479Y0097098D01*
X0229963Y0097098D01*
X0230446Y0096614D01*
X0230446Y0096130D01*
X0230446Y0096614D02*
X0230930Y0097098D01*
X0231414Y0097098D01*
X0231898Y0096614D01*
X0231898Y0095646D01*
X0231414Y0095163D01*
X0229479Y0098593D02*
X0228995Y0098593D01*
X0228995Y0099077D01*
X0229479Y0099077D01*
X0229479Y0098593D01*
X0228995Y0099077D02*
X0228028Y0098109D01*
X0229479Y0100074D02*
X0228995Y0100557D01*
X0228995Y0101525D01*
X0229479Y0102009D01*
X0229963Y0102009D01*
X0230446Y0101525D01*
X0230446Y0101041D01*
X0230446Y0101525D02*
X0230930Y0102009D01*
X0231414Y0102009D01*
X0231898Y0101525D01*
X0231898Y0100557D01*
X0231414Y0100074D01*
X0231898Y0103020D02*
X0229963Y0103020D01*
X0228995Y0103988D01*
X0229963Y0104955D01*
X0231898Y0104955D01*
X0231898Y0105364D02*
X0231898Y0104396D01*
X0231414Y0103913D01*
X0229479Y0103913D01*
X0228995Y0104396D01*
X0228995Y0105364D01*
X0229479Y0105848D01*
X0230446Y0105848D01*
X0230446Y0104880D01*
X0231414Y0105848D02*
X0231898Y0105364D01*
X0231898Y0106859D02*
X0228995Y0108794D01*
X0231898Y0108794D01*
X0231898Y0109806D02*
X0231898Y0111257D01*
X0231414Y0111741D01*
X0229479Y0111741D01*
X0228995Y0111257D01*
X0228995Y0109806D01*
X0231898Y0109806D01*
X0231898Y0106859D02*
X0228995Y0106859D01*
X0228995Y0115163D02*
X0230930Y0115163D01*
X0231898Y0116130D01*
X0230930Y0117098D01*
X0228995Y0117098D01*
X0228995Y0118109D02*
X0230930Y0120044D01*
X0231414Y0120044D01*
X0231898Y0119561D01*
X0231898Y0118593D01*
X0231414Y0118109D01*
X0230446Y0117098D02*
X0230446Y0115163D01*
X0228995Y0118109D02*
X0228995Y0120044D01*
X0229479Y0125163D02*
X0228995Y0125646D01*
X0228995Y0126614D01*
X0229479Y0127098D01*
X0230446Y0127098D01*
X0230930Y0126614D01*
X0230930Y0126130D01*
X0230446Y0125163D01*
X0231898Y0125163D01*
X0231898Y0127098D01*
X0231898Y0128109D02*
X0229963Y0128109D01*
X0228995Y0129077D01*
X0229963Y0130044D01*
X0231898Y0130044D01*
X0231414Y0133913D02*
X0229479Y0133913D01*
X0228995Y0134396D01*
X0228995Y0135364D01*
X0229479Y0135848D01*
X0230446Y0135848D01*
X0230446Y0134880D01*
X0231414Y0133913D02*
X0231898Y0134396D01*
X0231898Y0135364D01*
X0231414Y0135848D01*
X0231898Y0136859D02*
X0228995Y0136859D01*
X0228995Y0138794D02*
X0231898Y0138794D01*
X0231898Y0139806D02*
X0231898Y0141257D01*
X0231414Y0141741D01*
X0229479Y0141741D01*
X0228995Y0141257D01*
X0228995Y0139806D01*
X0231898Y0139806D01*
X0231898Y0136859D02*
X0228995Y0138794D01*
X0229479Y0143913D02*
X0228995Y0144396D01*
X0228995Y0145364D01*
X0229479Y0145848D01*
X0229963Y0145848D01*
X0230446Y0145364D01*
X0230446Y0144880D01*
X0230446Y0145364D02*
X0230930Y0145848D01*
X0231414Y0145848D01*
X0231898Y0145364D01*
X0231898Y0144396D01*
X0231414Y0143913D01*
X0229479Y0147343D02*
X0228995Y0147343D01*
X0228995Y0147827D01*
X0229479Y0147827D01*
X0229479Y0147343D01*
X0228995Y0147827D02*
X0228028Y0146859D01*
X0229479Y0148824D02*
X0228995Y0149307D01*
X0228995Y0150275D01*
X0229479Y0150759D01*
X0229963Y0150759D01*
X0230446Y0150275D01*
X0230446Y0149791D01*
X0230446Y0150275D02*
X0230930Y0150759D01*
X0231414Y0150759D01*
X0231898Y0150275D01*
X0231898Y0149307D01*
X0231414Y0148824D01*
X0231898Y0151770D02*
X0229963Y0151770D01*
X0228995Y0152738D01*
X0229963Y0153705D01*
X0231898Y0153705D01*
X0231414Y0153913D02*
X0230930Y0153913D01*
X0230446Y0154396D01*
X0230446Y0155364D01*
X0229963Y0155848D01*
X0229479Y0155848D01*
X0228995Y0155364D01*
X0228995Y0154396D01*
X0229479Y0153913D01*
X0231414Y0153913D02*
X0231898Y0154396D01*
X0231898Y0155364D01*
X0231414Y0155848D01*
X0231898Y0156859D02*
X0228995Y0156859D01*
X0228995Y0158311D01*
X0229479Y0158794D01*
X0231414Y0158794D01*
X0231898Y0158311D01*
X0231898Y0156859D01*
X0230930Y0159806D02*
X0228995Y0159806D01*
X0230446Y0159806D02*
X0230446Y0161741D01*
X0230930Y0161741D02*
X0228995Y0161741D01*
X0230930Y0161741D02*
X0231898Y0160773D01*
X0230930Y0159806D01*
X0230930Y0163913D02*
X0230446Y0164396D01*
X0230446Y0165364D01*
X0229963Y0165848D01*
X0229479Y0165848D01*
X0228995Y0165364D01*
X0228995Y0164396D01*
X0229479Y0163913D01*
X0230930Y0163913D02*
X0231414Y0163913D01*
X0231898Y0164396D01*
X0231898Y0165364D01*
X0231414Y0165848D01*
X0231414Y0166859D02*
X0229479Y0166859D01*
X0228995Y0167343D01*
X0228995Y0168311D01*
X0229479Y0168794D01*
X0228995Y0169806D02*
X0228995Y0171741D01*
X0228995Y0169806D02*
X0231898Y0169806D01*
X0231414Y0168794D02*
X0231898Y0168311D01*
X0231898Y0167343D01*
X0231414Y0166859D01*
X0206898Y0167343D02*
X0206414Y0166859D01*
X0204479Y0166859D01*
X0203995Y0167343D01*
X0203995Y0168311D01*
X0204479Y0168794D01*
X0203995Y0169806D02*
X0203995Y0171741D01*
X0203995Y0169806D02*
X0206898Y0169806D01*
X0206414Y0168794D02*
X0206898Y0168311D01*
X0206898Y0167343D01*
X0206414Y0165848D02*
X0206898Y0165364D01*
X0206898Y0164396D01*
X0206414Y0163913D01*
X0205930Y0163913D01*
X0205446Y0164396D01*
X0205446Y0165364D01*
X0204963Y0165848D01*
X0204479Y0165848D01*
X0203995Y0165364D01*
X0203995Y0164396D01*
X0204479Y0163913D01*
X0203995Y0161741D02*
X0205930Y0161741D01*
X0206898Y0160773D01*
X0205930Y0159806D01*
X0203995Y0159806D01*
X0204479Y0158794D02*
X0203995Y0158311D01*
X0203995Y0156859D01*
X0206898Y0156859D01*
X0206898Y0158311D01*
X0206414Y0158794D01*
X0204479Y0158794D01*
X0205446Y0159806D02*
X0205446Y0161741D01*
X0204963Y0155848D02*
X0204479Y0155848D01*
X0203995Y0155364D01*
X0203995Y0154396D01*
X0204479Y0153913D01*
X0205446Y0154396D02*
X0205930Y0153913D01*
X0206414Y0153913D01*
X0206898Y0154396D01*
X0206898Y0155364D01*
X0206414Y0155848D01*
X0205446Y0155364D02*
X0204963Y0155848D01*
X0205446Y0155364D02*
X0205446Y0154396D01*
X0204963Y0150044D02*
X0203995Y0149077D01*
X0204963Y0148109D01*
X0206898Y0148109D01*
X0206898Y0147098D02*
X0206898Y0145163D01*
X0205446Y0145163D01*
X0205930Y0146130D01*
X0205930Y0146614D01*
X0205446Y0147098D01*
X0204479Y0147098D01*
X0203995Y0146614D01*
X0203995Y0145646D01*
X0204479Y0145163D01*
X0204479Y0141741D02*
X0203995Y0141257D01*
X0203995Y0139806D01*
X0206898Y0139806D01*
X0206898Y0141257D01*
X0206414Y0141741D01*
X0204479Y0141741D01*
X0203995Y0138794D02*
X0206898Y0138794D01*
X0206898Y0136859D02*
X0203995Y0136859D01*
X0204479Y0135848D02*
X0203995Y0135364D01*
X0203995Y0134396D01*
X0204479Y0133913D01*
X0206414Y0133913D01*
X0206898Y0134396D01*
X0206898Y0135364D01*
X0206414Y0135848D01*
X0205446Y0135848D02*
X0205446Y0134880D01*
X0205446Y0135848D02*
X0204479Y0135848D01*
X0206898Y0136859D02*
X0203995Y0138794D01*
X0204963Y0150044D02*
X0206898Y0150044D01*
X0192461Y0131315D02*
X0192945Y0130831D01*
X0192945Y0128896D01*
X0192461Y0128413D01*
X0191494Y0128413D01*
X0191010Y0128896D01*
X0191494Y0128413D01*
X0192461Y0128413D01*
X0192945Y0128896D01*
X0192945Y0130831D01*
X0192461Y0131315D01*
X0191494Y0131315D01*
X0191010Y0130831D01*
X0191494Y0131315D01*
X0192461Y0131315D01*
X0189999Y0129864D02*
X0188064Y0129864D01*
X0189999Y0129864D01*
X0188547Y0131315D01*
X0188547Y0128413D01*
X0188547Y0131315D01*
X0189999Y0129864D01*
X0190244Y0102565D02*
X0189760Y0102081D01*
X0189760Y0101114D01*
X0190244Y0100630D01*
X0191695Y0100630D01*
X0191695Y0099663D02*
X0191695Y0102565D01*
X0190244Y0102565D01*
X0188749Y0101598D02*
X0187781Y0102565D01*
X0187781Y0099663D01*
X0186814Y0099663D02*
X0188749Y0099663D01*
X0189760Y0099663D02*
X0190728Y0100630D01*
X0185802Y0100146D02*
X0185318Y0099663D01*
X0184351Y0099663D01*
X0183867Y0100146D01*
X0183867Y0100630D01*
X0184351Y0101114D01*
X0184835Y0101114D01*
X0184351Y0101114D02*
X0183867Y0101598D01*
X0183867Y0102081D01*
X0184351Y0102565D01*
X0185318Y0102565D01*
X0185802Y0102081D01*
X0155785Y0097865D02*
X0155785Y0094963D01*
X0155785Y0095930D02*
X0154333Y0095930D01*
X0153850Y0096414D01*
X0153850Y0097381D01*
X0154333Y0097865D01*
X0155785Y0097865D01*
X0154817Y0095930D02*
X0153850Y0094963D01*
X0152838Y0094963D02*
X0150903Y0094963D01*
X0151871Y0094963D02*
X0151871Y0097865D01*
X0152838Y0096898D01*
X0149892Y0096414D02*
X0147957Y0096414D01*
X0148440Y0094963D02*
X0148440Y0097865D01*
X0149892Y0096414D01*
X0141999Y0169195D02*
X0141031Y0170163D01*
X0141515Y0170163D01*
X0141515Y0170646D01*
X0141031Y0170646D01*
X0141031Y0170163D01*
X0140034Y0170646D02*
X0139551Y0170163D01*
X0138583Y0170163D01*
X0138099Y0170646D01*
X0138099Y0171130D01*
X0138583Y0171614D01*
X0139067Y0171614D01*
X0138583Y0171614D02*
X0138099Y0172098D01*
X0138099Y0172581D01*
X0138583Y0173065D01*
X0139551Y0173065D01*
X0140034Y0172581D01*
X0143010Y0172581D02*
X0143010Y0172098D01*
X0143494Y0171614D01*
X0143010Y0171130D01*
X0143010Y0170646D01*
X0143494Y0170163D01*
X0144461Y0170163D01*
X0144945Y0170646D01*
X0143978Y0171614D02*
X0143494Y0171614D01*
X0143010Y0172581D02*
X0143494Y0173065D01*
X0144461Y0173065D01*
X0144945Y0172581D01*
X0137088Y0173065D02*
X0137088Y0171130D01*
X0136120Y0170163D01*
X0135153Y0171130D01*
X0135153Y0173065D01*
X0134945Y0172581D02*
X0134945Y0170646D01*
X0134461Y0170163D01*
X0133494Y0170163D01*
X0133010Y0170646D01*
X0133010Y0171614D01*
X0133978Y0171614D01*
X0134945Y0172581D02*
X0134461Y0173065D01*
X0133494Y0173065D01*
X0133010Y0172581D01*
X0131999Y0173065D02*
X0130064Y0170163D01*
X0130064Y0173065D01*
X0129052Y0173065D02*
X0129052Y0170163D01*
X0127601Y0170163D01*
X0127117Y0170646D01*
X0127117Y0172581D01*
X0127601Y0173065D01*
X0129052Y0173065D01*
X0131999Y0173065D02*
X0131999Y0170163D01*
X0140674Y0190713D02*
X0139707Y0191680D01*
X0139707Y0193615D01*
X0141642Y0193615D02*
X0141642Y0191680D01*
X0140674Y0190713D01*
X0142653Y0191196D02*
X0143137Y0190713D01*
X0144104Y0190713D01*
X0144588Y0191196D01*
X0144588Y0192164D02*
X0143621Y0192648D01*
X0143137Y0192648D01*
X0142653Y0192164D01*
X0142653Y0191196D01*
X0144588Y0192164D02*
X0144588Y0193615D01*
X0142653Y0193615D01*
X0147082Y0193740D02*
X0147082Y0191805D01*
X0148049Y0190838D01*
X0149017Y0191805D01*
X0149017Y0193740D01*
X0150028Y0193256D02*
X0150028Y0192773D01*
X0150512Y0192289D01*
X0150028Y0191805D01*
X0150028Y0191321D01*
X0150512Y0190838D01*
X0151479Y0190838D01*
X0151963Y0191321D01*
X0152960Y0191321D02*
X0153444Y0191321D01*
X0153444Y0190838D01*
X0152960Y0190838D01*
X0152960Y0191321D01*
X0152960Y0190838D02*
X0153928Y0189870D01*
X0154939Y0191321D02*
X0155423Y0190838D01*
X0156390Y0190838D01*
X0156874Y0191321D01*
X0157207Y0191196D02*
X0157207Y0193131D01*
X0157690Y0193615D01*
X0159142Y0193615D01*
X0159142Y0190713D01*
X0157690Y0190713D01*
X0157207Y0191196D01*
X0155907Y0192289D02*
X0155423Y0192289D01*
X0154939Y0191805D01*
X0154939Y0191321D01*
X0155423Y0192289D02*
X0154939Y0192773D01*
X0154939Y0193256D01*
X0155423Y0193740D01*
X0156390Y0193740D01*
X0156874Y0193256D01*
X0160153Y0193615D02*
X0160153Y0190713D01*
X0162088Y0193615D01*
X0162088Y0190713D01*
X0163100Y0191196D02*
X0163100Y0192164D01*
X0164067Y0192164D01*
X0163100Y0193131D02*
X0163583Y0193615D01*
X0164551Y0193615D01*
X0165035Y0193131D01*
X0165035Y0191196D01*
X0164551Y0190713D01*
X0163583Y0190713D01*
X0163100Y0191196D01*
X0151963Y0193256D02*
X0151479Y0193740D01*
X0150512Y0193740D01*
X0150028Y0193256D01*
X0150512Y0192289D02*
X0150996Y0192289D01*
D12*
X0187145Y0166167D02*
X0187145Y0165267D01*
X0187596Y0164816D01*
X0188496Y0164816D02*
X0188947Y0165717D01*
X0188947Y0166167D01*
X0188496Y0166618D01*
X0187596Y0166618D01*
X0187145Y0166167D01*
X0188496Y0164816D02*
X0189847Y0164816D01*
X0189847Y0166618D01*
X0189847Y0162770D02*
X0187145Y0162770D01*
X0187145Y0161870D02*
X0187145Y0163671D01*
X0188947Y0161870D02*
X0189847Y0162770D01*
X0189397Y0160725D02*
X0188496Y0160725D01*
X0188046Y0160274D01*
X0188046Y0158923D01*
X0187145Y0158923D02*
X0189847Y0158923D01*
X0189847Y0160274D01*
X0189397Y0160725D01*
X0189847Y0157778D02*
X0189847Y0156877D01*
X0189847Y0157328D02*
X0187596Y0157328D01*
X0187145Y0156877D01*
X0187145Y0156427D01*
X0187596Y0155977D01*
X0212145Y0156427D02*
X0212145Y0156877D01*
X0212596Y0157328D01*
X0214847Y0157328D01*
X0214847Y0157778D02*
X0214847Y0156877D01*
X0214847Y0158923D02*
X0214847Y0160274D01*
X0214397Y0160725D01*
X0213496Y0160725D01*
X0213046Y0160274D01*
X0213046Y0158923D01*
X0212145Y0158923D02*
X0214847Y0158923D01*
X0212145Y0156427D02*
X0212596Y0155977D01*
X0212145Y0161870D02*
X0212145Y0163671D01*
X0212145Y0162770D02*
X0214847Y0162770D01*
X0213947Y0161870D01*
X0213496Y0164816D02*
X0213496Y0166618D01*
X0212145Y0166167D02*
X0214847Y0166167D01*
X0213496Y0164816D01*
X0215096Y0122868D02*
X0214645Y0122417D01*
X0214645Y0121517D01*
X0215096Y0121066D01*
X0214645Y0119921D02*
X0214645Y0118120D01*
X0214645Y0119020D02*
X0217347Y0119020D01*
X0216447Y0118120D01*
X0216897Y0116975D02*
X0215996Y0116975D01*
X0215546Y0116524D01*
X0215546Y0115173D01*
X0214645Y0115173D02*
X0217347Y0115173D01*
X0217347Y0116524D01*
X0216897Y0116975D01*
X0217347Y0114028D02*
X0217347Y0113127D01*
X0217347Y0113578D02*
X0215096Y0113578D01*
X0214645Y0113127D01*
X0214645Y0112677D01*
X0215096Y0112227D01*
X0216897Y0121066D02*
X0217347Y0121517D01*
X0217347Y0122417D01*
X0216897Y0122868D01*
X0216447Y0122868D01*
X0215996Y0122417D01*
X0215546Y0122868D01*
X0215096Y0122868D01*
X0215996Y0122417D02*
X0215996Y0121967D01*
X0202595Y0115763D02*
X0202595Y0112763D01*
X0202595Y0115763D02*
X0199095Y0115763D01*
X0197595Y0110763D02*
X0197595Y0109263D01*
X0199095Y0104263D02*
X0202595Y0104263D01*
X0202595Y0107263D01*
X0205895Y0099118D02*
X0205895Y0097316D01*
X0207697Y0099118D01*
X0208147Y0099118D01*
X0208597Y0098667D01*
X0208597Y0097767D01*
X0208147Y0097316D01*
X0208597Y0095270D02*
X0205895Y0095270D01*
X0205895Y0094370D02*
X0205895Y0096171D01*
X0207697Y0094370D02*
X0208597Y0095270D01*
X0208147Y0093225D02*
X0207246Y0093225D01*
X0206796Y0092774D01*
X0206796Y0091423D01*
X0205895Y0091423D02*
X0208597Y0091423D01*
X0208597Y0092774D01*
X0208147Y0093225D01*
X0208597Y0090278D02*
X0208597Y0089377D01*
X0208597Y0089828D02*
X0206346Y0089828D01*
X0205895Y0089377D01*
X0205895Y0088927D01*
X0206346Y0088477D01*
X0212145Y0082868D02*
X0212145Y0081066D01*
X0212145Y0081967D02*
X0214847Y0081967D01*
X0213947Y0081066D01*
X0212145Y0079921D02*
X0212145Y0078120D01*
X0212145Y0079020D02*
X0214847Y0079020D01*
X0213947Y0078120D01*
X0214397Y0076975D02*
X0213496Y0076975D01*
X0213046Y0076524D01*
X0213046Y0075173D01*
X0212145Y0075173D02*
X0214847Y0075173D01*
X0214847Y0076524D01*
X0214397Y0076975D01*
X0214847Y0074028D02*
X0214847Y0073127D01*
X0214847Y0073578D02*
X0212596Y0073578D01*
X0212145Y0073127D01*
X0212145Y0072677D01*
X0212596Y0072227D01*
X0209397Y0031618D02*
X0207596Y0029816D01*
X0207145Y0030267D01*
X0207145Y0031167D01*
X0207596Y0031618D01*
X0209397Y0031618D01*
X0209847Y0031167D01*
X0209847Y0030267D01*
X0209397Y0029816D01*
X0207596Y0029816D01*
X0207145Y0028671D02*
X0207145Y0026870D01*
X0207145Y0027770D02*
X0209847Y0027770D01*
X0208947Y0026870D01*
X0209397Y0025725D02*
X0208496Y0025725D01*
X0208046Y0025274D01*
X0208046Y0023923D01*
X0207145Y0023923D02*
X0209847Y0023923D01*
X0209847Y0025274D01*
X0209397Y0025725D01*
X0209847Y0022778D02*
X0209847Y0021877D01*
X0209847Y0022328D02*
X0207596Y0022328D01*
X0207145Y0021877D01*
X0207145Y0021427D01*
X0207596Y0020977D01*
X0181095Y0021963D02*
X0180645Y0021513D01*
X0180194Y0021513D01*
X0179744Y0021963D01*
X0179744Y0024215D01*
X0180194Y0024215D02*
X0179294Y0024215D01*
X0178149Y0024215D02*
X0176797Y0024215D01*
X0176347Y0023765D01*
X0176347Y0022864D01*
X0176797Y0022414D01*
X0178149Y0022414D01*
X0178149Y0021513D02*
X0178149Y0024215D01*
X0175202Y0023765D02*
X0175202Y0023314D01*
X0174752Y0022864D01*
X0173401Y0022864D01*
X0173401Y0021963D02*
X0173401Y0023765D01*
X0173851Y0024215D01*
X0174752Y0024215D01*
X0175202Y0023765D01*
X0175202Y0021963D02*
X0174752Y0021513D01*
X0173851Y0021513D01*
X0173401Y0021963D01*
X0138595Y0025713D02*
X0138145Y0025263D01*
X0137694Y0025263D01*
X0137244Y0025713D01*
X0137244Y0027965D01*
X0137694Y0027965D02*
X0136794Y0027965D01*
X0135649Y0027965D02*
X0134297Y0027965D01*
X0133847Y0027515D01*
X0133847Y0026614D01*
X0134297Y0026164D01*
X0135649Y0026164D01*
X0135649Y0025263D02*
X0135649Y0027965D01*
X0132702Y0027515D02*
X0132702Y0027064D01*
X0132252Y0026614D01*
X0131351Y0026614D01*
X0130901Y0026164D01*
X0130901Y0025713D01*
X0131351Y0025263D01*
X0132252Y0025263D01*
X0132702Y0025713D01*
X0132702Y0026164D01*
X0132252Y0026614D01*
X0131351Y0026614D02*
X0130901Y0027064D01*
X0130901Y0027515D01*
X0131351Y0027965D01*
X0132252Y0027965D01*
X0132702Y0027515D01*
X0103595Y0021963D02*
X0103145Y0021513D01*
X0102694Y0021513D01*
X0102244Y0021963D01*
X0102244Y0024215D01*
X0102694Y0024215D02*
X0101794Y0024215D01*
X0100649Y0024215D02*
X0100649Y0021513D01*
X0100649Y0022414D02*
X0099297Y0022414D01*
X0098847Y0022864D01*
X0098847Y0023765D01*
X0099297Y0024215D01*
X0100649Y0024215D01*
X0097702Y0024215D02*
X0095901Y0024215D01*
X0095901Y0023765D01*
X0097702Y0021963D01*
X0097702Y0021513D01*
X0091747Y0036869D02*
X0089945Y0036869D01*
X0091296Y0036869D02*
X0091296Y0038671D01*
X0091747Y0038671D02*
X0089945Y0038671D01*
X0089945Y0039816D02*
X0089945Y0041617D01*
X0089945Y0042762D02*
X0092647Y0042762D01*
X0091747Y0043663D01*
X0092647Y0044564D01*
X0089945Y0044564D01*
X0090396Y0045709D02*
X0089945Y0046159D01*
X0089945Y0047060D01*
X0090396Y0047510D01*
X0092197Y0047510D01*
X0092647Y0047060D01*
X0092647Y0046159D01*
X0092197Y0045709D01*
X0090396Y0045709D01*
X0087847Y0046200D02*
X0087847Y0047551D01*
X0087397Y0048001D01*
X0086496Y0048001D01*
X0086046Y0047551D01*
X0086046Y0046200D01*
X0086046Y0047101D02*
X0085145Y0048001D01*
X0085596Y0049146D02*
X0086496Y0049146D01*
X0086947Y0049597D01*
X0086947Y0050498D01*
X0086496Y0050948D01*
X0086046Y0050948D01*
X0086046Y0049146D01*
X0085596Y0049146D02*
X0085145Y0049597D01*
X0085145Y0050498D01*
X0086947Y0052093D02*
X0085145Y0052994D01*
X0086947Y0053895D01*
X0085596Y0055039D02*
X0085596Y0055490D01*
X0085145Y0055490D01*
X0085145Y0055039D01*
X0085596Y0055039D01*
X0083498Y0052748D02*
X0083047Y0052748D01*
X0082147Y0052748D02*
X0079895Y0052748D01*
X0079444Y0052298D01*
X0079444Y0051847D01*
X0080796Y0053812D02*
X0080345Y0054262D01*
X0080345Y0055163D01*
X0080796Y0055613D01*
X0081696Y0055613D01*
X0082147Y0055163D01*
X0082147Y0054262D01*
X0081696Y0053812D01*
X0080796Y0053812D01*
X0080345Y0056758D02*
X0080345Y0058109D01*
X0080796Y0058560D01*
X0081246Y0058109D01*
X0081246Y0057209D01*
X0081696Y0056758D01*
X0082147Y0057209D01*
X0082147Y0058560D01*
X0081696Y0059705D02*
X0082147Y0060155D01*
X0082147Y0061056D01*
X0081696Y0061506D01*
X0081246Y0061506D01*
X0081246Y0059705D01*
X0080796Y0059705D02*
X0081696Y0059705D01*
X0080796Y0059705D02*
X0080345Y0060155D01*
X0080345Y0061056D01*
X0080345Y0062651D02*
X0082147Y0062651D01*
X0081246Y0062651D02*
X0082147Y0063552D01*
X0082147Y0064002D01*
X0082147Y0065557D02*
X0082147Y0066458D01*
X0081696Y0066908D01*
X0080345Y0066908D01*
X0080345Y0065557D01*
X0080796Y0065107D01*
X0081246Y0065557D01*
X0081246Y0066908D01*
X0079444Y0068053D02*
X0079444Y0068504D01*
X0079895Y0068954D01*
X0082147Y0068954D01*
X0083047Y0068954D02*
X0083498Y0068954D01*
X0085596Y0065681D02*
X0085145Y0065230D01*
X0085145Y0064329D01*
X0085596Y0063879D01*
X0087397Y0065681D01*
X0085596Y0065681D01*
X0087397Y0065681D02*
X0087847Y0065230D01*
X0087847Y0064329D01*
X0087397Y0063879D01*
X0085596Y0063879D01*
X0085596Y0062856D02*
X0085145Y0062856D01*
X0085145Y0062406D01*
X0085596Y0062406D01*
X0085596Y0062856D01*
X0085145Y0061261D02*
X0085145Y0059459D01*
X0085145Y0060360D02*
X0087847Y0060360D01*
X0086947Y0059459D01*
X0089945Y0059296D02*
X0091747Y0059296D01*
X0092647Y0058396D01*
X0091747Y0057495D01*
X0089945Y0057495D01*
X0091296Y0057495D02*
X0091296Y0059296D01*
X0092647Y0060441D02*
X0089945Y0060441D01*
X0089945Y0062243D01*
X0089945Y0063388D02*
X0089945Y0065190D01*
X0089945Y0066334D02*
X0092647Y0066334D01*
X0091747Y0067235D01*
X0092647Y0068136D01*
X0089945Y0068136D01*
X0089945Y0069281D02*
X0089945Y0070182D01*
X0089945Y0069731D02*
X0092647Y0069731D01*
X0092647Y0069281D02*
X0092647Y0070182D01*
X0092647Y0071245D02*
X0089945Y0073047D01*
X0092647Y0073047D01*
X0092647Y0074192D02*
X0092647Y0075093D01*
X0092647Y0074642D02*
X0089945Y0074642D01*
X0089945Y0074192D02*
X0089945Y0075093D01*
X0089945Y0071245D02*
X0092647Y0071245D01*
X0092647Y0063388D02*
X0089945Y0063388D01*
X0091296Y0056350D02*
X0091296Y0054548D01*
X0092647Y0055900D01*
X0089945Y0055900D01*
X0089945Y0052503D02*
X0092647Y0052503D01*
X0092647Y0053403D02*
X0092647Y0051602D01*
X0092197Y0050457D02*
X0092647Y0050007D01*
X0092647Y0049106D01*
X0092197Y0048655D01*
X0091747Y0048655D01*
X0091296Y0049106D01*
X0091296Y0050007D01*
X0090846Y0050457D01*
X0090396Y0050457D01*
X0089945Y0050007D01*
X0089945Y0049106D01*
X0090396Y0048655D01*
X0087847Y0046200D02*
X0085145Y0046200D01*
X0083047Y0044359D02*
X0082597Y0044809D01*
X0082147Y0044809D01*
X0081696Y0044359D01*
X0081696Y0043008D01*
X0080345Y0043008D02*
X0080345Y0044359D01*
X0080796Y0044809D01*
X0081246Y0044809D01*
X0081696Y0044359D01*
X0083047Y0044359D02*
X0083047Y0043008D01*
X0080345Y0043008D01*
X0080796Y0045954D02*
X0080345Y0046405D01*
X0080345Y0047756D01*
X0079895Y0047756D02*
X0079444Y0047306D01*
X0079444Y0046855D01*
X0079895Y0047756D02*
X0082147Y0047756D01*
X0082147Y0045954D02*
X0080796Y0045954D01*
X0089945Y0039816D02*
X0092647Y0039816D01*
X0091747Y0038671D02*
X0092647Y0037770D01*
X0091747Y0036869D01*
X0092046Y0101513D02*
X0091595Y0101963D01*
X0091595Y0102414D01*
X0092046Y0102864D01*
X0094297Y0102864D01*
X0094297Y0102414D02*
X0094297Y0103314D01*
X0094297Y0104459D02*
X0094297Y0105810D01*
X0093847Y0106261D01*
X0092946Y0106261D01*
X0092496Y0105810D01*
X0092496Y0104459D01*
X0091595Y0104459D02*
X0094297Y0104459D01*
X0092946Y0107406D02*
X0092046Y0107406D01*
X0091595Y0107856D01*
X0091595Y0108757D01*
X0092046Y0109207D01*
X0092496Y0109207D01*
X0092946Y0108757D01*
X0092946Y0107406D01*
X0093847Y0108307D01*
X0094297Y0109207D01*
X0092046Y0125263D02*
X0091595Y0125713D01*
X0091595Y0126164D01*
X0092046Y0126614D01*
X0094297Y0126614D01*
X0094297Y0126164D02*
X0094297Y0127064D01*
X0094297Y0128209D02*
X0094297Y0129560D01*
X0093847Y0130011D01*
X0092946Y0130011D01*
X0092496Y0129560D01*
X0092496Y0128209D01*
X0091595Y0128209D02*
X0094297Y0128209D01*
X0094297Y0131156D02*
X0092946Y0131156D01*
X0093397Y0132057D01*
X0093397Y0132507D01*
X0092946Y0132957D01*
X0092046Y0132957D01*
X0091595Y0132507D01*
X0091595Y0131606D01*
X0092046Y0131156D01*
X0094297Y0131156D02*
X0094297Y0132957D01*
X0093296Y0159013D02*
X0092845Y0159463D01*
X0092845Y0159914D01*
X0093296Y0160364D01*
X0095547Y0160364D01*
X0095547Y0159914D02*
X0095547Y0160814D01*
X0095547Y0161959D02*
X0095547Y0163310D01*
X0095097Y0163761D01*
X0094196Y0163761D01*
X0093746Y0163310D01*
X0093746Y0161959D01*
X0092845Y0161959D02*
X0095547Y0161959D01*
X0094196Y0164906D02*
X0094196Y0166707D01*
X0092845Y0166257D02*
X0095547Y0166257D01*
X0094196Y0164906D01*
D13*
X0097733Y0165082D02*
X0097733Y0167444D01*
X0102457Y0167444D02*
X0102457Y0165082D01*
X0102411Y0175313D02*
X0101844Y0175880D01*
X0101844Y0178716D01*
X0102411Y0178716D02*
X0101277Y0178716D01*
X0099862Y0178716D02*
X0099862Y0175313D01*
X0099862Y0176447D02*
X0098161Y0176447D01*
X0097593Y0177014D01*
X0097593Y0178149D01*
X0098161Y0178716D01*
X0099862Y0178716D01*
X0096179Y0178149D02*
X0095612Y0178716D01*
X0094477Y0178716D01*
X0093910Y0178149D01*
X0093910Y0177581D01*
X0096179Y0175313D01*
X0093910Y0175313D01*
X0102411Y0175313D02*
X0102978Y0175313D01*
X0103545Y0175880D01*
X0094957Y0153694D02*
X0094957Y0151332D01*
X0090233Y0151332D02*
X0090233Y0153694D01*
X0090233Y0142444D02*
X0090233Y0140082D01*
X0094957Y0140082D02*
X0094957Y0142444D01*
X0125233Y0106194D02*
X0125233Y0103832D01*
X0129957Y0103832D02*
X0129957Y0106194D01*
X0128776Y0092375D02*
X0126414Y0092375D01*
X0126414Y0087651D02*
X0128776Y0087651D01*
X0148914Y0087651D02*
X0151276Y0087651D01*
X0151276Y0092375D02*
X0148914Y0092375D01*
X0165233Y0083694D02*
X0165233Y0081332D01*
X0169957Y0081332D02*
X0169957Y0083694D01*
X0190233Y0083694D02*
X0190233Y0081332D01*
X0194957Y0081332D02*
X0194957Y0083694D01*
X0202733Y0083694D02*
X0202733Y0081332D01*
X0207457Y0081332D02*
X0207457Y0083694D01*
X0189957Y0108832D02*
X0189957Y0111194D01*
X0185233Y0111194D02*
X0185233Y0108832D01*
X0198914Y0122651D02*
X0201276Y0122651D01*
X0201276Y0127375D02*
X0198914Y0127375D01*
X0152978Y0175313D02*
X0152411Y0175313D01*
X0151844Y0175880D01*
X0151844Y0178716D01*
X0152411Y0178716D02*
X0151277Y0178716D01*
X0149862Y0178716D02*
X0149862Y0175313D01*
X0149862Y0176447D02*
X0148161Y0176447D01*
X0147593Y0177014D01*
X0147593Y0178149D01*
X0148161Y0178716D01*
X0149862Y0178716D01*
X0146179Y0177581D02*
X0145045Y0178716D01*
X0145045Y0175313D01*
X0146179Y0175313D02*
X0143910Y0175313D01*
X0152978Y0175313D02*
X0153545Y0175880D01*
X0210233Y0041194D02*
X0210233Y0038832D01*
X0214957Y0038832D02*
X0214957Y0041194D01*
X0203776Y0017375D02*
X0201414Y0017375D01*
X0201414Y0012651D02*
X0203776Y0012651D01*
X0168776Y0019526D02*
X0166414Y0019526D01*
X0166414Y0024250D02*
X0168776Y0024250D01*
X0148776Y0024875D02*
X0146414Y0024875D01*
X0146414Y0020151D02*
X0148776Y0020151D01*
X0121276Y0022651D02*
X0118914Y0022651D01*
X0118914Y0027375D02*
X0121276Y0027375D01*
D14*
X0196866Y0100213D02*
X0198734Y0100213D01*
X0196866Y0102081D01*
X0196866Y0102548D01*
X0197333Y0103015D01*
X0198267Y0103015D01*
X0198734Y0102548D01*
X0198267Y0103015D01*
X0197333Y0103015D01*
X0196866Y0102548D01*
X0196866Y0102081D01*
X0198734Y0100213D01*
X0196866Y0100213D01*
X0199813Y0100680D02*
X0200280Y0100213D01*
X0201214Y0100213D01*
X0201681Y0100680D01*
X0201681Y0102548D01*
X0201214Y0103015D01*
X0200280Y0103015D01*
X0199813Y0102548D01*
X0200280Y0103015D01*
X0201214Y0103015D01*
X0201681Y0102548D01*
X0201681Y0100680D01*
X0201214Y0100213D01*
X0200280Y0100213D01*
X0199813Y0100680D01*
X0202711Y0100213D02*
X0203645Y0100213D01*
X0202711Y0100213D01*
X0203178Y0100213D02*
X0203178Y0103015D01*
X0203178Y0100213D01*
X0203645Y0103015D02*
X0202711Y0103015D01*
X0203645Y0103015D01*
M02*
