%
M48
M72
T01C0.02362
T02C0.02756
T03C0.03200
T04C0.03937
T05C0.04000
T06C0.11024
T07C0.12598
%
T01
X110095Y22513
X123845Y35013
X128845Y31263
X133845Y35013
X138845Y45013
X147595Y45013
X152595Y40013
X167595Y55013
X171345Y60013
X160095Y83763
X150095Y83763
X158845Y93763
X135095Y105013
X127595Y115013
X145095Y121263
X148845Y133763
X147595Y145013
X155095Y152513
X165095Y152513
X167595Y145013
X187595Y125013
X187595Y120013
X202595Y118763
X212595Y117513
X212595Y130013
X212595Y147513
X226345Y176263
X195095Y178763
X175095Y168763
X167595Y175013
X137595Y175013
X111345Y151263
X97595Y146263
X98845Y137513
X98845Y115013
X125095Y140013
X92595Y167513
X167595Y121263
X197595Y97513
X190095Y92513
X187595Y85013
X212595Y92513
X215095Y67513
X210095Y55013
X202595Y50013
X203845Y27513
X212595Y21263
X187595Y22513
X171345Y27513
X157595Y22513
X135095Y22513
X133845Y55013
X123845Y65013
X128845Y75013
T02
X198845Y15013
X208845Y15013
X205095Y177513
X205095Y187513
X127595Y182513
X117595Y182513
T03
X175095Y182513
X182595Y187513
X182595Y177513
T04
X177595Y145013
X177595Y135013
X177595Y125013
X177595Y115013
X167595Y110013
X177595Y105013
X167595Y100013
X177595Y95013
X177595Y85013
X177595Y75013
X177595Y65013
X187595Y65013
X197595Y65013
X197595Y55013
X187595Y55013
X177595Y55013
X177595Y45013
X187595Y45013
X197595Y45013
X197595Y35013
X187595Y35013
X177595Y35013
X167595Y35013
X157595Y35013
X147595Y35013
X117595Y35013
X117595Y45013
X117595Y55013
X117595Y65013
X117595Y75013
X117595Y85013
X117595Y95013
X117595Y105013
X117595Y115013
X117595Y125013
X117595Y135013
X117595Y145013
T05
X120095Y165013
X110095Y165013
X130095Y165013
X140095Y165013
X140095Y184513
X150095Y185513
X160095Y184513
X198095Y167513
X197095Y157513
X198095Y147513
X197095Y137513
X222095Y137513
X222095Y127513
X223095Y117513
X222095Y107513
X222595Y98013
X222595Y87013
X222095Y77513
X223095Y67513
X222095Y57513
X222095Y47513
X223095Y37513
X222095Y27513
X187595Y14513
X177595Y15513
X167595Y14513
X157595Y15513
X145095Y15513
X135095Y14513
X125095Y15513
X115095Y15513
X105095Y14513
X95095Y15513
X85595Y97513
X84595Y107513
X85595Y117513
X85095Y127013
X85095Y138013
X85595Y147513
X84595Y157513
X85595Y167513
X94595Y185013
X105595Y185013
X222095Y157513
X223095Y167513
X223095Y147513
T06
X82595Y12513
T07
X225095Y12513
X225095Y187513
X82595Y187513
M30
