G75*
%MOIN*%
%OFA0B0*%
%FSLAX25Y25*%
%IPPOS*%
%LPD*%
%AMOC8*
5,1,8,0,0,1.08239X$1,22.5*
%
%ADD10C,0.00000*%
%ADD11C,0.00300*%
%ADD12C,0.00600*%
%ADD13C,0.00500*%
%ADD14C,0.00400*%
%ADD15C,0.00800*%
%ADD16C,0.00060*%
%ADD17C,0.00100*%
D10*
X0073845Y0002513D02*
X0073845Y0198723D01*
X0073845Y0198724D02*
X0073840Y0198731D01*
X0073837Y0198739D01*
X0073837Y0198747D01*
X0073840Y0198755D01*
X0073845Y0198762D01*
X0073845Y0198763D02*
X0232507Y0198763D01*
X0232507Y0198762D02*
X0232517Y0198761D01*
X0232527Y0198757D01*
X0232535Y0198751D01*
X0232541Y0198743D01*
X0232545Y0198733D01*
X0232546Y0198723D01*
X0232546Y0002513D01*
X0232595Y0002513D01*
X0232596Y0002513D02*
X0232589Y0002519D01*
X0232580Y0002524D01*
X0232571Y0002525D01*
X0232562Y0002524D01*
X0232553Y0002519D01*
X0232546Y0002513D01*
X0073845Y0002513D01*
X0077083Y0012513D02*
X0077085Y0012661D01*
X0077091Y0012809D01*
X0077101Y0012957D01*
X0077115Y0013104D01*
X0077133Y0013251D01*
X0077154Y0013397D01*
X0077180Y0013543D01*
X0077210Y0013688D01*
X0077243Y0013832D01*
X0077281Y0013975D01*
X0077322Y0014117D01*
X0077367Y0014258D01*
X0077415Y0014398D01*
X0077468Y0014537D01*
X0077524Y0014674D01*
X0077584Y0014809D01*
X0077647Y0014943D01*
X0077714Y0015075D01*
X0077785Y0015205D01*
X0077859Y0015333D01*
X0077936Y0015459D01*
X0078017Y0015583D01*
X0078101Y0015705D01*
X0078188Y0015824D01*
X0078279Y0015941D01*
X0078373Y0016056D01*
X0078469Y0016168D01*
X0078569Y0016278D01*
X0078671Y0016384D01*
X0078777Y0016488D01*
X0078885Y0016589D01*
X0078996Y0016687D01*
X0079109Y0016783D01*
X0079225Y0016875D01*
X0079343Y0016964D01*
X0079464Y0017049D01*
X0079587Y0017132D01*
X0079712Y0017211D01*
X0079839Y0017287D01*
X0079968Y0017359D01*
X0080099Y0017428D01*
X0080232Y0017493D01*
X0080367Y0017554D01*
X0080503Y0017612D01*
X0080640Y0017667D01*
X0080779Y0017717D01*
X0080920Y0017764D01*
X0081061Y0017807D01*
X0081204Y0017847D01*
X0081348Y0017882D01*
X0081492Y0017914D01*
X0081638Y0017941D01*
X0081784Y0017965D01*
X0081931Y0017985D01*
X0082078Y0018001D01*
X0082225Y0018013D01*
X0082373Y0018021D01*
X0082521Y0018025D01*
X0082669Y0018025D01*
X0082817Y0018021D01*
X0082965Y0018013D01*
X0083112Y0018001D01*
X0083259Y0017985D01*
X0083406Y0017965D01*
X0083552Y0017941D01*
X0083698Y0017914D01*
X0083842Y0017882D01*
X0083986Y0017847D01*
X0084129Y0017807D01*
X0084270Y0017764D01*
X0084411Y0017717D01*
X0084550Y0017667D01*
X0084687Y0017612D01*
X0084823Y0017554D01*
X0084958Y0017493D01*
X0085091Y0017428D01*
X0085222Y0017359D01*
X0085351Y0017287D01*
X0085478Y0017211D01*
X0085603Y0017132D01*
X0085726Y0017049D01*
X0085847Y0016964D01*
X0085965Y0016875D01*
X0086081Y0016783D01*
X0086194Y0016687D01*
X0086305Y0016589D01*
X0086413Y0016488D01*
X0086519Y0016384D01*
X0086621Y0016278D01*
X0086721Y0016168D01*
X0086817Y0016056D01*
X0086911Y0015941D01*
X0087002Y0015824D01*
X0087089Y0015705D01*
X0087173Y0015583D01*
X0087254Y0015459D01*
X0087331Y0015333D01*
X0087405Y0015205D01*
X0087476Y0015075D01*
X0087543Y0014943D01*
X0087606Y0014809D01*
X0087666Y0014674D01*
X0087722Y0014537D01*
X0087775Y0014398D01*
X0087823Y0014258D01*
X0087868Y0014117D01*
X0087909Y0013975D01*
X0087947Y0013832D01*
X0087980Y0013688D01*
X0088010Y0013543D01*
X0088036Y0013397D01*
X0088057Y0013251D01*
X0088075Y0013104D01*
X0088089Y0012957D01*
X0088099Y0012809D01*
X0088105Y0012661D01*
X0088107Y0012513D01*
X0088105Y0012365D01*
X0088099Y0012217D01*
X0088089Y0012069D01*
X0088075Y0011922D01*
X0088057Y0011775D01*
X0088036Y0011629D01*
X0088010Y0011483D01*
X0087980Y0011338D01*
X0087947Y0011194D01*
X0087909Y0011051D01*
X0087868Y0010909D01*
X0087823Y0010768D01*
X0087775Y0010628D01*
X0087722Y0010489D01*
X0087666Y0010352D01*
X0087606Y0010217D01*
X0087543Y0010083D01*
X0087476Y0009951D01*
X0087405Y0009821D01*
X0087331Y0009693D01*
X0087254Y0009567D01*
X0087173Y0009443D01*
X0087089Y0009321D01*
X0087002Y0009202D01*
X0086911Y0009085D01*
X0086817Y0008970D01*
X0086721Y0008858D01*
X0086621Y0008748D01*
X0086519Y0008642D01*
X0086413Y0008538D01*
X0086305Y0008437D01*
X0086194Y0008339D01*
X0086081Y0008243D01*
X0085965Y0008151D01*
X0085847Y0008062D01*
X0085726Y0007977D01*
X0085603Y0007894D01*
X0085478Y0007815D01*
X0085351Y0007739D01*
X0085222Y0007667D01*
X0085091Y0007598D01*
X0084958Y0007533D01*
X0084823Y0007472D01*
X0084687Y0007414D01*
X0084550Y0007359D01*
X0084411Y0007309D01*
X0084270Y0007262D01*
X0084129Y0007219D01*
X0083986Y0007179D01*
X0083842Y0007144D01*
X0083698Y0007112D01*
X0083552Y0007085D01*
X0083406Y0007061D01*
X0083259Y0007041D01*
X0083112Y0007025D01*
X0082965Y0007013D01*
X0082817Y0007005D01*
X0082669Y0007001D01*
X0082521Y0007001D01*
X0082373Y0007005D01*
X0082225Y0007013D01*
X0082078Y0007025D01*
X0081931Y0007041D01*
X0081784Y0007061D01*
X0081638Y0007085D01*
X0081492Y0007112D01*
X0081348Y0007144D01*
X0081204Y0007179D01*
X0081061Y0007219D01*
X0080920Y0007262D01*
X0080779Y0007309D01*
X0080640Y0007359D01*
X0080503Y0007414D01*
X0080367Y0007472D01*
X0080232Y0007533D01*
X0080099Y0007598D01*
X0079968Y0007667D01*
X0079839Y0007739D01*
X0079712Y0007815D01*
X0079587Y0007894D01*
X0079464Y0007977D01*
X0079343Y0008062D01*
X0079225Y0008151D01*
X0079109Y0008243D01*
X0078996Y0008339D01*
X0078885Y0008437D01*
X0078777Y0008538D01*
X0078671Y0008642D01*
X0078569Y0008748D01*
X0078469Y0008858D01*
X0078373Y0008970D01*
X0078279Y0009085D01*
X0078188Y0009202D01*
X0078101Y0009321D01*
X0078017Y0009443D01*
X0077936Y0009567D01*
X0077859Y0009693D01*
X0077785Y0009821D01*
X0077714Y0009951D01*
X0077647Y0010083D01*
X0077584Y0010217D01*
X0077524Y0010352D01*
X0077468Y0010489D01*
X0077415Y0010628D01*
X0077367Y0010768D01*
X0077322Y0010909D01*
X0077281Y0011051D01*
X0077243Y0011194D01*
X0077210Y0011338D01*
X0077180Y0011483D01*
X0077154Y0011629D01*
X0077133Y0011775D01*
X0077115Y0011922D01*
X0077101Y0012069D01*
X0077091Y0012217D01*
X0077085Y0012365D01*
X0077083Y0012513D01*
X0218796Y0012513D02*
X0218798Y0012671D01*
X0218804Y0012829D01*
X0218814Y0012987D01*
X0218828Y0013145D01*
X0218846Y0013302D01*
X0218867Y0013459D01*
X0218893Y0013615D01*
X0218923Y0013771D01*
X0218956Y0013926D01*
X0218994Y0014079D01*
X0219035Y0014232D01*
X0219080Y0014384D01*
X0219129Y0014535D01*
X0219182Y0014684D01*
X0219238Y0014832D01*
X0219298Y0014978D01*
X0219362Y0015123D01*
X0219430Y0015266D01*
X0219501Y0015408D01*
X0219575Y0015548D01*
X0219653Y0015685D01*
X0219735Y0015821D01*
X0219819Y0015955D01*
X0219908Y0016086D01*
X0219999Y0016215D01*
X0220094Y0016342D01*
X0220191Y0016467D01*
X0220292Y0016589D01*
X0220396Y0016708D01*
X0220503Y0016825D01*
X0220613Y0016939D01*
X0220726Y0017050D01*
X0220841Y0017159D01*
X0220959Y0017264D01*
X0221080Y0017366D01*
X0221203Y0017466D01*
X0221329Y0017562D01*
X0221457Y0017655D01*
X0221587Y0017745D01*
X0221720Y0017831D01*
X0221855Y0017915D01*
X0221991Y0017994D01*
X0222130Y0018071D01*
X0222271Y0018143D01*
X0222413Y0018213D01*
X0222557Y0018278D01*
X0222703Y0018340D01*
X0222850Y0018398D01*
X0222999Y0018453D01*
X0223149Y0018504D01*
X0223300Y0018551D01*
X0223452Y0018594D01*
X0223605Y0018633D01*
X0223760Y0018669D01*
X0223915Y0018700D01*
X0224071Y0018728D01*
X0224227Y0018752D01*
X0224384Y0018772D01*
X0224542Y0018788D01*
X0224699Y0018800D01*
X0224858Y0018808D01*
X0225016Y0018812D01*
X0225174Y0018812D01*
X0225332Y0018808D01*
X0225491Y0018800D01*
X0225648Y0018788D01*
X0225806Y0018772D01*
X0225963Y0018752D01*
X0226119Y0018728D01*
X0226275Y0018700D01*
X0226430Y0018669D01*
X0226585Y0018633D01*
X0226738Y0018594D01*
X0226890Y0018551D01*
X0227041Y0018504D01*
X0227191Y0018453D01*
X0227340Y0018398D01*
X0227487Y0018340D01*
X0227633Y0018278D01*
X0227777Y0018213D01*
X0227919Y0018143D01*
X0228060Y0018071D01*
X0228199Y0017994D01*
X0228335Y0017915D01*
X0228470Y0017831D01*
X0228603Y0017745D01*
X0228733Y0017655D01*
X0228861Y0017562D01*
X0228987Y0017466D01*
X0229110Y0017366D01*
X0229231Y0017264D01*
X0229349Y0017159D01*
X0229464Y0017050D01*
X0229577Y0016939D01*
X0229687Y0016825D01*
X0229794Y0016708D01*
X0229898Y0016589D01*
X0229999Y0016467D01*
X0230096Y0016342D01*
X0230191Y0016215D01*
X0230282Y0016086D01*
X0230371Y0015955D01*
X0230455Y0015821D01*
X0230537Y0015685D01*
X0230615Y0015548D01*
X0230689Y0015408D01*
X0230760Y0015266D01*
X0230828Y0015123D01*
X0230892Y0014978D01*
X0230952Y0014832D01*
X0231008Y0014684D01*
X0231061Y0014535D01*
X0231110Y0014384D01*
X0231155Y0014232D01*
X0231196Y0014079D01*
X0231234Y0013926D01*
X0231267Y0013771D01*
X0231297Y0013615D01*
X0231323Y0013459D01*
X0231344Y0013302D01*
X0231362Y0013145D01*
X0231376Y0012987D01*
X0231386Y0012829D01*
X0231392Y0012671D01*
X0231394Y0012513D01*
X0231392Y0012355D01*
X0231386Y0012197D01*
X0231376Y0012039D01*
X0231362Y0011881D01*
X0231344Y0011724D01*
X0231323Y0011567D01*
X0231297Y0011411D01*
X0231267Y0011255D01*
X0231234Y0011100D01*
X0231196Y0010947D01*
X0231155Y0010794D01*
X0231110Y0010642D01*
X0231061Y0010491D01*
X0231008Y0010342D01*
X0230952Y0010194D01*
X0230892Y0010048D01*
X0230828Y0009903D01*
X0230760Y0009760D01*
X0230689Y0009618D01*
X0230615Y0009478D01*
X0230537Y0009341D01*
X0230455Y0009205D01*
X0230371Y0009071D01*
X0230282Y0008940D01*
X0230191Y0008811D01*
X0230096Y0008684D01*
X0229999Y0008559D01*
X0229898Y0008437D01*
X0229794Y0008318D01*
X0229687Y0008201D01*
X0229577Y0008087D01*
X0229464Y0007976D01*
X0229349Y0007867D01*
X0229231Y0007762D01*
X0229110Y0007660D01*
X0228987Y0007560D01*
X0228861Y0007464D01*
X0228733Y0007371D01*
X0228603Y0007281D01*
X0228470Y0007195D01*
X0228335Y0007111D01*
X0228199Y0007032D01*
X0228060Y0006955D01*
X0227919Y0006883D01*
X0227777Y0006813D01*
X0227633Y0006748D01*
X0227487Y0006686D01*
X0227340Y0006628D01*
X0227191Y0006573D01*
X0227041Y0006522D01*
X0226890Y0006475D01*
X0226738Y0006432D01*
X0226585Y0006393D01*
X0226430Y0006357D01*
X0226275Y0006326D01*
X0226119Y0006298D01*
X0225963Y0006274D01*
X0225806Y0006254D01*
X0225648Y0006238D01*
X0225491Y0006226D01*
X0225332Y0006218D01*
X0225174Y0006214D01*
X0225016Y0006214D01*
X0224858Y0006218D01*
X0224699Y0006226D01*
X0224542Y0006238D01*
X0224384Y0006254D01*
X0224227Y0006274D01*
X0224071Y0006298D01*
X0223915Y0006326D01*
X0223760Y0006357D01*
X0223605Y0006393D01*
X0223452Y0006432D01*
X0223300Y0006475D01*
X0223149Y0006522D01*
X0222999Y0006573D01*
X0222850Y0006628D01*
X0222703Y0006686D01*
X0222557Y0006748D01*
X0222413Y0006813D01*
X0222271Y0006883D01*
X0222130Y0006955D01*
X0221991Y0007032D01*
X0221855Y0007111D01*
X0221720Y0007195D01*
X0221587Y0007281D01*
X0221457Y0007371D01*
X0221329Y0007464D01*
X0221203Y0007560D01*
X0221080Y0007660D01*
X0220959Y0007762D01*
X0220841Y0007867D01*
X0220726Y0007976D01*
X0220613Y0008087D01*
X0220503Y0008201D01*
X0220396Y0008318D01*
X0220292Y0008437D01*
X0220191Y0008559D01*
X0220094Y0008684D01*
X0219999Y0008811D01*
X0219908Y0008940D01*
X0219819Y0009071D01*
X0219735Y0009205D01*
X0219653Y0009341D01*
X0219575Y0009478D01*
X0219501Y0009618D01*
X0219430Y0009760D01*
X0219362Y0009903D01*
X0219298Y0010048D01*
X0219238Y0010194D01*
X0219182Y0010342D01*
X0219129Y0010491D01*
X0219080Y0010642D01*
X0219035Y0010794D01*
X0218994Y0010947D01*
X0218956Y0011100D01*
X0218923Y0011255D01*
X0218893Y0011411D01*
X0218867Y0011567D01*
X0218846Y0011724D01*
X0218828Y0011881D01*
X0218814Y0012039D01*
X0218804Y0012197D01*
X0218798Y0012355D01*
X0218796Y0012513D01*
X0218796Y0187513D02*
X0218798Y0187671D01*
X0218804Y0187829D01*
X0218814Y0187987D01*
X0218828Y0188145D01*
X0218846Y0188302D01*
X0218867Y0188459D01*
X0218893Y0188615D01*
X0218923Y0188771D01*
X0218956Y0188926D01*
X0218994Y0189079D01*
X0219035Y0189232D01*
X0219080Y0189384D01*
X0219129Y0189535D01*
X0219182Y0189684D01*
X0219238Y0189832D01*
X0219298Y0189978D01*
X0219362Y0190123D01*
X0219430Y0190266D01*
X0219501Y0190408D01*
X0219575Y0190548D01*
X0219653Y0190685D01*
X0219735Y0190821D01*
X0219819Y0190955D01*
X0219908Y0191086D01*
X0219999Y0191215D01*
X0220094Y0191342D01*
X0220191Y0191467D01*
X0220292Y0191589D01*
X0220396Y0191708D01*
X0220503Y0191825D01*
X0220613Y0191939D01*
X0220726Y0192050D01*
X0220841Y0192159D01*
X0220959Y0192264D01*
X0221080Y0192366D01*
X0221203Y0192466D01*
X0221329Y0192562D01*
X0221457Y0192655D01*
X0221587Y0192745D01*
X0221720Y0192831D01*
X0221855Y0192915D01*
X0221991Y0192994D01*
X0222130Y0193071D01*
X0222271Y0193143D01*
X0222413Y0193213D01*
X0222557Y0193278D01*
X0222703Y0193340D01*
X0222850Y0193398D01*
X0222999Y0193453D01*
X0223149Y0193504D01*
X0223300Y0193551D01*
X0223452Y0193594D01*
X0223605Y0193633D01*
X0223760Y0193669D01*
X0223915Y0193700D01*
X0224071Y0193728D01*
X0224227Y0193752D01*
X0224384Y0193772D01*
X0224542Y0193788D01*
X0224699Y0193800D01*
X0224858Y0193808D01*
X0225016Y0193812D01*
X0225174Y0193812D01*
X0225332Y0193808D01*
X0225491Y0193800D01*
X0225648Y0193788D01*
X0225806Y0193772D01*
X0225963Y0193752D01*
X0226119Y0193728D01*
X0226275Y0193700D01*
X0226430Y0193669D01*
X0226585Y0193633D01*
X0226738Y0193594D01*
X0226890Y0193551D01*
X0227041Y0193504D01*
X0227191Y0193453D01*
X0227340Y0193398D01*
X0227487Y0193340D01*
X0227633Y0193278D01*
X0227777Y0193213D01*
X0227919Y0193143D01*
X0228060Y0193071D01*
X0228199Y0192994D01*
X0228335Y0192915D01*
X0228470Y0192831D01*
X0228603Y0192745D01*
X0228733Y0192655D01*
X0228861Y0192562D01*
X0228987Y0192466D01*
X0229110Y0192366D01*
X0229231Y0192264D01*
X0229349Y0192159D01*
X0229464Y0192050D01*
X0229577Y0191939D01*
X0229687Y0191825D01*
X0229794Y0191708D01*
X0229898Y0191589D01*
X0229999Y0191467D01*
X0230096Y0191342D01*
X0230191Y0191215D01*
X0230282Y0191086D01*
X0230371Y0190955D01*
X0230455Y0190821D01*
X0230537Y0190685D01*
X0230615Y0190548D01*
X0230689Y0190408D01*
X0230760Y0190266D01*
X0230828Y0190123D01*
X0230892Y0189978D01*
X0230952Y0189832D01*
X0231008Y0189684D01*
X0231061Y0189535D01*
X0231110Y0189384D01*
X0231155Y0189232D01*
X0231196Y0189079D01*
X0231234Y0188926D01*
X0231267Y0188771D01*
X0231297Y0188615D01*
X0231323Y0188459D01*
X0231344Y0188302D01*
X0231362Y0188145D01*
X0231376Y0187987D01*
X0231386Y0187829D01*
X0231392Y0187671D01*
X0231394Y0187513D01*
X0231392Y0187355D01*
X0231386Y0187197D01*
X0231376Y0187039D01*
X0231362Y0186881D01*
X0231344Y0186724D01*
X0231323Y0186567D01*
X0231297Y0186411D01*
X0231267Y0186255D01*
X0231234Y0186100D01*
X0231196Y0185947D01*
X0231155Y0185794D01*
X0231110Y0185642D01*
X0231061Y0185491D01*
X0231008Y0185342D01*
X0230952Y0185194D01*
X0230892Y0185048D01*
X0230828Y0184903D01*
X0230760Y0184760D01*
X0230689Y0184618D01*
X0230615Y0184478D01*
X0230537Y0184341D01*
X0230455Y0184205D01*
X0230371Y0184071D01*
X0230282Y0183940D01*
X0230191Y0183811D01*
X0230096Y0183684D01*
X0229999Y0183559D01*
X0229898Y0183437D01*
X0229794Y0183318D01*
X0229687Y0183201D01*
X0229577Y0183087D01*
X0229464Y0182976D01*
X0229349Y0182867D01*
X0229231Y0182762D01*
X0229110Y0182660D01*
X0228987Y0182560D01*
X0228861Y0182464D01*
X0228733Y0182371D01*
X0228603Y0182281D01*
X0228470Y0182195D01*
X0228335Y0182111D01*
X0228199Y0182032D01*
X0228060Y0181955D01*
X0227919Y0181883D01*
X0227777Y0181813D01*
X0227633Y0181748D01*
X0227487Y0181686D01*
X0227340Y0181628D01*
X0227191Y0181573D01*
X0227041Y0181522D01*
X0226890Y0181475D01*
X0226738Y0181432D01*
X0226585Y0181393D01*
X0226430Y0181357D01*
X0226275Y0181326D01*
X0226119Y0181298D01*
X0225963Y0181274D01*
X0225806Y0181254D01*
X0225648Y0181238D01*
X0225491Y0181226D01*
X0225332Y0181218D01*
X0225174Y0181214D01*
X0225016Y0181214D01*
X0224858Y0181218D01*
X0224699Y0181226D01*
X0224542Y0181238D01*
X0224384Y0181254D01*
X0224227Y0181274D01*
X0224071Y0181298D01*
X0223915Y0181326D01*
X0223760Y0181357D01*
X0223605Y0181393D01*
X0223452Y0181432D01*
X0223300Y0181475D01*
X0223149Y0181522D01*
X0222999Y0181573D01*
X0222850Y0181628D01*
X0222703Y0181686D01*
X0222557Y0181748D01*
X0222413Y0181813D01*
X0222271Y0181883D01*
X0222130Y0181955D01*
X0221991Y0182032D01*
X0221855Y0182111D01*
X0221720Y0182195D01*
X0221587Y0182281D01*
X0221457Y0182371D01*
X0221329Y0182464D01*
X0221203Y0182560D01*
X0221080Y0182660D01*
X0220959Y0182762D01*
X0220841Y0182867D01*
X0220726Y0182976D01*
X0220613Y0183087D01*
X0220503Y0183201D01*
X0220396Y0183318D01*
X0220292Y0183437D01*
X0220191Y0183559D01*
X0220094Y0183684D01*
X0219999Y0183811D01*
X0219908Y0183940D01*
X0219819Y0184071D01*
X0219735Y0184205D01*
X0219653Y0184341D01*
X0219575Y0184478D01*
X0219501Y0184618D01*
X0219430Y0184760D01*
X0219362Y0184903D01*
X0219298Y0185048D01*
X0219238Y0185194D01*
X0219182Y0185342D01*
X0219129Y0185491D01*
X0219080Y0185642D01*
X0219035Y0185794D01*
X0218994Y0185947D01*
X0218956Y0186100D01*
X0218923Y0186255D01*
X0218893Y0186411D01*
X0218867Y0186567D01*
X0218846Y0186724D01*
X0218828Y0186881D01*
X0218814Y0187039D01*
X0218804Y0187197D01*
X0218798Y0187355D01*
X0218796Y0187513D01*
X0076296Y0187513D02*
X0076298Y0187671D01*
X0076304Y0187829D01*
X0076314Y0187987D01*
X0076328Y0188145D01*
X0076346Y0188302D01*
X0076367Y0188459D01*
X0076393Y0188615D01*
X0076423Y0188771D01*
X0076456Y0188926D01*
X0076494Y0189079D01*
X0076535Y0189232D01*
X0076580Y0189384D01*
X0076629Y0189535D01*
X0076682Y0189684D01*
X0076738Y0189832D01*
X0076798Y0189978D01*
X0076862Y0190123D01*
X0076930Y0190266D01*
X0077001Y0190408D01*
X0077075Y0190548D01*
X0077153Y0190685D01*
X0077235Y0190821D01*
X0077319Y0190955D01*
X0077408Y0191086D01*
X0077499Y0191215D01*
X0077594Y0191342D01*
X0077691Y0191467D01*
X0077792Y0191589D01*
X0077896Y0191708D01*
X0078003Y0191825D01*
X0078113Y0191939D01*
X0078226Y0192050D01*
X0078341Y0192159D01*
X0078459Y0192264D01*
X0078580Y0192366D01*
X0078703Y0192466D01*
X0078829Y0192562D01*
X0078957Y0192655D01*
X0079087Y0192745D01*
X0079220Y0192831D01*
X0079355Y0192915D01*
X0079491Y0192994D01*
X0079630Y0193071D01*
X0079771Y0193143D01*
X0079913Y0193213D01*
X0080057Y0193278D01*
X0080203Y0193340D01*
X0080350Y0193398D01*
X0080499Y0193453D01*
X0080649Y0193504D01*
X0080800Y0193551D01*
X0080952Y0193594D01*
X0081105Y0193633D01*
X0081260Y0193669D01*
X0081415Y0193700D01*
X0081571Y0193728D01*
X0081727Y0193752D01*
X0081884Y0193772D01*
X0082042Y0193788D01*
X0082199Y0193800D01*
X0082358Y0193808D01*
X0082516Y0193812D01*
X0082674Y0193812D01*
X0082832Y0193808D01*
X0082991Y0193800D01*
X0083148Y0193788D01*
X0083306Y0193772D01*
X0083463Y0193752D01*
X0083619Y0193728D01*
X0083775Y0193700D01*
X0083930Y0193669D01*
X0084085Y0193633D01*
X0084238Y0193594D01*
X0084390Y0193551D01*
X0084541Y0193504D01*
X0084691Y0193453D01*
X0084840Y0193398D01*
X0084987Y0193340D01*
X0085133Y0193278D01*
X0085277Y0193213D01*
X0085419Y0193143D01*
X0085560Y0193071D01*
X0085699Y0192994D01*
X0085835Y0192915D01*
X0085970Y0192831D01*
X0086103Y0192745D01*
X0086233Y0192655D01*
X0086361Y0192562D01*
X0086487Y0192466D01*
X0086610Y0192366D01*
X0086731Y0192264D01*
X0086849Y0192159D01*
X0086964Y0192050D01*
X0087077Y0191939D01*
X0087187Y0191825D01*
X0087294Y0191708D01*
X0087398Y0191589D01*
X0087499Y0191467D01*
X0087596Y0191342D01*
X0087691Y0191215D01*
X0087782Y0191086D01*
X0087871Y0190955D01*
X0087955Y0190821D01*
X0088037Y0190685D01*
X0088115Y0190548D01*
X0088189Y0190408D01*
X0088260Y0190266D01*
X0088328Y0190123D01*
X0088392Y0189978D01*
X0088452Y0189832D01*
X0088508Y0189684D01*
X0088561Y0189535D01*
X0088610Y0189384D01*
X0088655Y0189232D01*
X0088696Y0189079D01*
X0088734Y0188926D01*
X0088767Y0188771D01*
X0088797Y0188615D01*
X0088823Y0188459D01*
X0088844Y0188302D01*
X0088862Y0188145D01*
X0088876Y0187987D01*
X0088886Y0187829D01*
X0088892Y0187671D01*
X0088894Y0187513D01*
X0088892Y0187355D01*
X0088886Y0187197D01*
X0088876Y0187039D01*
X0088862Y0186881D01*
X0088844Y0186724D01*
X0088823Y0186567D01*
X0088797Y0186411D01*
X0088767Y0186255D01*
X0088734Y0186100D01*
X0088696Y0185947D01*
X0088655Y0185794D01*
X0088610Y0185642D01*
X0088561Y0185491D01*
X0088508Y0185342D01*
X0088452Y0185194D01*
X0088392Y0185048D01*
X0088328Y0184903D01*
X0088260Y0184760D01*
X0088189Y0184618D01*
X0088115Y0184478D01*
X0088037Y0184341D01*
X0087955Y0184205D01*
X0087871Y0184071D01*
X0087782Y0183940D01*
X0087691Y0183811D01*
X0087596Y0183684D01*
X0087499Y0183559D01*
X0087398Y0183437D01*
X0087294Y0183318D01*
X0087187Y0183201D01*
X0087077Y0183087D01*
X0086964Y0182976D01*
X0086849Y0182867D01*
X0086731Y0182762D01*
X0086610Y0182660D01*
X0086487Y0182560D01*
X0086361Y0182464D01*
X0086233Y0182371D01*
X0086103Y0182281D01*
X0085970Y0182195D01*
X0085835Y0182111D01*
X0085699Y0182032D01*
X0085560Y0181955D01*
X0085419Y0181883D01*
X0085277Y0181813D01*
X0085133Y0181748D01*
X0084987Y0181686D01*
X0084840Y0181628D01*
X0084691Y0181573D01*
X0084541Y0181522D01*
X0084390Y0181475D01*
X0084238Y0181432D01*
X0084085Y0181393D01*
X0083930Y0181357D01*
X0083775Y0181326D01*
X0083619Y0181298D01*
X0083463Y0181274D01*
X0083306Y0181254D01*
X0083148Y0181238D01*
X0082991Y0181226D01*
X0082832Y0181218D01*
X0082674Y0181214D01*
X0082516Y0181214D01*
X0082358Y0181218D01*
X0082199Y0181226D01*
X0082042Y0181238D01*
X0081884Y0181254D01*
X0081727Y0181274D01*
X0081571Y0181298D01*
X0081415Y0181326D01*
X0081260Y0181357D01*
X0081105Y0181393D01*
X0080952Y0181432D01*
X0080800Y0181475D01*
X0080649Y0181522D01*
X0080499Y0181573D01*
X0080350Y0181628D01*
X0080203Y0181686D01*
X0080057Y0181748D01*
X0079913Y0181813D01*
X0079771Y0181883D01*
X0079630Y0181955D01*
X0079491Y0182032D01*
X0079355Y0182111D01*
X0079220Y0182195D01*
X0079087Y0182281D01*
X0078957Y0182371D01*
X0078829Y0182464D01*
X0078703Y0182560D01*
X0078580Y0182660D01*
X0078459Y0182762D01*
X0078341Y0182867D01*
X0078226Y0182976D01*
X0078113Y0183087D01*
X0078003Y0183201D01*
X0077896Y0183318D01*
X0077792Y0183437D01*
X0077691Y0183559D01*
X0077594Y0183684D01*
X0077499Y0183811D01*
X0077408Y0183940D01*
X0077319Y0184071D01*
X0077235Y0184205D01*
X0077153Y0184341D01*
X0077075Y0184478D01*
X0077001Y0184618D01*
X0076930Y0184760D01*
X0076862Y0184903D01*
X0076798Y0185048D01*
X0076738Y0185194D01*
X0076682Y0185342D01*
X0076629Y0185491D01*
X0076580Y0185642D01*
X0076535Y0185794D01*
X0076494Y0185947D01*
X0076456Y0186100D01*
X0076423Y0186255D01*
X0076393Y0186411D01*
X0076367Y0186567D01*
X0076346Y0186724D01*
X0076328Y0186881D01*
X0076314Y0187039D01*
X0076304Y0187197D01*
X0076298Y0187355D01*
X0076296Y0187513D01*
D11*
X0091495Y0191413D02*
X0092946Y0191413D01*
X0093430Y0191896D01*
X0093430Y0192380D01*
X0092946Y0192864D01*
X0091495Y0192864D01*
X0091495Y0194315D02*
X0092946Y0194315D01*
X0093430Y0193831D01*
X0093430Y0193348D01*
X0092946Y0192864D01*
X0094442Y0192864D02*
X0096377Y0192864D01*
X0096377Y0193348D02*
X0096377Y0191413D01*
X0096377Y0193348D02*
X0095409Y0194315D01*
X0094442Y0193348D01*
X0094442Y0191413D01*
X0091495Y0191413D02*
X0091495Y0194315D01*
X0097388Y0194315D02*
X0099323Y0194315D01*
X0098356Y0194315D02*
X0098356Y0191413D01*
X0100245Y0191896D02*
X0100729Y0191413D01*
X0101696Y0191413D01*
X0102180Y0191896D01*
X0102180Y0192864D01*
X0101213Y0192864D01*
X0102180Y0193831D02*
X0101696Y0194315D01*
X0100729Y0194315D01*
X0100245Y0193831D01*
X0100245Y0191896D01*
X0103192Y0191413D02*
X0103192Y0194315D01*
X0105127Y0191413D01*
X0105127Y0194315D01*
X0106138Y0194315D02*
X0106138Y0191413D01*
X0107589Y0191413D01*
X0108073Y0191896D01*
X0108073Y0193831D01*
X0107589Y0194315D01*
X0106138Y0194315D01*
X0119245Y0194280D02*
X0119862Y0193663D01*
X0121097Y0193663D01*
X0121714Y0194280D01*
X0121097Y0193663D01*
X0119862Y0193663D01*
X0119245Y0194280D01*
X0119245Y0196749D01*
X0119862Y0197366D01*
X0121097Y0197366D01*
X0121714Y0196749D01*
X0121097Y0197366D01*
X0119862Y0197366D01*
X0119245Y0196749D01*
X0119245Y0194280D01*
X0122928Y0193663D02*
X0125397Y0193663D01*
X0122928Y0193663D01*
X0124163Y0193663D02*
X0124163Y0197366D01*
X0122928Y0196132D01*
X0124163Y0197366D01*
X0124163Y0193663D01*
X0137045Y0194315D02*
X0137045Y0192864D01*
X0138013Y0193348D01*
X0138496Y0193348D01*
X0138980Y0192864D01*
X0138980Y0191896D01*
X0138496Y0191413D01*
X0137529Y0191413D01*
X0137045Y0191896D01*
X0137045Y0194315D02*
X0138980Y0194315D01*
X0139992Y0194315D02*
X0139992Y0192380D01*
X0140959Y0191413D01*
X0141927Y0192380D01*
X0141927Y0194315D01*
X0144545Y0193831D02*
X0145029Y0194315D01*
X0145996Y0194315D01*
X0146480Y0193831D01*
X0146480Y0193348D01*
X0145996Y0192864D01*
X0146480Y0192380D01*
X0146480Y0191896D01*
X0145996Y0191413D01*
X0145029Y0191413D01*
X0144545Y0191896D01*
X0145513Y0192864D02*
X0145996Y0192864D01*
X0147975Y0191896D02*
X0147975Y0191413D01*
X0148459Y0191413D01*
X0148459Y0191896D01*
X0147975Y0191896D01*
X0148459Y0191413D02*
X0147492Y0190445D01*
X0149456Y0191896D02*
X0149940Y0191413D01*
X0150907Y0191413D01*
X0151391Y0191896D01*
X0151391Y0192380D01*
X0150907Y0192864D01*
X0150423Y0192864D01*
X0150907Y0192864D02*
X0151391Y0193348D01*
X0151391Y0193831D01*
X0150907Y0194315D01*
X0149940Y0194315D01*
X0149456Y0193831D01*
X0152403Y0194315D02*
X0152403Y0192380D01*
X0153370Y0191413D01*
X0154338Y0192380D01*
X0154338Y0194315D01*
X0155245Y0193831D02*
X0155245Y0191896D01*
X0155729Y0191413D01*
X0156696Y0191413D01*
X0157180Y0191896D01*
X0157180Y0192864D01*
X0156213Y0192864D01*
X0157180Y0193831D02*
X0156696Y0194315D01*
X0155729Y0194315D01*
X0155245Y0193831D01*
X0158192Y0194315D02*
X0158192Y0191413D01*
X0160127Y0191413D02*
X0158192Y0194315D01*
X0160127Y0194315D02*
X0160127Y0191413D01*
X0161138Y0191413D02*
X0162589Y0191413D01*
X0163073Y0191896D01*
X0163073Y0193831D01*
X0162589Y0194315D01*
X0161138Y0194315D01*
X0161138Y0191413D01*
X0146288Y0173065D02*
X0146288Y0171130D01*
X0145320Y0170163D01*
X0144353Y0171130D01*
X0144353Y0173065D01*
X0143341Y0172581D02*
X0143341Y0172098D01*
X0142857Y0171614D01*
X0143341Y0171130D01*
X0143341Y0170646D01*
X0142857Y0170163D01*
X0141890Y0170163D01*
X0141406Y0170646D01*
X0140409Y0170646D02*
X0139925Y0170646D01*
X0139925Y0170163D01*
X0140409Y0170163D01*
X0140409Y0170646D01*
X0140409Y0170163D02*
X0139442Y0169195D01*
X0138430Y0170646D02*
X0137946Y0170163D01*
X0136979Y0170163D01*
X0136495Y0170646D01*
X0137463Y0171614D02*
X0137946Y0171614D01*
X0138430Y0171130D01*
X0138430Y0170646D01*
X0137946Y0171614D02*
X0138430Y0172098D01*
X0138430Y0172581D01*
X0137946Y0173065D01*
X0136979Y0173065D01*
X0136495Y0172581D01*
X0133073Y0172581D02*
X0133073Y0170646D01*
X0132589Y0170163D01*
X0131138Y0170163D01*
X0131138Y0173065D01*
X0132589Y0173065D01*
X0133073Y0172581D01*
X0130127Y0173065D02*
X0130127Y0170163D01*
X0128192Y0173065D01*
X0128192Y0170163D01*
X0127180Y0170646D02*
X0127180Y0171614D01*
X0126213Y0171614D01*
X0127180Y0172581D02*
X0126696Y0173065D01*
X0125729Y0173065D01*
X0125245Y0172581D01*
X0125245Y0170646D01*
X0125729Y0170163D01*
X0126696Y0170163D01*
X0127180Y0170646D01*
X0124323Y0173065D02*
X0122388Y0173065D01*
X0123356Y0173065D02*
X0123356Y0170163D01*
X0121377Y0170163D02*
X0121377Y0172098D01*
X0120409Y0173065D01*
X0119442Y0172098D01*
X0119442Y0170163D01*
X0118430Y0170646D02*
X0117946Y0170163D01*
X0116495Y0170163D01*
X0116495Y0173065D01*
X0117946Y0173065D01*
X0118430Y0172581D01*
X0118430Y0172098D01*
X0117946Y0171614D01*
X0116495Y0171614D01*
X0117946Y0171614D02*
X0118430Y0171130D01*
X0118430Y0170646D01*
X0119442Y0171614D02*
X0121377Y0171614D01*
X0115037Y0171130D02*
X0115037Y0173065D01*
X0113103Y0173065D02*
X0113103Y0171130D01*
X0114070Y0170163D01*
X0115037Y0171130D01*
X0112091Y0171130D02*
X0112091Y0170646D01*
X0111607Y0170163D01*
X0110640Y0170163D01*
X0110156Y0170646D01*
X0109159Y0170646D02*
X0108675Y0170646D01*
X0108675Y0170163D01*
X0109159Y0170163D01*
X0109159Y0170646D01*
X0109159Y0170163D02*
X0108192Y0169195D01*
X0107180Y0170646D02*
X0106696Y0170163D01*
X0105729Y0170163D01*
X0105245Y0170646D01*
X0106213Y0171614D02*
X0106696Y0171614D01*
X0107180Y0171130D01*
X0107180Y0170646D01*
X0106696Y0171614D02*
X0107180Y0172098D01*
X0107180Y0172581D01*
X0106696Y0173065D01*
X0105729Y0173065D01*
X0105245Y0172581D01*
X0110156Y0172581D02*
X0110640Y0173065D01*
X0111607Y0173065D01*
X0112091Y0172581D01*
X0112091Y0172098D01*
X0111607Y0171614D01*
X0112091Y0171130D01*
X0111607Y0171614D02*
X0111123Y0171614D01*
X0080363Y0144805D02*
X0079395Y0145773D01*
X0079395Y0145289D01*
X0078911Y0145289D01*
X0078911Y0145773D01*
X0079395Y0145773D01*
X0078911Y0146770D02*
X0079395Y0147253D01*
X0079395Y0148221D01*
X0078911Y0148705D01*
X0078428Y0148705D01*
X0077944Y0148221D01*
X0077944Y0147737D01*
X0077944Y0148221D02*
X0077460Y0148705D01*
X0076976Y0148705D01*
X0076493Y0148221D01*
X0076493Y0147253D01*
X0076976Y0146770D01*
X0076976Y0143794D02*
X0077460Y0143794D01*
X0077944Y0143310D01*
X0078428Y0143794D01*
X0078911Y0143794D01*
X0079395Y0143310D01*
X0079395Y0142343D01*
X0078911Y0141859D01*
X0077944Y0142826D02*
X0077944Y0143310D01*
X0076976Y0143794D02*
X0076493Y0143310D01*
X0076493Y0142343D01*
X0076976Y0141859D01*
X0076976Y0140401D02*
X0076493Y0139917D01*
X0076493Y0138950D01*
X0076976Y0138466D01*
X0076976Y0137455D02*
X0076493Y0136971D01*
X0076493Y0135520D01*
X0079395Y0135520D01*
X0079395Y0136971D01*
X0078911Y0137455D01*
X0076976Y0137455D01*
X0078911Y0138466D02*
X0079395Y0138950D01*
X0079395Y0139917D01*
X0078911Y0140401D01*
X0078428Y0140401D01*
X0077944Y0139917D01*
X0077944Y0139434D01*
X0077944Y0139917D02*
X0077460Y0140401D01*
X0076976Y0140401D01*
X0076976Y0131651D02*
X0076493Y0131167D01*
X0076493Y0129716D01*
X0079395Y0129716D01*
X0079395Y0131167D01*
X0078911Y0131651D01*
X0076976Y0131651D01*
X0076493Y0128705D02*
X0079395Y0128705D01*
X0076493Y0126770D01*
X0079395Y0126770D01*
X0078911Y0125758D02*
X0077944Y0125758D01*
X0077944Y0124791D01*
X0078911Y0125758D02*
X0079395Y0125274D01*
X0079395Y0124307D01*
X0078911Y0123823D01*
X0076976Y0123823D01*
X0076493Y0124307D01*
X0076493Y0125274D01*
X0076976Y0125758D01*
X0076976Y0121651D02*
X0076493Y0121167D01*
X0076493Y0119716D01*
X0079395Y0119716D01*
X0079395Y0121167D01*
X0078911Y0121651D01*
X0076976Y0121651D01*
X0076493Y0118705D02*
X0079395Y0118705D01*
X0076493Y0116770D01*
X0079395Y0116770D01*
X0078911Y0115758D02*
X0077944Y0115758D01*
X0077944Y0114791D01*
X0078911Y0115758D02*
X0079395Y0115274D01*
X0079395Y0114307D01*
X0078911Y0113823D01*
X0076976Y0113823D01*
X0076493Y0114307D01*
X0076493Y0115274D01*
X0076976Y0115758D01*
X0077944Y0109151D02*
X0077944Y0107216D01*
X0076493Y0108667D01*
X0079395Y0108667D01*
X0078911Y0106205D02*
X0076976Y0106205D01*
X0076493Y0105721D01*
X0076493Y0104270D01*
X0079395Y0104270D01*
X0079395Y0105721D01*
X0078911Y0106205D01*
X0078428Y0101651D02*
X0076493Y0101651D01*
X0078428Y0101651D02*
X0079395Y0100684D01*
X0078428Y0099716D01*
X0076493Y0099716D01*
X0076976Y0098705D02*
X0076493Y0098221D01*
X0076493Y0097253D01*
X0076976Y0096770D01*
X0077944Y0097737D02*
X0077944Y0098221D01*
X0078428Y0098705D01*
X0078911Y0098705D01*
X0079395Y0098221D01*
X0079395Y0097253D01*
X0078911Y0096770D01*
X0078911Y0095773D02*
X0078911Y0095289D01*
X0079395Y0095289D01*
X0079395Y0095773D01*
X0078911Y0095773D01*
X0079395Y0095773D02*
X0080363Y0094805D01*
X0078911Y0093794D02*
X0079395Y0093310D01*
X0079395Y0092343D01*
X0078911Y0091859D01*
X0077944Y0092826D02*
X0077944Y0093310D01*
X0078428Y0093794D01*
X0078911Y0093794D01*
X0077944Y0093310D02*
X0077460Y0093794D01*
X0076976Y0093794D01*
X0076493Y0093310D01*
X0076493Y0092343D01*
X0076976Y0091859D01*
X0077944Y0098221D02*
X0077460Y0098705D01*
X0076976Y0098705D01*
X0076493Y0149716D02*
X0078428Y0149716D01*
X0079395Y0150684D01*
X0078428Y0151651D01*
X0076493Y0151651D01*
X0076493Y0154270D02*
X0076493Y0155721D01*
X0076976Y0156205D01*
X0078911Y0156205D01*
X0079395Y0155721D01*
X0079395Y0154270D01*
X0076493Y0154270D01*
X0076976Y0157216D02*
X0076493Y0157700D01*
X0076493Y0158667D01*
X0076976Y0159151D01*
X0077460Y0159151D01*
X0079395Y0157216D01*
X0079395Y0159151D01*
X0078911Y0162573D02*
X0079395Y0163057D01*
X0079395Y0164024D01*
X0078911Y0164508D01*
X0077944Y0164508D01*
X0077944Y0163541D01*
X0076976Y0164508D02*
X0076493Y0164024D01*
X0076493Y0163057D01*
X0076976Y0162573D01*
X0078911Y0162573D01*
X0079395Y0165520D02*
X0076493Y0165520D01*
X0079395Y0167455D01*
X0076493Y0167455D01*
X0076493Y0168466D02*
X0076493Y0169917D01*
X0076976Y0170401D01*
X0078911Y0170401D01*
X0079395Y0169917D01*
X0079395Y0168466D01*
X0076493Y0168466D01*
X0140420Y0107581D02*
X0140420Y0107098D01*
X0140904Y0106614D01*
X0141872Y0106614D01*
X0142355Y0106130D01*
X0142355Y0105646D01*
X0141872Y0105163D01*
X0140904Y0105163D01*
X0140420Y0105646D01*
X0140904Y0105163D01*
X0141872Y0105163D01*
X0142355Y0105646D01*
X0142355Y0106130D01*
X0141872Y0106614D01*
X0140904Y0106614D01*
X0140420Y0107098D01*
X0140420Y0107581D01*
X0140904Y0108065D01*
X0141872Y0108065D01*
X0142355Y0107581D01*
X0141872Y0108065D01*
X0140904Y0108065D01*
X0140420Y0107581D01*
X0143367Y0105646D02*
X0143851Y0105163D01*
X0144334Y0105163D01*
X0144818Y0105646D01*
X0144818Y0108065D01*
X0144818Y0105646D01*
X0144334Y0105163D01*
X0143851Y0105163D01*
X0143367Y0105646D01*
X0144334Y0108065D02*
X0145302Y0108065D01*
X0144334Y0108065D01*
X0146313Y0107098D02*
X0147281Y0108065D01*
X0147281Y0105163D01*
X0147281Y0108065D01*
X0146313Y0107098D01*
X0146313Y0105163D02*
X0148248Y0105163D01*
X0146313Y0105163D01*
X0150242Y0105296D02*
X0151476Y0106531D01*
X0150242Y0107765D01*
X0153945Y0107765D01*
X0153945Y0108980D02*
X0153945Y0111448D01*
X0153945Y0110214D02*
X0150242Y0110214D01*
X0151476Y0108980D01*
X0150242Y0105296D02*
X0153945Y0105296D01*
X0153362Y0067366D02*
X0152745Y0066749D01*
X0153362Y0067366D02*
X0154597Y0067366D01*
X0155214Y0066749D01*
X0155214Y0066132D01*
X0152745Y0063663D01*
X0155214Y0063663D01*
X0151531Y0063663D02*
X0151531Y0067366D01*
X0150296Y0066132D01*
X0149062Y0067366D01*
X0149062Y0063663D01*
X0147627Y0009315D02*
X0145692Y0009315D01*
X0145692Y0007864D01*
X0146659Y0008348D01*
X0147143Y0008348D01*
X0147627Y0007864D01*
X0147627Y0006896D01*
X0147143Y0006413D01*
X0146175Y0006413D01*
X0145692Y0006896D01*
X0144680Y0006896D02*
X0144680Y0008831D01*
X0144196Y0009315D01*
X0142745Y0009315D01*
X0142745Y0006413D01*
X0144196Y0006413D01*
X0144680Y0006896D01*
X0141288Y0007380D02*
X0141288Y0009315D01*
X0141288Y0007380D02*
X0140320Y0006413D01*
X0139353Y0007380D01*
X0139353Y0009315D01*
X0138341Y0008831D02*
X0138341Y0008348D01*
X0137857Y0007864D01*
X0138341Y0007380D01*
X0138341Y0006896D01*
X0137857Y0006413D01*
X0136890Y0006413D01*
X0136406Y0006896D01*
X0135409Y0006896D02*
X0134925Y0006896D01*
X0134925Y0006413D01*
X0135409Y0006413D01*
X0135409Y0006896D01*
X0135409Y0006413D02*
X0134442Y0005445D01*
X0133430Y0006896D02*
X0132946Y0006413D01*
X0131979Y0006413D01*
X0131495Y0006896D01*
X0132463Y0007864D02*
X0132946Y0007864D01*
X0133430Y0007380D01*
X0133430Y0006896D01*
X0132946Y0007864D02*
X0133430Y0008348D01*
X0133430Y0008831D01*
X0132946Y0009315D01*
X0131979Y0009315D01*
X0131495Y0008831D01*
X0128073Y0008831D02*
X0128073Y0006896D01*
X0127589Y0006413D01*
X0126138Y0006413D01*
X0126138Y0009315D01*
X0127589Y0009315D01*
X0128073Y0008831D01*
X0125127Y0009315D02*
X0125127Y0006413D01*
X0123192Y0009315D01*
X0123192Y0006413D01*
X0122180Y0006896D02*
X0122180Y0007864D01*
X0121213Y0007864D01*
X0122180Y0008831D02*
X0121696Y0009315D01*
X0120729Y0009315D01*
X0120245Y0008831D01*
X0120245Y0006896D01*
X0120729Y0006413D01*
X0121696Y0006413D01*
X0122180Y0006896D01*
X0117627Y0006896D02*
X0117627Y0007380D01*
X0117143Y0007864D01*
X0115692Y0007864D01*
X0115692Y0006896D01*
X0116175Y0006413D01*
X0117143Y0006413D01*
X0117627Y0006896D01*
X0116659Y0008831D02*
X0115692Y0007864D01*
X0116659Y0008831D02*
X0117627Y0009315D01*
X0114680Y0008831D02*
X0114680Y0006896D01*
X0114196Y0006413D01*
X0112745Y0006413D01*
X0112745Y0009315D01*
X0114196Y0009315D01*
X0114680Y0008831D01*
X0111287Y0009315D02*
X0111287Y0007380D01*
X0110320Y0006413D01*
X0109353Y0007380D01*
X0109353Y0009315D01*
X0108341Y0008831D02*
X0108341Y0008348D01*
X0107857Y0007864D01*
X0108341Y0007380D01*
X0108341Y0006896D01*
X0107857Y0006413D01*
X0106890Y0006413D01*
X0106406Y0006896D01*
X0105409Y0006896D02*
X0104925Y0006896D01*
X0104925Y0006413D01*
X0105409Y0006413D01*
X0105409Y0006896D01*
X0105409Y0006413D02*
X0104442Y0005445D01*
X0103430Y0006896D02*
X0102946Y0006413D01*
X0101979Y0006413D01*
X0101495Y0006896D01*
X0102463Y0007864D02*
X0102946Y0007864D01*
X0103430Y0007380D01*
X0103430Y0006896D01*
X0102946Y0007864D02*
X0103430Y0008348D01*
X0103430Y0008831D01*
X0102946Y0009315D01*
X0101979Y0009315D01*
X0101495Y0008831D01*
X0098073Y0008831D02*
X0098073Y0006896D01*
X0097589Y0006413D01*
X0096138Y0006413D01*
X0096138Y0009315D01*
X0097589Y0009315D01*
X0098073Y0008831D01*
X0095127Y0009315D02*
X0095127Y0006413D01*
X0093192Y0009315D01*
X0093192Y0006413D01*
X0092180Y0006896D02*
X0092180Y0007864D01*
X0091213Y0007864D01*
X0092180Y0008831D02*
X0091696Y0009315D01*
X0090729Y0009315D01*
X0090245Y0008831D01*
X0090245Y0006896D01*
X0090729Y0006413D01*
X0091696Y0006413D01*
X0092180Y0006896D01*
X0106406Y0008831D02*
X0106890Y0009315D01*
X0107857Y0009315D01*
X0108341Y0008831D01*
X0107857Y0007864D02*
X0107373Y0007864D01*
X0136406Y0008831D02*
X0136890Y0009315D01*
X0137857Y0009315D01*
X0138341Y0008831D01*
X0137857Y0007864D02*
X0137373Y0007864D01*
X0155245Y0007864D02*
X0157180Y0007864D01*
X0157180Y0008348D02*
X0157180Y0006413D01*
X0158192Y0006413D02*
X0160127Y0006413D01*
X0159159Y0006413D02*
X0159159Y0009315D01*
X0158192Y0008348D01*
X0157180Y0008348D02*
X0156213Y0009315D01*
X0155245Y0008348D01*
X0155245Y0006413D01*
X0165245Y0006413D02*
X0166696Y0006413D01*
X0167180Y0006896D01*
X0167180Y0008831D01*
X0166696Y0009315D01*
X0165245Y0009315D01*
X0165245Y0006413D01*
X0168192Y0006413D02*
X0168192Y0006896D01*
X0170127Y0008831D01*
X0170127Y0009315D01*
X0168192Y0009315D01*
X0172745Y0008831D02*
X0172745Y0006896D01*
X0173229Y0006413D01*
X0174196Y0006413D01*
X0174680Y0006896D01*
X0174680Y0007864D01*
X0173713Y0007864D01*
X0174680Y0008831D02*
X0174196Y0009315D01*
X0173229Y0009315D01*
X0172745Y0008831D01*
X0175692Y0009315D02*
X0177627Y0006413D01*
X0177627Y0009315D01*
X0178638Y0009315D02*
X0178638Y0006413D01*
X0180089Y0006413D01*
X0180573Y0006896D01*
X0180573Y0008831D01*
X0180089Y0009315D01*
X0178638Y0009315D01*
X0175692Y0009315D02*
X0175692Y0006413D01*
X0183995Y0006896D02*
X0184479Y0006413D01*
X0185446Y0006413D01*
X0185930Y0006896D01*
X0185930Y0007380D01*
X0185446Y0007864D01*
X0184963Y0007864D01*
X0185446Y0007864D02*
X0185930Y0008348D01*
X0185930Y0008831D01*
X0185446Y0009315D01*
X0184479Y0009315D01*
X0183995Y0008831D01*
X0187425Y0006896D02*
X0187425Y0006413D01*
X0187909Y0006413D01*
X0187909Y0006896D01*
X0187425Y0006896D01*
X0187909Y0006413D02*
X0186942Y0005445D01*
X0188906Y0006896D02*
X0189390Y0006413D01*
X0190357Y0006413D01*
X0190841Y0006896D01*
X0190841Y0007380D01*
X0190357Y0007864D01*
X0189873Y0007864D01*
X0190357Y0007864D02*
X0190841Y0008348D01*
X0190841Y0008831D01*
X0190357Y0009315D01*
X0189390Y0009315D01*
X0188906Y0008831D01*
X0191853Y0009315D02*
X0191853Y0007380D01*
X0192820Y0006413D01*
X0193787Y0007380D01*
X0193787Y0009315D01*
X0228293Y0024396D02*
X0228776Y0023913D01*
X0230711Y0023913D01*
X0231195Y0024396D01*
X0231195Y0025364D01*
X0230711Y0025848D01*
X0229744Y0025848D01*
X0229744Y0024880D01*
X0228776Y0025848D02*
X0228293Y0025364D01*
X0228293Y0024396D01*
X0228293Y0026859D02*
X0231195Y0028794D01*
X0228293Y0028794D01*
X0228293Y0029806D02*
X0228293Y0031257D01*
X0228776Y0031741D01*
X0230711Y0031741D01*
X0231195Y0031257D01*
X0231195Y0029806D01*
X0228293Y0029806D01*
X0228293Y0026859D02*
X0231195Y0026859D01*
X0231195Y0035163D02*
X0229260Y0035163D01*
X0228293Y0036130D01*
X0229260Y0037098D01*
X0231195Y0037098D01*
X0231195Y0038109D02*
X0230711Y0038109D01*
X0228776Y0040044D01*
X0228293Y0040044D01*
X0228293Y0038109D01*
X0229744Y0037098D02*
X0229744Y0035163D01*
X0230711Y0042663D02*
X0231195Y0043146D01*
X0231195Y0044114D01*
X0230711Y0044598D01*
X0230228Y0044598D01*
X0229744Y0044114D01*
X0229744Y0043630D01*
X0229744Y0044114D02*
X0229260Y0044598D01*
X0228776Y0044598D01*
X0228293Y0044114D01*
X0228293Y0043146D01*
X0228776Y0042663D01*
X0230711Y0046093D02*
X0231195Y0046093D01*
X0231195Y0046577D01*
X0230711Y0046577D01*
X0230711Y0046093D01*
X0231195Y0046577D02*
X0232163Y0045609D01*
X0230711Y0047574D02*
X0231195Y0048057D01*
X0231195Y0049025D01*
X0230711Y0049509D01*
X0230228Y0049509D01*
X0229744Y0049025D01*
X0229744Y0048541D01*
X0229744Y0049025D02*
X0229260Y0049509D01*
X0228776Y0049509D01*
X0228293Y0049025D01*
X0228293Y0048057D01*
X0228776Y0047574D01*
X0228293Y0050520D02*
X0230228Y0050520D01*
X0231195Y0051488D01*
X0230228Y0052455D01*
X0228293Y0052455D01*
X0228776Y0053913D02*
X0230711Y0053913D01*
X0231195Y0054396D01*
X0231195Y0055364D01*
X0230711Y0055848D01*
X0229744Y0055848D01*
X0229744Y0054880D01*
X0228776Y0053913D02*
X0228293Y0054396D01*
X0228293Y0055364D01*
X0228776Y0055848D01*
X0228293Y0056859D02*
X0231195Y0058794D01*
X0228293Y0058794D01*
X0228293Y0059806D02*
X0228293Y0061257D01*
X0228776Y0061741D01*
X0230711Y0061741D01*
X0231195Y0061257D01*
X0231195Y0059806D01*
X0228293Y0059806D01*
X0228293Y0056859D02*
X0231195Y0056859D01*
X0230711Y0066413D02*
X0231195Y0066896D01*
X0231195Y0067864D01*
X0230711Y0068348D01*
X0229744Y0068348D01*
X0229260Y0067864D01*
X0229260Y0067380D01*
X0229744Y0066413D01*
X0228293Y0066413D01*
X0228293Y0068348D01*
X0228293Y0069359D02*
X0230228Y0069359D01*
X0231195Y0070327D01*
X0230228Y0071294D01*
X0228293Y0071294D01*
X0229260Y0075163D02*
X0228293Y0076130D01*
X0229260Y0077098D01*
X0231195Y0077098D01*
X0230711Y0078109D02*
X0231195Y0078593D01*
X0231195Y0079561D01*
X0230711Y0080044D01*
X0230228Y0080044D01*
X0229744Y0079561D01*
X0229744Y0078109D01*
X0230711Y0078109D01*
X0229744Y0078109D02*
X0228776Y0079077D01*
X0228293Y0080044D01*
X0229744Y0077098D02*
X0229744Y0075163D01*
X0229260Y0075163D02*
X0231195Y0075163D01*
X0231195Y0083913D02*
X0229260Y0083913D01*
X0228293Y0084880D01*
X0229260Y0085848D01*
X0231195Y0085848D01*
X0230711Y0086859D02*
X0228776Y0088794D01*
X0230711Y0088794D01*
X0231195Y0088311D01*
X0231195Y0087343D01*
X0230711Y0086859D01*
X0228776Y0086859D01*
X0228293Y0087343D01*
X0228293Y0088311D01*
X0228776Y0088794D01*
X0229744Y0085848D02*
X0229744Y0083913D01*
X0230711Y0092663D02*
X0231195Y0093146D01*
X0231195Y0094114D01*
X0230711Y0094598D01*
X0230228Y0094598D01*
X0229744Y0094114D01*
X0229744Y0093630D01*
X0229744Y0094114D02*
X0229260Y0094598D01*
X0228776Y0094598D01*
X0228293Y0094114D01*
X0228293Y0093146D01*
X0228776Y0092663D01*
X0230711Y0096093D02*
X0231195Y0096093D01*
X0231195Y0096577D01*
X0230711Y0096577D01*
X0230711Y0096093D01*
X0231195Y0096577D02*
X0232163Y0095609D01*
X0230711Y0097574D02*
X0231195Y0098057D01*
X0231195Y0099025D01*
X0230711Y0099509D01*
X0230228Y0099509D01*
X0229744Y0099025D01*
X0229744Y0098541D01*
X0229744Y0099025D02*
X0229260Y0099509D01*
X0228776Y0099509D01*
X0228293Y0099025D01*
X0228293Y0098057D01*
X0228776Y0097574D01*
X0228293Y0100520D02*
X0230228Y0100520D01*
X0231195Y0101488D01*
X0230228Y0102455D01*
X0228293Y0102455D01*
X0228776Y0103913D02*
X0230711Y0103913D01*
X0231195Y0104396D01*
X0231195Y0105364D01*
X0230711Y0105848D01*
X0229744Y0105848D01*
X0229744Y0104880D01*
X0228776Y0103913D02*
X0228293Y0104396D01*
X0228293Y0105364D01*
X0228776Y0105848D01*
X0228293Y0106859D02*
X0231195Y0108794D01*
X0228293Y0108794D01*
X0228293Y0109806D02*
X0228293Y0111257D01*
X0228776Y0111741D01*
X0230711Y0111741D01*
X0231195Y0111257D01*
X0231195Y0109806D01*
X0228293Y0109806D01*
X0228293Y0106859D02*
X0231195Y0106859D01*
X0231195Y0115163D02*
X0229260Y0115163D01*
X0228293Y0116130D01*
X0229260Y0117098D01*
X0231195Y0117098D01*
X0231195Y0118109D02*
X0229260Y0120044D01*
X0228776Y0120044D01*
X0228293Y0119561D01*
X0228293Y0118593D01*
X0228776Y0118109D01*
X0229744Y0117098D02*
X0229744Y0115163D01*
X0231195Y0118109D02*
X0231195Y0120044D01*
X0230711Y0125163D02*
X0231195Y0125646D01*
X0231195Y0126614D01*
X0230711Y0127098D01*
X0229744Y0127098D01*
X0229260Y0126614D01*
X0229260Y0126130D01*
X0229744Y0125163D01*
X0228293Y0125163D01*
X0228293Y0127098D01*
X0228293Y0128109D02*
X0230228Y0128109D01*
X0231195Y0129077D01*
X0230228Y0130044D01*
X0228293Y0130044D01*
X0228776Y0133913D02*
X0230711Y0133913D01*
X0231195Y0134396D01*
X0231195Y0135364D01*
X0230711Y0135848D01*
X0229744Y0135848D01*
X0229744Y0134880D01*
X0228776Y0133913D02*
X0228293Y0134396D01*
X0228293Y0135364D01*
X0228776Y0135848D01*
X0228293Y0136859D02*
X0231195Y0138794D01*
X0228293Y0138794D01*
X0228293Y0139806D02*
X0228293Y0141257D01*
X0228776Y0141741D01*
X0230711Y0141741D01*
X0231195Y0141257D01*
X0231195Y0139806D01*
X0228293Y0139806D01*
X0228293Y0136859D02*
X0231195Y0136859D01*
X0230711Y0143913D02*
X0231195Y0144396D01*
X0231195Y0145364D01*
X0230711Y0145848D01*
X0230228Y0145848D01*
X0229744Y0145364D01*
X0229744Y0144880D01*
X0229744Y0145364D02*
X0229260Y0145848D01*
X0228776Y0145848D01*
X0228293Y0145364D01*
X0228293Y0144396D01*
X0228776Y0143913D01*
X0230711Y0147343D02*
X0231195Y0147343D01*
X0231195Y0147827D01*
X0230711Y0147827D01*
X0230711Y0147343D01*
X0231195Y0147827D02*
X0232163Y0146859D01*
X0230711Y0148824D02*
X0231195Y0149307D01*
X0231195Y0150275D01*
X0230711Y0150759D01*
X0230228Y0150759D01*
X0229744Y0150275D01*
X0229744Y0149791D01*
X0229744Y0150275D02*
X0229260Y0150759D01*
X0228776Y0150759D01*
X0228293Y0150275D01*
X0228293Y0149307D01*
X0228776Y0148824D01*
X0228293Y0151770D02*
X0230228Y0151770D01*
X0231195Y0152738D01*
X0230228Y0153705D01*
X0228293Y0153705D01*
X0228776Y0153913D02*
X0229260Y0153913D01*
X0229744Y0154396D01*
X0229744Y0155364D01*
X0230228Y0155848D01*
X0230711Y0155848D01*
X0231195Y0155364D01*
X0231195Y0154396D01*
X0230711Y0153913D01*
X0228776Y0153913D02*
X0228293Y0154396D01*
X0228293Y0155364D01*
X0228776Y0155848D01*
X0228293Y0156859D02*
X0228293Y0158311D01*
X0228776Y0158794D01*
X0230711Y0158794D01*
X0231195Y0158311D01*
X0231195Y0156859D01*
X0228293Y0156859D01*
X0229260Y0159806D02*
X0228293Y0160773D01*
X0229260Y0161741D01*
X0231195Y0161741D01*
X0229744Y0161741D02*
X0229744Y0159806D01*
X0229260Y0159806D02*
X0231195Y0159806D01*
X0230711Y0163913D02*
X0231195Y0164396D01*
X0231195Y0165364D01*
X0230711Y0165848D01*
X0230228Y0165848D01*
X0229744Y0165364D01*
X0229744Y0164396D01*
X0229260Y0163913D01*
X0228776Y0163913D01*
X0228293Y0164396D01*
X0228293Y0165364D01*
X0228776Y0165848D01*
X0228776Y0166859D02*
X0230711Y0166859D01*
X0231195Y0167343D01*
X0231195Y0168311D01*
X0230711Y0168794D01*
X0231195Y0169806D02*
X0228293Y0169806D01*
X0228776Y0168794D02*
X0228293Y0168311D01*
X0228293Y0167343D01*
X0228776Y0166859D01*
X0231195Y0169806D02*
X0231195Y0171741D01*
X0216647Y0192413D02*
X0214178Y0192413D01*
X0216647Y0194882D01*
X0216647Y0195499D01*
X0216030Y0196116D01*
X0214795Y0196116D01*
X0214178Y0195499D01*
X0214795Y0196116D01*
X0216030Y0196116D01*
X0216647Y0195499D01*
X0216647Y0194882D01*
X0214178Y0192413D01*
X0216647Y0192413D01*
X0212964Y0193030D02*
X0212347Y0192413D01*
X0211112Y0192413D01*
X0210495Y0193030D01*
X0210495Y0195499D01*
X0211112Y0196116D01*
X0212347Y0196116D01*
X0212964Y0195499D01*
X0212347Y0196116D01*
X0211112Y0196116D01*
X0210495Y0195499D01*
X0210495Y0193030D01*
X0211112Y0192413D01*
X0212347Y0192413D01*
X0212964Y0193030D01*
X0206195Y0171741D02*
X0206195Y0169806D01*
X0203293Y0169806D01*
X0203776Y0168794D02*
X0203293Y0168311D01*
X0203293Y0167343D01*
X0203776Y0166859D01*
X0205711Y0166859D01*
X0206195Y0167343D01*
X0206195Y0168311D01*
X0205711Y0168794D01*
X0205711Y0165848D02*
X0206195Y0165364D01*
X0206195Y0164396D01*
X0205711Y0163913D01*
X0204744Y0164396D02*
X0204744Y0165364D01*
X0205228Y0165848D01*
X0205711Y0165848D01*
X0204744Y0164396D02*
X0204260Y0163913D01*
X0203776Y0163913D01*
X0203293Y0164396D01*
X0203293Y0165364D01*
X0203776Y0165848D01*
X0204260Y0161741D02*
X0206195Y0161741D01*
X0204744Y0161741D02*
X0204744Y0159806D01*
X0204260Y0159806D02*
X0206195Y0159806D01*
X0205711Y0158794D02*
X0203776Y0158794D01*
X0203293Y0158311D01*
X0203293Y0156859D01*
X0206195Y0156859D01*
X0206195Y0158311D01*
X0205711Y0158794D01*
X0204260Y0159806D02*
X0203293Y0160773D01*
X0204260Y0161741D01*
X0203776Y0155848D02*
X0203293Y0155364D01*
X0203293Y0154396D01*
X0203776Y0153913D01*
X0204260Y0153913D01*
X0204744Y0154396D01*
X0204744Y0155364D01*
X0205228Y0155848D01*
X0205711Y0155848D01*
X0206195Y0155364D01*
X0206195Y0154396D01*
X0205711Y0153913D01*
X0205228Y0150044D02*
X0203293Y0150044D01*
X0205228Y0150044D02*
X0206195Y0149077D01*
X0205228Y0148109D01*
X0203293Y0148109D01*
X0203293Y0147098D02*
X0203293Y0145163D01*
X0204744Y0145163D01*
X0204260Y0146130D01*
X0204260Y0146614D01*
X0204744Y0147098D01*
X0205711Y0147098D01*
X0206195Y0146614D01*
X0206195Y0145646D01*
X0205711Y0145163D01*
X0205711Y0141741D02*
X0203776Y0141741D01*
X0203293Y0141257D01*
X0203293Y0139806D01*
X0206195Y0139806D01*
X0206195Y0141257D01*
X0205711Y0141741D01*
X0206195Y0138794D02*
X0203293Y0138794D01*
X0203293Y0136859D02*
X0206195Y0138794D01*
X0206195Y0136859D02*
X0203293Y0136859D01*
X0203776Y0135848D02*
X0203293Y0135364D01*
X0203293Y0134396D01*
X0203776Y0133913D01*
X0205711Y0133913D01*
X0206195Y0134396D01*
X0206195Y0135364D01*
X0205711Y0135848D01*
X0204744Y0135848D01*
X0204744Y0134880D01*
X0143341Y0172581D02*
X0142857Y0173065D01*
X0141890Y0173065D01*
X0141406Y0172581D01*
X0142373Y0171614D02*
X0142857Y0171614D01*
D12*
X0147895Y0169630D02*
X0148462Y0169063D01*
X0149029Y0169063D01*
X0149597Y0169630D01*
X0149597Y0172466D01*
X0150164Y0172466D02*
X0149029Y0172466D01*
X0151578Y0172466D02*
X0153280Y0172466D01*
X0153847Y0171899D01*
X0153847Y0170764D01*
X0153280Y0170197D01*
X0151578Y0170197D01*
X0151578Y0169063D02*
X0151578Y0172466D01*
X0155261Y0171331D02*
X0156396Y0172466D01*
X0156396Y0169063D01*
X0157530Y0169063D02*
X0155261Y0169063D01*
X0180392Y0170148D02*
X0180392Y0167880D01*
X0182094Y0167880D01*
X0181527Y0169014D01*
X0181527Y0169581D01*
X0182094Y0170148D01*
X0183228Y0170148D01*
X0183795Y0169581D01*
X0183795Y0168447D01*
X0183228Y0167880D01*
X0183795Y0166465D02*
X0183795Y0164196D01*
X0183795Y0165331D02*
X0180392Y0165331D01*
X0181527Y0164196D01*
X0182094Y0162782D02*
X0182661Y0162215D01*
X0182661Y0160513D01*
X0183795Y0160513D02*
X0180392Y0160513D01*
X0180392Y0162215D01*
X0180959Y0162782D01*
X0182094Y0162782D01*
X0180392Y0159099D02*
X0180392Y0157964D01*
X0180392Y0158532D02*
X0183228Y0158532D01*
X0183795Y0157964D01*
X0183795Y0157397D01*
X0183228Y0156830D01*
X0183595Y0172060D02*
X0183595Y0173639D01*
X0189095Y0174265D02*
X0189095Y0190761D01*
X0183595Y0191387D02*
X0183595Y0192966D01*
X0183595Y0183639D02*
X0183595Y0181387D01*
X0212895Y0174630D02*
X0213462Y0174063D01*
X0214029Y0174063D01*
X0214597Y0174630D01*
X0214597Y0177466D01*
X0215164Y0177466D02*
X0214029Y0177466D01*
X0216578Y0177466D02*
X0218280Y0177466D01*
X0218847Y0176899D01*
X0218847Y0175764D01*
X0218280Y0175197D01*
X0216578Y0175197D01*
X0216578Y0174063D02*
X0216578Y0177466D01*
X0220261Y0176331D02*
X0221396Y0177466D01*
X0221396Y0174063D01*
X0222530Y0174063D02*
X0220261Y0174063D01*
X0223945Y0175764D02*
X0226213Y0175764D01*
X0225646Y0174063D02*
X0225646Y0177466D01*
X0223945Y0175764D01*
X0208545Y0074881D02*
X0208545Y0072612D01*
X0208545Y0073746D02*
X0205142Y0073746D01*
X0206277Y0072612D01*
X0208545Y0071198D02*
X0208545Y0068929D01*
X0208545Y0070063D02*
X0205142Y0070063D01*
X0206277Y0068929D01*
X0206844Y0067515D02*
X0207411Y0066947D01*
X0207411Y0065246D01*
X0208545Y0065246D02*
X0205142Y0065246D01*
X0205142Y0066947D01*
X0205709Y0067515D01*
X0206844Y0067515D01*
X0205142Y0063831D02*
X0205142Y0062697D01*
X0205142Y0063264D02*
X0207978Y0063264D01*
X0208545Y0062697D01*
X0208545Y0062130D01*
X0207978Y0061563D01*
X0207978Y0044881D02*
X0205709Y0044881D01*
X0207978Y0042612D01*
X0208545Y0043179D01*
X0208545Y0044314D01*
X0207978Y0044881D01*
X0205709Y0044881D02*
X0205142Y0044314D01*
X0205142Y0043179D01*
X0205709Y0042612D01*
X0207978Y0042612D01*
X0208545Y0041198D02*
X0208545Y0038929D01*
X0208545Y0040063D02*
X0205142Y0040063D01*
X0206277Y0038929D01*
X0206844Y0037515D02*
X0207411Y0036947D01*
X0207411Y0035246D01*
X0208545Y0035246D02*
X0205142Y0035246D01*
X0205142Y0036947D01*
X0205709Y0037515D01*
X0206844Y0037515D01*
X0205142Y0033831D02*
X0205142Y0032697D01*
X0205142Y0033264D02*
X0207978Y0033264D01*
X0208545Y0032697D01*
X0208545Y0032130D01*
X0207978Y0031563D01*
X0197545Y0020831D02*
X0196978Y0021398D01*
X0194709Y0021398D01*
X0194142Y0020831D01*
X0194142Y0019697D01*
X0194709Y0019130D01*
X0195277Y0019130D01*
X0195844Y0019697D01*
X0195844Y0021398D01*
X0197545Y0020831D02*
X0197545Y0019697D01*
X0196978Y0019130D01*
X0195844Y0017715D02*
X0196411Y0017148D01*
X0196411Y0015446D01*
X0197545Y0015446D02*
X0194142Y0015446D01*
X0194142Y0017148D01*
X0194709Y0017715D01*
X0195844Y0017715D01*
X0194142Y0014032D02*
X0194142Y0012898D01*
X0194142Y0013465D02*
X0196978Y0013465D01*
X0197545Y0012898D01*
X0197545Y0012330D01*
X0196978Y0011763D01*
X0142530Y0030880D02*
X0141963Y0030313D01*
X0140829Y0030313D01*
X0140261Y0030880D01*
X0140261Y0031447D01*
X0140829Y0032014D01*
X0141963Y0032014D01*
X0142530Y0031447D01*
X0142530Y0030880D01*
X0141963Y0032014D02*
X0142530Y0032581D01*
X0142530Y0033149D01*
X0141963Y0033716D01*
X0140829Y0033716D01*
X0140261Y0033149D01*
X0140261Y0032581D01*
X0140829Y0032014D01*
X0138847Y0032014D02*
X0138280Y0031447D01*
X0136578Y0031447D01*
X0136578Y0030313D02*
X0136578Y0033716D01*
X0138280Y0033716D01*
X0138847Y0033149D01*
X0138847Y0032014D01*
X0135164Y0033716D02*
X0134029Y0033716D01*
X0134597Y0033716D02*
X0134597Y0030880D01*
X0134029Y0030313D01*
X0133462Y0030313D01*
X0132895Y0030880D01*
X0110030Y0033149D02*
X0107761Y0030880D01*
X0107761Y0030313D01*
X0106347Y0032014D02*
X0105780Y0031447D01*
X0104078Y0031447D01*
X0104078Y0030313D02*
X0104078Y0033716D01*
X0105780Y0033716D01*
X0106347Y0033149D01*
X0106347Y0032014D01*
X0107761Y0033716D02*
X0110030Y0033716D01*
X0110030Y0033149D01*
X0102664Y0033716D02*
X0101529Y0033716D01*
X0102097Y0033716D02*
X0102097Y0030880D01*
X0101529Y0030313D01*
X0100962Y0030313D01*
X0100395Y0030880D01*
X0101728Y0102813D02*
X0102295Y0103380D01*
X0102295Y0103947D01*
X0101728Y0104514D01*
X0098892Y0104514D01*
X0098892Y0103947D02*
X0098892Y0105081D01*
X0098892Y0106496D02*
X0098892Y0108197D01*
X0099459Y0108765D01*
X0100594Y0108765D01*
X0101161Y0108197D01*
X0101161Y0106496D01*
X0102295Y0106496D02*
X0098892Y0106496D01*
X0100594Y0110179D02*
X0100594Y0111880D01*
X0101161Y0112448D01*
X0101728Y0112448D01*
X0102295Y0111880D01*
X0102295Y0110746D01*
X0101728Y0110179D01*
X0100594Y0110179D01*
X0099459Y0111313D01*
X0098892Y0112448D01*
X0101728Y0126563D02*
X0102295Y0127130D01*
X0102295Y0127697D01*
X0101728Y0128264D01*
X0098892Y0128264D01*
X0098892Y0127697D02*
X0098892Y0128831D01*
X0098892Y0130246D02*
X0098892Y0131947D01*
X0099459Y0132515D01*
X0100594Y0132515D01*
X0101161Y0131947D01*
X0101161Y0130246D01*
X0102295Y0130246D02*
X0098892Y0130246D01*
X0098892Y0133929D02*
X0100594Y0133929D01*
X0100027Y0135063D01*
X0100027Y0135630D01*
X0100594Y0136198D01*
X0101728Y0136198D01*
X0102295Y0135630D01*
X0102295Y0134496D01*
X0101728Y0133929D01*
X0098892Y0133929D02*
X0098892Y0136198D01*
X0101728Y0152813D02*
X0102295Y0153380D01*
X0102295Y0153947D01*
X0101728Y0154514D01*
X0098892Y0154514D01*
X0098892Y0153947D02*
X0098892Y0155081D01*
X0098892Y0156496D02*
X0098892Y0158197D01*
X0099459Y0158765D01*
X0100594Y0158765D01*
X0101161Y0158197D01*
X0101161Y0156496D01*
X0102295Y0156496D02*
X0098892Y0156496D01*
X0100594Y0160179D02*
X0100594Y0162448D01*
X0102295Y0161880D02*
X0098892Y0161880D01*
X0100594Y0160179D01*
X0090030Y0175313D02*
X0087761Y0175313D01*
X0090030Y0177581D01*
X0090030Y0178149D01*
X0089463Y0178716D01*
X0088329Y0178716D01*
X0087761Y0178149D01*
X0086347Y0178149D02*
X0086347Y0177014D01*
X0085780Y0176447D01*
X0084078Y0176447D01*
X0084078Y0175313D02*
X0084078Y0178716D01*
X0085780Y0178716D01*
X0086347Y0178149D01*
X0082664Y0178716D02*
X0081529Y0178716D01*
X0082097Y0178716D02*
X0082097Y0175880D01*
X0081529Y0175313D01*
X0080962Y0175313D01*
X0080395Y0175880D01*
D13*
X0075095Y0172513D02*
X0075095Y0167513D01*
X0075095Y0147513D01*
X0075095Y0142513D01*
X0075095Y0137513D01*
X0075095Y0127513D01*
X0075095Y0122513D01*
X0097095Y0122513D01*
X0097095Y0142513D01*
X0075095Y0142513D01*
X0097095Y0142513D01*
X0097095Y0172513D01*
X0075095Y0172513D01*
X0090095Y0173013D02*
X0110095Y0173013D01*
X0110095Y0195013D01*
X0105095Y0195013D01*
X0095095Y0195013D01*
X0090095Y0195013D01*
X0090095Y0173013D01*
X0112595Y0160013D02*
X0117595Y0160013D01*
X0170595Y0160013D01*
X0174595Y0160013D01*
X0177595Y0160013D01*
X0182595Y0160013D01*
X0182595Y0122513D01*
X0180095Y0120013D01*
X0182595Y0117513D01*
X0182595Y0122513D02*
X0182595Y0057513D01*
X0185095Y0060013D01*
X0182595Y0062513D01*
X0182595Y0067513D01*
X0185095Y0070013D01*
X0190095Y0070013D01*
X0192595Y0067513D01*
X0195095Y0070013D01*
X0200095Y0070013D01*
X0202595Y0067513D01*
X0202595Y0062513D01*
X0200095Y0060013D01*
X0202595Y0057513D01*
X0202595Y0052513D01*
X0200095Y0050013D01*
X0202595Y0047513D01*
X0202595Y0042513D01*
X0200095Y0040013D01*
X0202595Y0037513D01*
X0202595Y0032513D01*
X0200095Y0030013D01*
X0185095Y0030013D01*
X0182595Y0032513D01*
X0182595Y0037513D01*
X0185095Y0040013D01*
X0182595Y0042513D01*
X0182595Y0047513D01*
X0185095Y0050013D01*
X0182595Y0052513D01*
X0182595Y0057513D01*
X0180095Y0060013D01*
X0182595Y0062513D01*
X0182595Y0067513D02*
X0180095Y0070013D01*
X0182595Y0072513D01*
X0182595Y0077513D02*
X0180095Y0080013D01*
X0182595Y0082513D01*
X0182595Y0087513D02*
X0180095Y0090013D01*
X0182595Y0092513D01*
X0182595Y0097513D02*
X0180095Y0100013D01*
X0182595Y0102513D01*
X0182595Y0107513D02*
X0180095Y0110013D01*
X0182595Y0112513D01*
X0175095Y0110013D02*
X0172595Y0107513D01*
X0170095Y0105013D01*
X0172595Y0102513D01*
X0172595Y0097513D01*
X0170095Y0095013D01*
X0165095Y0095013D01*
X0162595Y0097513D01*
X0162595Y0102513D01*
X0165095Y0105013D01*
X0162595Y0107513D01*
X0162595Y0112513D01*
X0165095Y0115013D01*
X0170095Y0115013D01*
X0172595Y0112513D01*
X0172595Y0107513D01*
X0172595Y0102513D01*
X0175095Y0100013D01*
X0172595Y0097513D01*
X0172595Y0092513D01*
X0175095Y0090013D01*
X0172595Y0087513D01*
X0172595Y0082513D01*
X0175095Y0080013D01*
X0172595Y0077513D01*
X0172595Y0072513D01*
X0175095Y0070013D01*
X0172595Y0067513D01*
X0172595Y0062513D01*
X0175095Y0060013D01*
X0172595Y0057513D01*
X0172595Y0052513D01*
X0175095Y0050013D01*
X0172595Y0047513D01*
X0172595Y0042513D01*
X0175095Y0040013D01*
X0172595Y0037513D01*
X0170095Y0040013D01*
X0165095Y0040013D01*
X0162595Y0037513D01*
X0160095Y0040013D01*
X0155095Y0040013D01*
X0152595Y0037513D01*
X0150095Y0040013D01*
X0145095Y0040013D01*
X0142595Y0037513D01*
X0142595Y0032513D01*
X0145095Y0030013D01*
X0150095Y0030013D02*
X0152595Y0032513D01*
X0155095Y0030013D01*
X0152595Y0027013D02*
X0192595Y0027013D01*
X0192595Y0005013D01*
X0187595Y0005013D01*
X0157595Y0005013D01*
X0152595Y0005013D01*
X0152595Y0027013D01*
X0150095Y0027013D02*
X0120095Y0027013D01*
X0090095Y0027013D01*
X0090095Y0005013D01*
X0095095Y0005013D01*
X0115095Y0005013D01*
X0120095Y0005013D01*
X0120095Y0027013D01*
X0120095Y0005013D01*
X0125095Y0005013D01*
X0145095Y0005013D01*
X0150095Y0005013D01*
X0150095Y0027013D01*
X0160095Y0030013D02*
X0162595Y0032513D01*
X0165095Y0030013D01*
X0170095Y0030013D02*
X0172595Y0032513D01*
X0175095Y0030013D01*
X0172595Y0032513D02*
X0172595Y0037513D01*
X0180095Y0040013D02*
X0182595Y0042513D01*
X0182595Y0057513D01*
X0182595Y0052513D02*
X0180095Y0050013D01*
X0182595Y0047513D01*
X0182595Y0042513D02*
X0182595Y0030013D01*
X0112595Y0030013D01*
X0112595Y0037513D01*
X0115095Y0040013D01*
X0112595Y0042513D01*
X0112595Y0037513D01*
X0112595Y0042513D02*
X0112595Y0047513D01*
X0115095Y0050013D01*
X0112595Y0052513D01*
X0112595Y0047513D01*
X0112595Y0052513D02*
X0112595Y0057513D01*
X0115095Y0060013D01*
X0112595Y0062513D01*
X0112595Y0057513D01*
X0112595Y0062513D02*
X0112595Y0067513D01*
X0115095Y0070013D01*
X0112595Y0072513D01*
X0112595Y0067513D01*
X0112595Y0072513D02*
X0112595Y0077513D01*
X0115095Y0080013D01*
X0112595Y0082513D01*
X0112595Y0077513D01*
X0112595Y0082513D02*
X0112595Y0087513D01*
X0115095Y0090013D01*
X0112595Y0092513D01*
X0112595Y0087513D01*
X0112595Y0092513D02*
X0112595Y0097513D01*
X0115095Y0100013D01*
X0112595Y0102513D01*
X0112595Y0097513D01*
X0112595Y0102513D02*
X0112595Y0107513D01*
X0115095Y0110013D01*
X0112595Y0112513D01*
X0112595Y0107513D01*
X0112595Y0112513D02*
X0112595Y0117513D01*
X0115095Y0120013D01*
X0112595Y0122513D01*
X0112595Y0117513D01*
X0112595Y0122513D02*
X0112595Y0127513D01*
X0115095Y0130013D01*
X0112595Y0132513D01*
X0112595Y0127513D01*
X0112595Y0132513D02*
X0112595Y0137513D01*
X0115095Y0140013D01*
X0112595Y0142513D01*
X0112595Y0137513D01*
X0112595Y0142513D02*
X0112595Y0160013D01*
X0115095Y0150013D02*
X0112595Y0147513D01*
X0115095Y0150013D02*
X0120095Y0150013D01*
X0122595Y0147513D01*
X0122595Y0142513D01*
X0120095Y0140013D01*
X0122595Y0137513D01*
X0122595Y0132513D01*
X0120095Y0130013D01*
X0122595Y0127513D01*
X0122595Y0122513D01*
X0120095Y0120013D01*
X0122595Y0117513D01*
X0122595Y0112513D01*
X0120095Y0110013D01*
X0122595Y0107513D01*
X0122595Y0102513D01*
X0120095Y0100013D01*
X0122595Y0097513D01*
X0122595Y0092513D01*
X0120095Y0090013D01*
X0122595Y0087513D01*
X0122595Y0082513D01*
X0120095Y0080013D01*
X0122595Y0077513D01*
X0122595Y0072513D01*
X0120095Y0070013D01*
X0122595Y0067513D01*
X0122595Y0062513D01*
X0120095Y0060013D01*
X0122595Y0057513D01*
X0122595Y0052513D01*
X0120095Y0050013D01*
X0122595Y0047513D01*
X0122595Y0042513D01*
X0120095Y0040013D01*
X0122595Y0037513D01*
X0122595Y0032513D01*
X0120095Y0030013D01*
X0115095Y0030013D02*
X0112595Y0032513D01*
X0097095Y0092513D02*
X0075095Y0092513D01*
X0075095Y0097513D01*
X0075095Y0117513D01*
X0075095Y0122513D01*
X0097095Y0122513D01*
X0097095Y0092513D01*
X0172595Y0112513D02*
X0175095Y0110013D01*
X0172595Y0112513D02*
X0172595Y0117513D01*
X0175095Y0120013D01*
X0172595Y0122513D01*
X0172595Y0127513D01*
X0175095Y0130013D01*
X0172595Y0132513D01*
X0172595Y0137513D01*
X0175095Y0140013D01*
X0172595Y0142513D01*
X0172595Y0147513D01*
X0175095Y0150013D01*
X0180095Y0150013D01*
X0182595Y0147513D01*
X0182595Y0142513D02*
X0180095Y0140013D01*
X0182595Y0137513D01*
X0182595Y0132513D02*
X0180095Y0130013D01*
X0182595Y0127513D01*
X0185595Y0132513D02*
X0185595Y0172513D01*
X0207595Y0172513D01*
X0207595Y0167513D01*
X0207595Y0137513D01*
X0207595Y0132513D01*
X0185595Y0132513D01*
X0205893Y0122953D02*
X0206343Y0123404D01*
X0206794Y0123404D01*
X0207244Y0122953D01*
X0207694Y0123404D01*
X0208145Y0123404D01*
X0208595Y0122953D01*
X0208595Y0122053D01*
X0208145Y0121602D01*
X0208595Y0120457D02*
X0208595Y0118656D01*
X0208595Y0119557D02*
X0205893Y0119557D01*
X0206794Y0118656D01*
X0206343Y0117511D02*
X0207244Y0117511D01*
X0207694Y0117060D01*
X0207694Y0115709D01*
X0208595Y0115709D02*
X0205893Y0115709D01*
X0205893Y0117060D01*
X0206343Y0117511D01*
X0205893Y0114564D02*
X0205893Y0113664D01*
X0205893Y0114114D02*
X0208145Y0114114D01*
X0208595Y0113664D01*
X0208595Y0113213D01*
X0208145Y0112763D01*
X0206343Y0121602D02*
X0205893Y0122053D01*
X0205893Y0122953D01*
X0207244Y0122953D02*
X0207244Y0122503D01*
X0210595Y0132513D02*
X0210595Y0172513D01*
X0232595Y0172513D01*
X0232595Y0167513D01*
X0232595Y0137513D01*
X0232595Y0132513D01*
X0210595Y0132513D01*
X0210595Y0102513D01*
X0210595Y0082513D01*
X0232595Y0082513D01*
X0232595Y0087513D01*
X0232595Y0097513D01*
X0232595Y0102513D01*
X0210595Y0102513D01*
X0232595Y0102513D01*
X0232595Y0107513D01*
X0232595Y0127513D01*
X0232595Y0132513D01*
X0210595Y0132513D01*
X0208595Y0098404D02*
X0208595Y0096602D01*
X0206794Y0098404D01*
X0206343Y0098404D01*
X0205893Y0097953D01*
X0205893Y0097053D01*
X0206343Y0096602D01*
X0205893Y0094557D02*
X0208595Y0094557D01*
X0208595Y0095457D02*
X0208595Y0093656D01*
X0207244Y0092511D02*
X0207694Y0092060D01*
X0207694Y0090709D01*
X0208595Y0090709D02*
X0205893Y0090709D01*
X0205893Y0092060D01*
X0206343Y0092511D01*
X0207244Y0092511D01*
X0206794Y0093656D02*
X0205893Y0094557D01*
X0205893Y0089564D02*
X0205893Y0088664D01*
X0205893Y0089114D02*
X0208145Y0089114D01*
X0208595Y0088664D01*
X0208595Y0088213D01*
X0208145Y0087763D01*
X0210595Y0082513D02*
X0210595Y0052513D01*
X0210595Y0022513D01*
X0232595Y0022513D01*
X0232595Y0027513D01*
X0232595Y0047513D01*
X0232595Y0052513D01*
X0210595Y0052513D01*
X0232595Y0052513D01*
X0232595Y0057513D01*
X0232595Y0077513D01*
X0232595Y0082513D01*
X0210595Y0082513D01*
X0180095Y0040013D02*
X0182595Y0037513D01*
X0182595Y0032513D02*
X0180095Y0030013D01*
X0165095Y0173013D02*
X0135095Y0173013D01*
X0135095Y0195013D01*
X0140095Y0195013D01*
X0160095Y0195013D01*
X0165095Y0195013D01*
X0165095Y0173013D01*
D14*
X0157263Y0165415D02*
X0157263Y0164815D01*
X0156663Y0164214D01*
X0157263Y0163614D01*
X0157263Y0163013D01*
X0156663Y0162413D01*
X0155462Y0162413D01*
X0154861Y0163013D01*
X0155462Y0162413D01*
X0156663Y0162413D01*
X0157263Y0163013D01*
X0157263Y0163614D01*
X0156663Y0164214D01*
X0156062Y0164214D01*
X0156663Y0164214D01*
X0157263Y0164815D01*
X0157263Y0165415D01*
X0156663Y0166016D01*
X0155462Y0166016D01*
X0154861Y0165415D01*
X0155462Y0166016D01*
X0156663Y0166016D01*
X0157263Y0165415D01*
X0153580Y0165415D02*
X0153580Y0164214D01*
X0152980Y0163614D01*
X0151178Y0163614D01*
X0152980Y0163614D01*
X0153580Y0164214D01*
X0153580Y0165415D01*
X0152980Y0166016D01*
X0151178Y0166016D01*
X0151178Y0162413D01*
X0151178Y0166016D01*
X0152980Y0166016D01*
X0153580Y0165415D01*
X0149897Y0166016D02*
X0148696Y0166016D01*
X0149897Y0166016D01*
X0149297Y0166016D02*
X0149297Y0163013D01*
X0148696Y0162413D01*
X0148096Y0162413D01*
X0147495Y0163013D01*
X0148096Y0162413D01*
X0148696Y0162413D01*
X0149297Y0163013D01*
X0149297Y0166016D01*
X0168545Y0191713D02*
X0169746Y0191713D01*
X0168545Y0191713D01*
X0169146Y0191713D02*
X0169146Y0195316D01*
X0169146Y0191713D01*
X0171001Y0192313D02*
X0171001Y0194715D01*
X0171601Y0195316D01*
X0172802Y0195316D01*
X0173403Y0194715D01*
X0172802Y0195316D01*
X0171601Y0195316D01*
X0171001Y0194715D01*
X0171001Y0192313D01*
X0171601Y0191713D01*
X0172802Y0191713D01*
X0173403Y0192313D01*
X0172802Y0191713D01*
X0171601Y0191713D01*
X0171001Y0192313D01*
X0174684Y0191713D02*
X0177086Y0191713D01*
X0174684Y0191713D01*
X0175885Y0191713D02*
X0175885Y0195316D01*
X0174684Y0194115D01*
X0175885Y0195316D01*
X0175885Y0191713D01*
X0169746Y0195316D02*
X0168545Y0195316D01*
X0169746Y0195316D01*
D15*
X0195252Y0182513D02*
X0195255Y0182755D01*
X0195264Y0182996D01*
X0195279Y0183237D01*
X0195299Y0183478D01*
X0195326Y0183718D01*
X0195359Y0183957D01*
X0195397Y0184196D01*
X0195441Y0184433D01*
X0195491Y0184670D01*
X0195547Y0184905D01*
X0195609Y0185138D01*
X0195676Y0185370D01*
X0195749Y0185601D01*
X0195827Y0185829D01*
X0195912Y0186055D01*
X0196001Y0186280D01*
X0196096Y0186502D01*
X0196197Y0186721D01*
X0196303Y0186939D01*
X0196414Y0187153D01*
X0196531Y0187365D01*
X0196652Y0187573D01*
X0196779Y0187779D01*
X0196911Y0187981D01*
X0197048Y0188181D01*
X0197189Y0188376D01*
X0197335Y0188569D01*
X0197486Y0188757D01*
X0197642Y0188942D01*
X0197802Y0189123D01*
X0197966Y0189300D01*
X0198135Y0189473D01*
X0198308Y0189642D01*
X0198485Y0189806D01*
X0198666Y0189966D01*
X0198851Y0190122D01*
X0199039Y0190273D01*
X0199232Y0190419D01*
X0199427Y0190560D01*
X0199627Y0190697D01*
X0199829Y0190829D01*
X0200035Y0190956D01*
X0200243Y0191077D01*
X0200455Y0191194D01*
X0200669Y0191305D01*
X0200887Y0191411D01*
X0201106Y0191512D01*
X0201328Y0191607D01*
X0201553Y0191696D01*
X0201779Y0191781D01*
X0202007Y0191859D01*
X0202238Y0191932D01*
X0202470Y0191999D01*
X0202703Y0192061D01*
X0202938Y0192117D01*
X0203175Y0192167D01*
X0203412Y0192211D01*
X0203651Y0192249D01*
X0203890Y0192282D01*
X0204130Y0192309D01*
X0204371Y0192329D01*
X0204612Y0192344D01*
X0204853Y0192353D01*
X0205095Y0192356D01*
X0205337Y0192353D01*
X0205578Y0192344D01*
X0205819Y0192329D01*
X0206060Y0192309D01*
X0206300Y0192282D01*
X0206539Y0192249D01*
X0206778Y0192211D01*
X0207015Y0192167D01*
X0207252Y0192117D01*
X0207487Y0192061D01*
X0207720Y0191999D01*
X0207952Y0191932D01*
X0208183Y0191859D01*
X0208411Y0191781D01*
X0208637Y0191696D01*
X0208862Y0191607D01*
X0209084Y0191512D01*
X0209303Y0191411D01*
X0209521Y0191305D01*
X0209735Y0191194D01*
X0209947Y0191077D01*
X0210155Y0190956D01*
X0210361Y0190829D01*
X0210563Y0190697D01*
X0210763Y0190560D01*
X0210958Y0190419D01*
X0211151Y0190273D01*
X0211339Y0190122D01*
X0211524Y0189966D01*
X0211705Y0189806D01*
X0211882Y0189642D01*
X0212055Y0189473D01*
X0212224Y0189300D01*
X0212388Y0189123D01*
X0212548Y0188942D01*
X0212704Y0188757D01*
X0212855Y0188569D01*
X0213001Y0188376D01*
X0213142Y0188181D01*
X0213279Y0187981D01*
X0213411Y0187779D01*
X0213538Y0187573D01*
X0213659Y0187365D01*
X0213776Y0187153D01*
X0213887Y0186939D01*
X0213993Y0186721D01*
X0214094Y0186502D01*
X0214189Y0186280D01*
X0214278Y0186055D01*
X0214363Y0185829D01*
X0214441Y0185601D01*
X0214514Y0185370D01*
X0214581Y0185138D01*
X0214643Y0184905D01*
X0214699Y0184670D01*
X0214749Y0184433D01*
X0214793Y0184196D01*
X0214831Y0183957D01*
X0214864Y0183718D01*
X0214891Y0183478D01*
X0214911Y0183237D01*
X0214926Y0182996D01*
X0214935Y0182755D01*
X0214938Y0182513D01*
X0214935Y0182271D01*
X0214926Y0182030D01*
X0214911Y0181789D01*
X0214891Y0181548D01*
X0214864Y0181308D01*
X0214831Y0181069D01*
X0214793Y0180830D01*
X0214749Y0180593D01*
X0214699Y0180356D01*
X0214643Y0180121D01*
X0214581Y0179888D01*
X0214514Y0179656D01*
X0214441Y0179425D01*
X0214363Y0179197D01*
X0214278Y0178971D01*
X0214189Y0178746D01*
X0214094Y0178524D01*
X0213993Y0178305D01*
X0213887Y0178087D01*
X0213776Y0177873D01*
X0213659Y0177661D01*
X0213538Y0177453D01*
X0213411Y0177247D01*
X0213279Y0177045D01*
X0213142Y0176845D01*
X0213001Y0176650D01*
X0212855Y0176457D01*
X0212704Y0176269D01*
X0212548Y0176084D01*
X0212388Y0175903D01*
X0212224Y0175726D01*
X0212055Y0175553D01*
X0211882Y0175384D01*
X0211705Y0175220D01*
X0211524Y0175060D01*
X0211339Y0174904D01*
X0211151Y0174753D01*
X0210958Y0174607D01*
X0210763Y0174466D01*
X0210563Y0174329D01*
X0210361Y0174197D01*
X0210155Y0174070D01*
X0209947Y0173949D01*
X0209735Y0173832D01*
X0209521Y0173721D01*
X0209303Y0173615D01*
X0209084Y0173514D01*
X0208862Y0173419D01*
X0208637Y0173330D01*
X0208411Y0173245D01*
X0208183Y0173167D01*
X0207952Y0173094D01*
X0207720Y0173027D01*
X0207487Y0172965D01*
X0207252Y0172909D01*
X0207015Y0172859D01*
X0206778Y0172815D01*
X0206539Y0172777D01*
X0206300Y0172744D01*
X0206060Y0172717D01*
X0205819Y0172697D01*
X0205578Y0172682D01*
X0205337Y0172673D01*
X0205095Y0172670D01*
X0204853Y0172673D01*
X0204612Y0172682D01*
X0204371Y0172697D01*
X0204130Y0172717D01*
X0203890Y0172744D01*
X0203651Y0172777D01*
X0203412Y0172815D01*
X0203175Y0172859D01*
X0202938Y0172909D01*
X0202703Y0172965D01*
X0202470Y0173027D01*
X0202238Y0173094D01*
X0202007Y0173167D01*
X0201779Y0173245D01*
X0201553Y0173330D01*
X0201328Y0173419D01*
X0201106Y0173514D01*
X0200887Y0173615D01*
X0200669Y0173721D01*
X0200455Y0173832D01*
X0200243Y0173949D01*
X0200035Y0174070D01*
X0199829Y0174197D01*
X0199627Y0174329D01*
X0199427Y0174466D01*
X0199232Y0174607D01*
X0199039Y0174753D01*
X0198851Y0174904D01*
X0198666Y0175060D01*
X0198485Y0175220D01*
X0198308Y0175384D01*
X0198135Y0175553D01*
X0197966Y0175726D01*
X0197802Y0175903D01*
X0197642Y0176084D01*
X0197486Y0176269D01*
X0197335Y0176457D01*
X0197189Y0176650D01*
X0197048Y0176845D01*
X0196911Y0177045D01*
X0196779Y0177247D01*
X0196652Y0177453D01*
X0196531Y0177661D01*
X0196414Y0177873D01*
X0196303Y0178087D01*
X0196197Y0178305D01*
X0196096Y0178524D01*
X0196001Y0178746D01*
X0195912Y0178971D01*
X0195827Y0179197D01*
X0195749Y0179425D01*
X0195676Y0179656D01*
X0195609Y0179888D01*
X0195547Y0180121D01*
X0195491Y0180356D01*
X0195441Y0180593D01*
X0195397Y0180830D01*
X0195359Y0181069D01*
X0195326Y0181308D01*
X0195299Y0181548D01*
X0195279Y0181789D01*
X0195264Y0182030D01*
X0195255Y0182271D01*
X0195252Y0182513D01*
X0210595Y0185513D02*
X0210595Y0189513D01*
X0112752Y0182513D02*
X0112755Y0182755D01*
X0112764Y0182996D01*
X0112779Y0183237D01*
X0112799Y0183478D01*
X0112826Y0183718D01*
X0112859Y0183957D01*
X0112897Y0184196D01*
X0112941Y0184433D01*
X0112991Y0184670D01*
X0113047Y0184905D01*
X0113109Y0185138D01*
X0113176Y0185370D01*
X0113249Y0185601D01*
X0113327Y0185829D01*
X0113412Y0186055D01*
X0113501Y0186280D01*
X0113596Y0186502D01*
X0113697Y0186721D01*
X0113803Y0186939D01*
X0113914Y0187153D01*
X0114031Y0187365D01*
X0114152Y0187573D01*
X0114279Y0187779D01*
X0114411Y0187981D01*
X0114548Y0188181D01*
X0114689Y0188376D01*
X0114835Y0188569D01*
X0114986Y0188757D01*
X0115142Y0188942D01*
X0115302Y0189123D01*
X0115466Y0189300D01*
X0115635Y0189473D01*
X0115808Y0189642D01*
X0115985Y0189806D01*
X0116166Y0189966D01*
X0116351Y0190122D01*
X0116539Y0190273D01*
X0116732Y0190419D01*
X0116927Y0190560D01*
X0117127Y0190697D01*
X0117329Y0190829D01*
X0117535Y0190956D01*
X0117743Y0191077D01*
X0117955Y0191194D01*
X0118169Y0191305D01*
X0118387Y0191411D01*
X0118606Y0191512D01*
X0118828Y0191607D01*
X0119053Y0191696D01*
X0119279Y0191781D01*
X0119507Y0191859D01*
X0119738Y0191932D01*
X0119970Y0191999D01*
X0120203Y0192061D01*
X0120438Y0192117D01*
X0120675Y0192167D01*
X0120912Y0192211D01*
X0121151Y0192249D01*
X0121390Y0192282D01*
X0121630Y0192309D01*
X0121871Y0192329D01*
X0122112Y0192344D01*
X0122353Y0192353D01*
X0122595Y0192356D01*
X0122837Y0192353D01*
X0123078Y0192344D01*
X0123319Y0192329D01*
X0123560Y0192309D01*
X0123800Y0192282D01*
X0124039Y0192249D01*
X0124278Y0192211D01*
X0124515Y0192167D01*
X0124752Y0192117D01*
X0124987Y0192061D01*
X0125220Y0191999D01*
X0125452Y0191932D01*
X0125683Y0191859D01*
X0125911Y0191781D01*
X0126137Y0191696D01*
X0126362Y0191607D01*
X0126584Y0191512D01*
X0126803Y0191411D01*
X0127021Y0191305D01*
X0127235Y0191194D01*
X0127447Y0191077D01*
X0127655Y0190956D01*
X0127861Y0190829D01*
X0128063Y0190697D01*
X0128263Y0190560D01*
X0128458Y0190419D01*
X0128651Y0190273D01*
X0128839Y0190122D01*
X0129024Y0189966D01*
X0129205Y0189806D01*
X0129382Y0189642D01*
X0129555Y0189473D01*
X0129724Y0189300D01*
X0129888Y0189123D01*
X0130048Y0188942D01*
X0130204Y0188757D01*
X0130355Y0188569D01*
X0130501Y0188376D01*
X0130642Y0188181D01*
X0130779Y0187981D01*
X0130911Y0187779D01*
X0131038Y0187573D01*
X0131159Y0187365D01*
X0131276Y0187153D01*
X0131387Y0186939D01*
X0131493Y0186721D01*
X0131594Y0186502D01*
X0131689Y0186280D01*
X0131778Y0186055D01*
X0131863Y0185829D01*
X0131941Y0185601D01*
X0132014Y0185370D01*
X0132081Y0185138D01*
X0132143Y0184905D01*
X0132199Y0184670D01*
X0132249Y0184433D01*
X0132293Y0184196D01*
X0132331Y0183957D01*
X0132364Y0183718D01*
X0132391Y0183478D01*
X0132411Y0183237D01*
X0132426Y0182996D01*
X0132435Y0182755D01*
X0132438Y0182513D01*
X0132435Y0182271D01*
X0132426Y0182030D01*
X0132411Y0181789D01*
X0132391Y0181548D01*
X0132364Y0181308D01*
X0132331Y0181069D01*
X0132293Y0180830D01*
X0132249Y0180593D01*
X0132199Y0180356D01*
X0132143Y0180121D01*
X0132081Y0179888D01*
X0132014Y0179656D01*
X0131941Y0179425D01*
X0131863Y0179197D01*
X0131778Y0178971D01*
X0131689Y0178746D01*
X0131594Y0178524D01*
X0131493Y0178305D01*
X0131387Y0178087D01*
X0131276Y0177873D01*
X0131159Y0177661D01*
X0131038Y0177453D01*
X0130911Y0177247D01*
X0130779Y0177045D01*
X0130642Y0176845D01*
X0130501Y0176650D01*
X0130355Y0176457D01*
X0130204Y0176269D01*
X0130048Y0176084D01*
X0129888Y0175903D01*
X0129724Y0175726D01*
X0129555Y0175553D01*
X0129382Y0175384D01*
X0129205Y0175220D01*
X0129024Y0175060D01*
X0128839Y0174904D01*
X0128651Y0174753D01*
X0128458Y0174607D01*
X0128263Y0174466D01*
X0128063Y0174329D01*
X0127861Y0174197D01*
X0127655Y0174070D01*
X0127447Y0173949D01*
X0127235Y0173832D01*
X0127021Y0173721D01*
X0126803Y0173615D01*
X0126584Y0173514D01*
X0126362Y0173419D01*
X0126137Y0173330D01*
X0125911Y0173245D01*
X0125683Y0173167D01*
X0125452Y0173094D01*
X0125220Y0173027D01*
X0124987Y0172965D01*
X0124752Y0172909D01*
X0124515Y0172859D01*
X0124278Y0172815D01*
X0124039Y0172777D01*
X0123800Y0172744D01*
X0123560Y0172717D01*
X0123319Y0172697D01*
X0123078Y0172682D01*
X0122837Y0172673D01*
X0122595Y0172670D01*
X0122353Y0172673D01*
X0122112Y0172682D01*
X0121871Y0172697D01*
X0121630Y0172717D01*
X0121390Y0172744D01*
X0121151Y0172777D01*
X0120912Y0172815D01*
X0120675Y0172859D01*
X0120438Y0172909D01*
X0120203Y0172965D01*
X0119970Y0173027D01*
X0119738Y0173094D01*
X0119507Y0173167D01*
X0119279Y0173245D01*
X0119053Y0173330D01*
X0118828Y0173419D01*
X0118606Y0173514D01*
X0118387Y0173615D01*
X0118169Y0173721D01*
X0117955Y0173832D01*
X0117743Y0173949D01*
X0117535Y0174070D01*
X0117329Y0174197D01*
X0117127Y0174329D01*
X0116927Y0174466D01*
X0116732Y0174607D01*
X0116539Y0174753D01*
X0116351Y0174904D01*
X0116166Y0175060D01*
X0115985Y0175220D01*
X0115808Y0175384D01*
X0115635Y0175553D01*
X0115466Y0175726D01*
X0115302Y0175903D01*
X0115142Y0176084D01*
X0114986Y0176269D01*
X0114835Y0176457D01*
X0114689Y0176650D01*
X0114548Y0176845D01*
X0114411Y0177045D01*
X0114279Y0177247D01*
X0114152Y0177453D01*
X0114031Y0177661D01*
X0113914Y0177873D01*
X0113803Y0178087D01*
X0113697Y0178305D01*
X0113596Y0178524D01*
X0113501Y0178746D01*
X0113412Y0178971D01*
X0113327Y0179197D01*
X0113249Y0179425D01*
X0113176Y0179656D01*
X0113109Y0179888D01*
X0113047Y0180121D01*
X0112991Y0180356D01*
X0112941Y0180593D01*
X0112897Y0180830D01*
X0112859Y0181069D01*
X0112826Y0181308D01*
X0112799Y0181548D01*
X0112779Y0181789D01*
X0112764Y0182030D01*
X0112755Y0182271D01*
X0112752Y0182513D01*
X0115595Y0188013D02*
X0119595Y0188013D01*
X0138196Y0102700D02*
X0144495Y0102700D01*
X0144495Y0102701D02*
X0144554Y0102687D01*
X0144612Y0102670D01*
X0144669Y0102649D01*
X0144725Y0102625D01*
X0144779Y0102597D01*
X0144831Y0102567D01*
X0144882Y0102533D01*
X0144930Y0102496D01*
X0144976Y0102457D01*
X0145019Y0102414D01*
X0145060Y0102370D01*
X0145098Y0102322D01*
X0145133Y0102273D01*
X0145165Y0102221D01*
X0145194Y0102168D01*
X0145220Y0102113D01*
X0145242Y0102057D01*
X0145261Y0101999D01*
X0145277Y0101940D01*
X0145288Y0101881D01*
X0145297Y0101821D01*
X0145301Y0101760D01*
X0145302Y0101700D01*
X0145299Y0101639D01*
X0145293Y0101579D01*
X0145283Y0101519D01*
X0145283Y0096007D02*
X0145293Y0095947D01*
X0145299Y0095887D01*
X0145302Y0095826D01*
X0145301Y0095766D01*
X0145297Y0095705D01*
X0145288Y0095645D01*
X0145277Y0095586D01*
X0145261Y0095527D01*
X0145242Y0095469D01*
X0145220Y0095413D01*
X0145194Y0095358D01*
X0145165Y0095305D01*
X0145133Y0095253D01*
X0145098Y0095204D01*
X0145060Y0095156D01*
X0145019Y0095112D01*
X0144976Y0095069D01*
X0144930Y0095030D01*
X0144882Y0094993D01*
X0144831Y0094959D01*
X0144779Y0094929D01*
X0144725Y0094901D01*
X0144669Y0094877D01*
X0144612Y0094856D01*
X0144554Y0094839D01*
X0144495Y0094825D01*
X0144495Y0094826D02*
X0138196Y0094826D01*
X0138195Y0094825D02*
X0138136Y0094839D01*
X0138078Y0094856D01*
X0138021Y0094877D01*
X0137965Y0094901D01*
X0137911Y0094929D01*
X0137859Y0094959D01*
X0137808Y0094993D01*
X0137760Y0095030D01*
X0137714Y0095069D01*
X0137671Y0095112D01*
X0137630Y0095156D01*
X0137592Y0095204D01*
X0137557Y0095253D01*
X0137525Y0095305D01*
X0137496Y0095358D01*
X0137470Y0095413D01*
X0137448Y0095469D01*
X0137429Y0095527D01*
X0137413Y0095586D01*
X0137402Y0095645D01*
X0137393Y0095705D01*
X0137389Y0095766D01*
X0137388Y0095826D01*
X0137391Y0095887D01*
X0137397Y0095947D01*
X0137407Y0096007D01*
X0137407Y0101519D02*
X0137397Y0101579D01*
X0137391Y0101639D01*
X0137388Y0101700D01*
X0137389Y0101760D01*
X0137393Y0101821D01*
X0137402Y0101881D01*
X0137413Y0101940D01*
X0137429Y0101999D01*
X0137448Y0102057D01*
X0137470Y0102113D01*
X0137496Y0102168D01*
X0137525Y0102221D01*
X0137557Y0102273D01*
X0137592Y0102322D01*
X0137630Y0102370D01*
X0137671Y0102414D01*
X0137714Y0102457D01*
X0137760Y0102496D01*
X0137808Y0102533D01*
X0137859Y0102567D01*
X0137911Y0102597D01*
X0137965Y0102625D01*
X0138021Y0102649D01*
X0138078Y0102670D01*
X0138136Y0102687D01*
X0138195Y0102701D01*
D16*
X0172313Y0179307D02*
X0172829Y0179466D01*
X0172906Y0179228D01*
X0172989Y0178992D01*
X0173078Y0178758D01*
X0173173Y0178526D01*
X0173273Y0178297D01*
X0173379Y0178070D01*
X0173491Y0177846D01*
X0173608Y0177624D01*
X0173730Y0177406D01*
X0173857Y0177191D01*
X0173990Y0176978D01*
X0174128Y0176769D01*
X0174271Y0176564D01*
X0174419Y0176362D01*
X0174572Y0176164D01*
X0174730Y0175970D01*
X0174892Y0175779D01*
X0175059Y0175593D01*
X0175231Y0175410D01*
X0175407Y0175232D01*
X0175587Y0175058D01*
X0175771Y0174889D01*
X0175960Y0174725D01*
X0176152Y0174565D01*
X0176349Y0174409D01*
X0176549Y0174259D01*
X0176753Y0174113D01*
X0176960Y0173973D01*
X0177170Y0173838D01*
X0177384Y0173708D01*
X0177601Y0173583D01*
X0177821Y0173463D01*
X0178044Y0173349D01*
X0178270Y0173240D01*
X0178498Y0173137D01*
X0178728Y0173040D01*
X0178961Y0172948D01*
X0179196Y0172862D01*
X0179433Y0172782D01*
X0179672Y0172707D01*
X0179913Y0172639D01*
X0180155Y0172576D01*
X0180399Y0172519D01*
X0180644Y0172469D01*
X0180891Y0172424D01*
X0181138Y0172385D01*
X0181386Y0172353D01*
X0181635Y0172326D01*
X0181885Y0172306D01*
X0182134Y0172291D01*
X0182385Y0172283D01*
X0182635Y0172281D01*
X0182885Y0172285D01*
X0183135Y0172295D01*
X0183385Y0172312D01*
X0183635Y0172334D01*
X0183883Y0172362D01*
X0184131Y0172397D01*
X0184378Y0172438D01*
X0184624Y0172484D01*
X0184869Y0172537D01*
X0185112Y0172596D01*
X0185354Y0172660D01*
X0185594Y0172731D01*
X0185833Y0172807D01*
X0186069Y0172889D01*
X0186304Y0172977D01*
X0186536Y0173070D01*
X0186765Y0173170D01*
X0186993Y0173275D01*
X0187217Y0173385D01*
X0187439Y0173501D01*
X0187658Y0173622D01*
X0187874Y0173749D01*
X0188087Y0173880D01*
X0188297Y0174017D01*
X0188503Y0174159D01*
X0188705Y0174306D01*
X0188904Y0174458D01*
X0189238Y0174035D01*
X0189239Y0174034D01*
X0189029Y0173874D01*
X0188816Y0173719D01*
X0188599Y0173570D01*
X0188378Y0173426D01*
X0188154Y0173287D01*
X0187927Y0173153D01*
X0187696Y0173026D01*
X0187463Y0172904D01*
X0187226Y0172788D01*
X0186987Y0172677D01*
X0186745Y0172573D01*
X0186500Y0172474D01*
X0186254Y0172381D01*
X0186005Y0172295D01*
X0185753Y0172215D01*
X0185501Y0172140D01*
X0185246Y0172072D01*
X0184990Y0172011D01*
X0184732Y0171955D01*
X0184473Y0171906D01*
X0184213Y0171863D01*
X0183952Y0171827D01*
X0183690Y0171797D01*
X0183428Y0171773D01*
X0183164Y0171756D01*
X0182901Y0171745D01*
X0182638Y0171741D01*
X0182374Y0171743D01*
X0182111Y0171752D01*
X0181847Y0171767D01*
X0181585Y0171788D01*
X0181323Y0171816D01*
X0181061Y0171851D01*
X0180801Y0171891D01*
X0180542Y0171939D01*
X0180283Y0171992D01*
X0180027Y0172052D01*
X0179772Y0172118D01*
X0179518Y0172190D01*
X0179266Y0172268D01*
X0179017Y0172353D01*
X0178769Y0172443D01*
X0178524Y0172540D01*
X0178281Y0172643D01*
X0178041Y0172751D01*
X0177804Y0172866D01*
X0177569Y0172986D01*
X0177337Y0173112D01*
X0177109Y0173243D01*
X0176884Y0173380D01*
X0176662Y0173523D01*
X0176444Y0173670D01*
X0176229Y0173824D01*
X0176019Y0173982D01*
X0175812Y0174145D01*
X0175609Y0174314D01*
X0175411Y0174487D01*
X0175216Y0174666D01*
X0175027Y0174849D01*
X0174841Y0175036D01*
X0174661Y0175228D01*
X0174485Y0175424D01*
X0174314Y0175625D01*
X0174148Y0175830D01*
X0173987Y0176038D01*
X0173831Y0176251D01*
X0173681Y0176467D01*
X0173535Y0176687D01*
X0173396Y0176911D01*
X0173261Y0177137D01*
X0173133Y0177368D01*
X0173010Y0177601D01*
X0172892Y0177837D01*
X0172781Y0178075D01*
X0172675Y0178317D01*
X0172575Y0178561D01*
X0172482Y0178807D01*
X0172394Y0179056D01*
X0172313Y0179307D01*
X0172366Y0179323D01*
X0172447Y0179074D01*
X0172534Y0178826D01*
X0172628Y0178581D01*
X0172727Y0178339D01*
X0172832Y0178098D01*
X0172943Y0177861D01*
X0173059Y0177626D01*
X0173182Y0177394D01*
X0173310Y0177165D01*
X0173443Y0176940D01*
X0173583Y0176717D01*
X0173727Y0176499D01*
X0173877Y0176283D01*
X0174032Y0176072D01*
X0174192Y0175864D01*
X0174357Y0175661D01*
X0174527Y0175461D01*
X0174702Y0175266D01*
X0174882Y0175075D01*
X0175066Y0174888D01*
X0175255Y0174706D01*
X0175448Y0174529D01*
X0175646Y0174357D01*
X0175847Y0174189D01*
X0176053Y0174026D01*
X0176262Y0173869D01*
X0176476Y0173716D01*
X0176693Y0173569D01*
X0176913Y0173428D01*
X0177137Y0173291D01*
X0177365Y0173160D01*
X0177595Y0173035D01*
X0177828Y0172916D01*
X0178065Y0172802D01*
X0178304Y0172694D01*
X0178545Y0172592D01*
X0178789Y0172496D01*
X0179035Y0172406D01*
X0179284Y0172322D01*
X0179534Y0172244D01*
X0179786Y0172172D01*
X0180040Y0172106D01*
X0180295Y0172047D01*
X0180552Y0171994D01*
X0180810Y0171947D01*
X0181069Y0171906D01*
X0181329Y0171872D01*
X0181590Y0171844D01*
X0181851Y0171823D01*
X0182113Y0171808D01*
X0182375Y0171799D01*
X0182637Y0171797D01*
X0182899Y0171801D01*
X0183161Y0171812D01*
X0183423Y0171829D01*
X0183684Y0171853D01*
X0183945Y0171882D01*
X0184204Y0171919D01*
X0184463Y0171961D01*
X0184721Y0172010D01*
X0184977Y0172065D01*
X0185232Y0172127D01*
X0185485Y0172194D01*
X0185737Y0172268D01*
X0185987Y0172348D01*
X0186234Y0172434D01*
X0186480Y0172526D01*
X0186723Y0172624D01*
X0186964Y0172728D01*
X0187202Y0172838D01*
X0187437Y0172954D01*
X0187670Y0173075D01*
X0187899Y0173202D01*
X0188125Y0173335D01*
X0188348Y0173473D01*
X0188568Y0173616D01*
X0188783Y0173765D01*
X0188996Y0173919D01*
X0189204Y0174078D01*
X0189169Y0174122D01*
X0188962Y0173964D01*
X0188751Y0173811D01*
X0188536Y0173663D01*
X0188318Y0173520D01*
X0188096Y0173382D01*
X0187871Y0173251D01*
X0187643Y0173124D01*
X0187412Y0173004D01*
X0187178Y0172889D01*
X0186941Y0172779D01*
X0186701Y0172676D01*
X0186459Y0172578D01*
X0186215Y0172487D01*
X0185969Y0172401D01*
X0185720Y0172322D01*
X0185470Y0172248D01*
X0185218Y0172181D01*
X0184965Y0172120D01*
X0184710Y0172065D01*
X0184453Y0172016D01*
X0184196Y0171974D01*
X0183938Y0171938D01*
X0183679Y0171908D01*
X0183419Y0171885D01*
X0183158Y0171868D01*
X0182898Y0171857D01*
X0182637Y0171853D01*
X0182376Y0171855D01*
X0182116Y0171864D01*
X0181855Y0171879D01*
X0181595Y0171900D01*
X0181336Y0171928D01*
X0181077Y0171962D01*
X0180820Y0172002D01*
X0180563Y0172049D01*
X0180307Y0172101D01*
X0180053Y0172160D01*
X0179801Y0172226D01*
X0179550Y0172297D01*
X0179301Y0172375D01*
X0179054Y0172458D01*
X0178809Y0172548D01*
X0178566Y0172644D01*
X0178326Y0172745D01*
X0178088Y0172853D01*
X0177853Y0172966D01*
X0177621Y0173085D01*
X0177392Y0173209D01*
X0177166Y0173339D01*
X0176943Y0173475D01*
X0176724Y0173616D01*
X0176508Y0173762D01*
X0176296Y0173914D01*
X0176087Y0174071D01*
X0175882Y0174232D01*
X0175682Y0174399D01*
X0175485Y0174571D01*
X0175293Y0174747D01*
X0175106Y0174928D01*
X0174922Y0175114D01*
X0174743Y0175304D01*
X0174569Y0175498D01*
X0174400Y0175696D01*
X0174236Y0175899D01*
X0174077Y0176106D01*
X0173922Y0176316D01*
X0173773Y0176530D01*
X0173630Y0176748D01*
X0173491Y0176969D01*
X0173358Y0177193D01*
X0173231Y0177421D01*
X0173109Y0177651D01*
X0172993Y0177885D01*
X0172883Y0178121D01*
X0172778Y0178360D01*
X0172680Y0178602D01*
X0172587Y0178846D01*
X0172500Y0179092D01*
X0172420Y0179340D01*
X0172473Y0179356D01*
X0172553Y0179109D01*
X0172640Y0178865D01*
X0172732Y0178622D01*
X0172830Y0178382D01*
X0172934Y0178144D01*
X0173044Y0177909D01*
X0173159Y0177677D01*
X0173280Y0177447D01*
X0173407Y0177221D01*
X0173539Y0176998D01*
X0173677Y0176778D01*
X0173820Y0176561D01*
X0173968Y0176348D01*
X0174121Y0176139D01*
X0174280Y0175934D01*
X0174443Y0175732D01*
X0174612Y0175535D01*
X0174785Y0175341D01*
X0174963Y0175152D01*
X0175145Y0174968D01*
X0175332Y0174788D01*
X0175523Y0174612D01*
X0175718Y0174442D01*
X0175918Y0174276D01*
X0176121Y0174115D01*
X0176329Y0173959D01*
X0176540Y0173808D01*
X0176755Y0173663D01*
X0176973Y0173522D01*
X0177195Y0173388D01*
X0177419Y0173258D01*
X0177647Y0173134D01*
X0177878Y0173016D01*
X0178112Y0172903D01*
X0178349Y0172797D01*
X0178588Y0172696D01*
X0178829Y0172600D01*
X0179073Y0172511D01*
X0179318Y0172428D01*
X0179566Y0172351D01*
X0179816Y0172280D01*
X0180067Y0172215D01*
X0180319Y0172156D01*
X0180574Y0172103D01*
X0180829Y0172057D01*
X0181085Y0172017D01*
X0181342Y0171983D01*
X0181600Y0171956D01*
X0181859Y0171935D01*
X0182118Y0171920D01*
X0182377Y0171911D01*
X0182637Y0171909D01*
X0182896Y0171913D01*
X0183155Y0171924D01*
X0183414Y0171941D01*
X0183673Y0171964D01*
X0183931Y0171993D01*
X0184188Y0172029D01*
X0184444Y0172071D01*
X0184698Y0172120D01*
X0184952Y0172174D01*
X0185204Y0172235D01*
X0185455Y0172302D01*
X0185704Y0172375D01*
X0185951Y0172454D01*
X0186196Y0172539D01*
X0186439Y0172630D01*
X0186680Y0172727D01*
X0186918Y0172830D01*
X0187153Y0172939D01*
X0187386Y0173053D01*
X0187616Y0173174D01*
X0187843Y0173299D01*
X0188067Y0173430D01*
X0188288Y0173567D01*
X0188505Y0173709D01*
X0188719Y0173856D01*
X0188928Y0174009D01*
X0189135Y0174166D01*
X0189100Y0174210D01*
X0188895Y0174053D01*
X0188686Y0173902D01*
X0188474Y0173755D01*
X0188258Y0173614D01*
X0188038Y0173478D01*
X0187815Y0173348D01*
X0187590Y0173223D01*
X0187361Y0173103D01*
X0187129Y0172990D01*
X0186895Y0172881D01*
X0186658Y0172779D01*
X0186419Y0172683D01*
X0186177Y0172592D01*
X0185933Y0172507D01*
X0185687Y0172429D01*
X0185440Y0172356D01*
X0185190Y0172289D01*
X0184940Y0172229D01*
X0184687Y0172175D01*
X0184434Y0172127D01*
X0184179Y0172085D01*
X0183923Y0172049D01*
X0183667Y0172020D01*
X0183410Y0171997D01*
X0183152Y0171980D01*
X0182895Y0171969D01*
X0182637Y0171965D01*
X0182378Y0171967D01*
X0182120Y0171976D01*
X0181863Y0171990D01*
X0181606Y0172012D01*
X0181349Y0172039D01*
X0181093Y0172072D01*
X0180838Y0172112D01*
X0180584Y0172158D01*
X0180331Y0172211D01*
X0180080Y0172269D01*
X0179830Y0172334D01*
X0179582Y0172405D01*
X0179336Y0172481D01*
X0179091Y0172564D01*
X0178849Y0172653D01*
X0178609Y0172747D01*
X0178371Y0172848D01*
X0178136Y0172954D01*
X0177903Y0173066D01*
X0177674Y0173184D01*
X0177447Y0173307D01*
X0177223Y0173436D01*
X0177003Y0173570D01*
X0176786Y0173709D01*
X0176572Y0173854D01*
X0176362Y0174004D01*
X0176156Y0174159D01*
X0175953Y0174319D01*
X0175755Y0174484D01*
X0175560Y0174654D01*
X0175370Y0174829D01*
X0175184Y0175008D01*
X0175003Y0175191D01*
X0174826Y0175379D01*
X0174654Y0175571D01*
X0174486Y0175768D01*
X0174324Y0175968D01*
X0174166Y0176173D01*
X0174014Y0176381D01*
X0173866Y0176593D01*
X0173724Y0176808D01*
X0173587Y0177027D01*
X0173456Y0177249D01*
X0173330Y0177474D01*
X0173209Y0177702D01*
X0173094Y0177933D01*
X0172985Y0178167D01*
X0172882Y0178404D01*
X0172784Y0178643D01*
X0172692Y0178884D01*
X0172607Y0179127D01*
X0172527Y0179373D01*
X0172580Y0179389D01*
X0172660Y0179145D01*
X0172745Y0178903D01*
X0172836Y0178663D01*
X0172933Y0178425D01*
X0173036Y0178190D01*
X0173145Y0177958D01*
X0173259Y0177728D01*
X0173379Y0177501D01*
X0173504Y0177277D01*
X0173635Y0177056D01*
X0173771Y0176838D01*
X0173913Y0176624D01*
X0174059Y0176413D01*
X0174211Y0176206D01*
X0174368Y0176003D01*
X0174530Y0175804D01*
X0174696Y0175608D01*
X0174867Y0175417D01*
X0175043Y0175230D01*
X0175224Y0175047D01*
X0175409Y0174869D01*
X0175598Y0174696D01*
X0175791Y0174527D01*
X0175988Y0174363D01*
X0176190Y0174204D01*
X0176395Y0174049D01*
X0176604Y0173900D01*
X0176816Y0173756D01*
X0177032Y0173617D01*
X0177252Y0173484D01*
X0177474Y0173356D01*
X0177700Y0173233D01*
X0177928Y0173116D01*
X0178159Y0173005D01*
X0178393Y0172899D01*
X0178630Y0172799D01*
X0178869Y0172705D01*
X0179110Y0172617D01*
X0179353Y0172535D01*
X0179598Y0172458D01*
X0179845Y0172388D01*
X0180093Y0172324D01*
X0180343Y0172265D01*
X0180595Y0172213D01*
X0180847Y0172168D01*
X0181101Y0172128D01*
X0181356Y0172094D01*
X0181611Y0172067D01*
X0181867Y0172046D01*
X0182123Y0172032D01*
X0182380Y0172023D01*
X0182636Y0172021D01*
X0182893Y0172025D01*
X0183149Y0172036D01*
X0183406Y0172052D01*
X0183661Y0172075D01*
X0183916Y0172105D01*
X0184171Y0172140D01*
X0184424Y0172182D01*
X0184676Y0172229D01*
X0184927Y0172283D01*
X0185177Y0172344D01*
X0185425Y0172410D01*
X0185671Y0172482D01*
X0185915Y0172560D01*
X0186158Y0172645D01*
X0186398Y0172735D01*
X0186636Y0172831D01*
X0186872Y0172933D01*
X0187105Y0173040D01*
X0187336Y0173153D01*
X0187563Y0173272D01*
X0187788Y0173396D01*
X0188009Y0173526D01*
X0188227Y0173661D01*
X0188442Y0173802D01*
X0188654Y0173947D01*
X0188861Y0174098D01*
X0189065Y0174254D01*
X0189031Y0174298D01*
X0188828Y0174143D01*
X0188621Y0173993D01*
X0188411Y0173848D01*
X0188197Y0173709D01*
X0187980Y0173574D01*
X0187760Y0173445D01*
X0187536Y0173321D01*
X0187310Y0173203D01*
X0187081Y0173091D01*
X0186849Y0172984D01*
X0186615Y0172882D01*
X0186378Y0172787D01*
X0186139Y0172697D01*
X0185898Y0172613D01*
X0185654Y0172536D01*
X0185409Y0172464D01*
X0185163Y0172398D01*
X0184914Y0172338D01*
X0184665Y0172284D01*
X0184414Y0172237D01*
X0184162Y0172195D01*
X0183909Y0172160D01*
X0183655Y0172131D01*
X0183401Y0172108D01*
X0183146Y0172092D01*
X0182891Y0172081D01*
X0182636Y0172077D01*
X0182381Y0172079D01*
X0182125Y0172088D01*
X0181871Y0172102D01*
X0181616Y0172123D01*
X0181362Y0172150D01*
X0181109Y0172183D01*
X0180857Y0172223D01*
X0180606Y0172268D01*
X0180355Y0172320D01*
X0180107Y0172378D01*
X0179860Y0172442D01*
X0179614Y0172512D01*
X0179370Y0172588D01*
X0179128Y0172670D01*
X0178889Y0172757D01*
X0178651Y0172851D01*
X0178416Y0172950D01*
X0178183Y0173056D01*
X0177953Y0173166D01*
X0177726Y0173283D01*
X0177502Y0173405D01*
X0177280Y0173532D01*
X0177062Y0173665D01*
X0176847Y0173803D01*
X0176636Y0173946D01*
X0176428Y0174094D01*
X0176224Y0174248D01*
X0176024Y0174406D01*
X0175827Y0174569D01*
X0175635Y0174737D01*
X0175447Y0174910D01*
X0175263Y0175087D01*
X0175084Y0175269D01*
X0174909Y0175455D01*
X0174738Y0175645D01*
X0174573Y0175839D01*
X0174412Y0176038D01*
X0174256Y0176240D01*
X0174105Y0176446D01*
X0173959Y0176655D01*
X0173818Y0176868D01*
X0173683Y0177085D01*
X0173553Y0177305D01*
X0173428Y0177527D01*
X0173309Y0177753D01*
X0173195Y0177982D01*
X0173087Y0178213D01*
X0172985Y0178447D01*
X0172888Y0178683D01*
X0172798Y0178922D01*
X0172713Y0179163D01*
X0172634Y0179406D01*
X0172687Y0179422D01*
X0172766Y0179181D01*
X0172850Y0178941D01*
X0172941Y0178704D01*
X0173037Y0178469D01*
X0173138Y0178236D01*
X0173246Y0178006D01*
X0173359Y0177779D01*
X0173477Y0177554D01*
X0173601Y0177332D01*
X0173731Y0177114D01*
X0173866Y0176899D01*
X0174005Y0176687D01*
X0174151Y0176478D01*
X0174301Y0176273D01*
X0174456Y0176072D01*
X0174616Y0175875D01*
X0174781Y0175682D01*
X0174950Y0175493D01*
X0175124Y0175308D01*
X0175303Y0175127D01*
X0175485Y0174951D01*
X0175673Y0174779D01*
X0175864Y0174612D01*
X0176059Y0174450D01*
X0176258Y0174292D01*
X0176461Y0174140D01*
X0176668Y0173992D01*
X0176878Y0173850D01*
X0177092Y0173712D01*
X0177309Y0173580D01*
X0177529Y0173454D01*
X0177752Y0173332D01*
X0177978Y0173217D01*
X0178207Y0173106D01*
X0178438Y0173002D01*
X0178672Y0172903D01*
X0178909Y0172810D01*
X0179147Y0172723D01*
X0179388Y0172641D01*
X0179630Y0172566D01*
X0179874Y0172496D01*
X0180120Y0172432D01*
X0180367Y0172375D01*
X0180616Y0172323D01*
X0180866Y0172278D01*
X0181117Y0172239D01*
X0181369Y0172206D01*
X0181621Y0172179D01*
X0181874Y0172158D01*
X0182128Y0172144D01*
X0182382Y0172135D01*
X0182636Y0172133D01*
X0182890Y0172137D01*
X0183143Y0172147D01*
X0183397Y0172164D01*
X0183650Y0172187D01*
X0183902Y0172216D01*
X0184154Y0172251D01*
X0184404Y0172292D01*
X0184654Y0172339D01*
X0184902Y0172393D01*
X0185149Y0172452D01*
X0185394Y0172518D01*
X0185638Y0172589D01*
X0185880Y0172667D01*
X0186120Y0172750D01*
X0186357Y0172839D01*
X0186593Y0172934D01*
X0186826Y0173035D01*
X0187057Y0173141D01*
X0187285Y0173253D01*
X0187510Y0173371D01*
X0187732Y0173494D01*
X0187951Y0173622D01*
X0188167Y0173756D01*
X0188380Y0173895D01*
X0188589Y0174039D01*
X0188794Y0174188D01*
X0188996Y0174342D01*
X0188961Y0174386D01*
X0188761Y0174233D01*
X0188556Y0174084D01*
X0188348Y0173941D01*
X0188137Y0173803D01*
X0187922Y0173670D01*
X0187704Y0173542D01*
X0187483Y0173420D01*
X0187259Y0173303D01*
X0187033Y0173192D01*
X0186803Y0173086D01*
X0186571Y0172986D01*
X0186337Y0172891D01*
X0186101Y0172803D01*
X0185862Y0172720D01*
X0185621Y0172643D01*
X0185379Y0172572D01*
X0185135Y0172506D01*
X0184889Y0172447D01*
X0184642Y0172394D01*
X0184394Y0172347D01*
X0184145Y0172306D01*
X0183895Y0172271D01*
X0183644Y0172242D01*
X0183392Y0172220D01*
X0183140Y0172203D01*
X0182888Y0172193D01*
X0182635Y0172189D01*
X0182383Y0172191D01*
X0182130Y0172199D01*
X0181878Y0172214D01*
X0181626Y0172235D01*
X0181375Y0172261D01*
X0181125Y0172294D01*
X0180875Y0172333D01*
X0180627Y0172378D01*
X0180379Y0172430D01*
X0180133Y0172487D01*
X0179889Y0172550D01*
X0179646Y0172619D01*
X0179405Y0172694D01*
X0179166Y0172775D01*
X0178928Y0172862D01*
X0178693Y0172955D01*
X0178461Y0173053D01*
X0178231Y0173157D01*
X0178003Y0173267D01*
X0177778Y0173382D01*
X0177556Y0173502D01*
X0177337Y0173628D01*
X0177122Y0173760D01*
X0176909Y0173896D01*
X0176700Y0174038D01*
X0176494Y0174185D01*
X0176293Y0174336D01*
X0176094Y0174493D01*
X0175900Y0174655D01*
X0175710Y0174821D01*
X0175524Y0174992D01*
X0175342Y0175167D01*
X0175164Y0175346D01*
X0174991Y0175530D01*
X0174823Y0175719D01*
X0174659Y0175911D01*
X0174500Y0176107D01*
X0174346Y0176307D01*
X0174196Y0176511D01*
X0174052Y0176718D01*
X0173913Y0176929D01*
X0173779Y0177143D01*
X0173650Y0177360D01*
X0173527Y0177581D01*
X0173409Y0177804D01*
X0173296Y0178030D01*
X0173189Y0178259D01*
X0173088Y0178490D01*
X0172993Y0178724D01*
X0172903Y0178960D01*
X0172819Y0179199D01*
X0172741Y0179439D01*
X0172794Y0179455D01*
X0172872Y0179216D01*
X0172956Y0178979D01*
X0173045Y0178745D01*
X0173140Y0178512D01*
X0173241Y0178282D01*
X0173347Y0178054D01*
X0173459Y0177829D01*
X0173576Y0177607D01*
X0173699Y0177388D01*
X0173827Y0177172D01*
X0173960Y0176959D01*
X0174098Y0176749D01*
X0174242Y0176543D01*
X0174390Y0176341D01*
X0174544Y0176142D01*
X0174702Y0175947D01*
X0174865Y0175755D01*
X0175033Y0175568D01*
X0175205Y0175385D01*
X0175381Y0175207D01*
X0175562Y0175032D01*
X0175747Y0174862D01*
X0175937Y0174697D01*
X0176130Y0174537D01*
X0176327Y0174381D01*
X0176528Y0174230D01*
X0176732Y0174084D01*
X0176940Y0173943D01*
X0177151Y0173807D01*
X0177366Y0173677D01*
X0177584Y0173551D01*
X0177804Y0173431D01*
X0178028Y0173317D01*
X0178254Y0173208D01*
X0178483Y0173104D01*
X0178715Y0173007D01*
X0178948Y0172915D01*
X0179184Y0172828D01*
X0179422Y0172748D01*
X0179662Y0172673D01*
X0179904Y0172604D01*
X0180147Y0172541D01*
X0180392Y0172484D01*
X0180637Y0172433D01*
X0180885Y0172388D01*
X0181133Y0172350D01*
X0181382Y0172317D01*
X0181632Y0172290D01*
X0181882Y0172270D01*
X0182133Y0172255D01*
X0182384Y0172247D01*
X0182635Y0172245D01*
X0182886Y0172249D01*
X0183137Y0172259D01*
X0183388Y0172276D01*
X0183638Y0172298D01*
X0183888Y0172327D01*
X0184137Y0172361D01*
X0184384Y0172402D01*
X0184631Y0172449D01*
X0184877Y0172502D01*
X0185121Y0172561D01*
X0185364Y0172625D01*
X0185605Y0172696D01*
X0185844Y0172773D01*
X0186081Y0172855D01*
X0186317Y0172943D01*
X0186550Y0173037D01*
X0186780Y0173137D01*
X0187008Y0173242D01*
X0187234Y0173353D01*
X0187457Y0173469D01*
X0187676Y0173591D01*
X0187893Y0173718D01*
X0188107Y0173850D01*
X0188317Y0173987D01*
X0188524Y0174130D01*
X0188727Y0174278D01*
X0188927Y0174430D01*
X0189238Y0190991D02*
X0188904Y0190567D01*
X0188904Y0190568D02*
X0188705Y0190720D01*
X0188503Y0190867D01*
X0188297Y0191009D01*
X0188087Y0191146D01*
X0187874Y0191277D01*
X0187658Y0191404D01*
X0187439Y0191525D01*
X0187217Y0191641D01*
X0186993Y0191751D01*
X0186765Y0191856D01*
X0186536Y0191956D01*
X0186304Y0192049D01*
X0186069Y0192137D01*
X0185833Y0192219D01*
X0185594Y0192295D01*
X0185354Y0192366D01*
X0185112Y0192430D01*
X0184869Y0192489D01*
X0184624Y0192542D01*
X0184378Y0192588D01*
X0184131Y0192629D01*
X0183883Y0192664D01*
X0183635Y0192692D01*
X0183385Y0192714D01*
X0183135Y0192731D01*
X0182885Y0192741D01*
X0182635Y0192745D01*
X0182385Y0192743D01*
X0182134Y0192735D01*
X0181885Y0192720D01*
X0181635Y0192700D01*
X0181386Y0192673D01*
X0181138Y0192641D01*
X0180891Y0192602D01*
X0180644Y0192557D01*
X0180399Y0192507D01*
X0180155Y0192450D01*
X0179913Y0192387D01*
X0179672Y0192319D01*
X0179433Y0192244D01*
X0179196Y0192164D01*
X0178961Y0192078D01*
X0178728Y0191986D01*
X0178498Y0191889D01*
X0178270Y0191786D01*
X0178044Y0191677D01*
X0177821Y0191563D01*
X0177601Y0191443D01*
X0177384Y0191318D01*
X0177170Y0191188D01*
X0176960Y0191053D01*
X0176753Y0190913D01*
X0176549Y0190767D01*
X0176349Y0190617D01*
X0176152Y0190461D01*
X0175960Y0190301D01*
X0175771Y0190137D01*
X0175587Y0189968D01*
X0175407Y0189794D01*
X0175231Y0189616D01*
X0175059Y0189433D01*
X0174892Y0189247D01*
X0174730Y0189056D01*
X0174572Y0188862D01*
X0174419Y0188664D01*
X0174271Y0188462D01*
X0174128Y0188257D01*
X0173990Y0188048D01*
X0173857Y0187835D01*
X0173730Y0187620D01*
X0173608Y0187402D01*
X0173491Y0187180D01*
X0173379Y0186956D01*
X0173273Y0186729D01*
X0173173Y0186500D01*
X0173078Y0186268D01*
X0172989Y0186034D01*
X0172906Y0185798D01*
X0172829Y0185560D01*
X0172313Y0185719D01*
X0172394Y0185970D01*
X0172482Y0186219D01*
X0172575Y0186465D01*
X0172675Y0186709D01*
X0172781Y0186951D01*
X0172892Y0187189D01*
X0173010Y0187425D01*
X0173133Y0187658D01*
X0173261Y0187889D01*
X0173396Y0188115D01*
X0173535Y0188339D01*
X0173681Y0188559D01*
X0173831Y0188775D01*
X0173987Y0188988D01*
X0174148Y0189196D01*
X0174314Y0189401D01*
X0174485Y0189602D01*
X0174661Y0189798D01*
X0174841Y0189990D01*
X0175027Y0190177D01*
X0175216Y0190360D01*
X0175411Y0190539D01*
X0175609Y0190712D01*
X0175812Y0190881D01*
X0176019Y0191044D01*
X0176229Y0191202D01*
X0176444Y0191356D01*
X0176662Y0191503D01*
X0176884Y0191646D01*
X0177109Y0191783D01*
X0177337Y0191914D01*
X0177569Y0192040D01*
X0177804Y0192160D01*
X0178041Y0192275D01*
X0178281Y0192383D01*
X0178524Y0192486D01*
X0178769Y0192583D01*
X0179017Y0192673D01*
X0179266Y0192758D01*
X0179518Y0192836D01*
X0179772Y0192908D01*
X0180027Y0192974D01*
X0180283Y0193034D01*
X0180542Y0193087D01*
X0180801Y0193135D01*
X0181061Y0193175D01*
X0181323Y0193210D01*
X0181585Y0193238D01*
X0181847Y0193259D01*
X0182111Y0193274D01*
X0182374Y0193283D01*
X0182638Y0193285D01*
X0182901Y0193281D01*
X0183164Y0193270D01*
X0183428Y0193253D01*
X0183690Y0193229D01*
X0183952Y0193199D01*
X0184213Y0193163D01*
X0184473Y0193120D01*
X0184732Y0193071D01*
X0184990Y0193015D01*
X0185246Y0192954D01*
X0185501Y0192886D01*
X0185753Y0192811D01*
X0186005Y0192731D01*
X0186254Y0192645D01*
X0186500Y0192552D01*
X0186745Y0192453D01*
X0186987Y0192349D01*
X0187226Y0192238D01*
X0187463Y0192122D01*
X0187696Y0192000D01*
X0187927Y0191873D01*
X0188154Y0191739D01*
X0188378Y0191600D01*
X0188599Y0191456D01*
X0188816Y0191307D01*
X0189029Y0191152D01*
X0189239Y0190992D01*
X0189204Y0190948D01*
X0188996Y0191107D01*
X0188783Y0191261D01*
X0188568Y0191410D01*
X0188348Y0191553D01*
X0188125Y0191691D01*
X0187899Y0191824D01*
X0187670Y0191951D01*
X0187437Y0192072D01*
X0187202Y0192188D01*
X0186964Y0192298D01*
X0186723Y0192402D01*
X0186480Y0192500D01*
X0186234Y0192592D01*
X0185987Y0192678D01*
X0185737Y0192758D01*
X0185485Y0192832D01*
X0185232Y0192899D01*
X0184977Y0192961D01*
X0184721Y0193016D01*
X0184463Y0193065D01*
X0184204Y0193107D01*
X0183945Y0193144D01*
X0183684Y0193173D01*
X0183423Y0193197D01*
X0183161Y0193214D01*
X0182899Y0193225D01*
X0182637Y0193229D01*
X0182375Y0193227D01*
X0182113Y0193218D01*
X0181851Y0193203D01*
X0181590Y0193182D01*
X0181329Y0193154D01*
X0181069Y0193120D01*
X0180810Y0193079D01*
X0180552Y0193032D01*
X0180295Y0192979D01*
X0180040Y0192920D01*
X0179786Y0192854D01*
X0179534Y0192782D01*
X0179284Y0192704D01*
X0179035Y0192620D01*
X0178789Y0192530D01*
X0178545Y0192434D01*
X0178304Y0192332D01*
X0178065Y0192224D01*
X0177828Y0192110D01*
X0177595Y0191991D01*
X0177365Y0191866D01*
X0177137Y0191735D01*
X0176913Y0191598D01*
X0176693Y0191457D01*
X0176476Y0191310D01*
X0176262Y0191157D01*
X0176053Y0191000D01*
X0175847Y0190837D01*
X0175646Y0190669D01*
X0175448Y0190497D01*
X0175255Y0190320D01*
X0175066Y0190138D01*
X0174882Y0189951D01*
X0174702Y0189760D01*
X0174527Y0189565D01*
X0174357Y0189365D01*
X0174192Y0189162D01*
X0174032Y0188954D01*
X0173877Y0188743D01*
X0173727Y0188527D01*
X0173583Y0188309D01*
X0173443Y0188086D01*
X0173310Y0187861D01*
X0173182Y0187632D01*
X0173059Y0187400D01*
X0172943Y0187165D01*
X0172832Y0186928D01*
X0172727Y0186687D01*
X0172628Y0186445D01*
X0172534Y0186200D01*
X0172447Y0185952D01*
X0172366Y0185703D01*
X0172420Y0185686D01*
X0172500Y0185934D01*
X0172587Y0186180D01*
X0172680Y0186424D01*
X0172778Y0186666D01*
X0172883Y0186905D01*
X0172993Y0187141D01*
X0173109Y0187375D01*
X0173231Y0187605D01*
X0173358Y0187833D01*
X0173491Y0188057D01*
X0173630Y0188278D01*
X0173773Y0188496D01*
X0173922Y0188710D01*
X0174077Y0188920D01*
X0174236Y0189127D01*
X0174400Y0189330D01*
X0174569Y0189528D01*
X0174743Y0189722D01*
X0174922Y0189912D01*
X0175106Y0190098D01*
X0175293Y0190279D01*
X0175485Y0190455D01*
X0175682Y0190627D01*
X0175882Y0190794D01*
X0176087Y0190955D01*
X0176296Y0191112D01*
X0176508Y0191264D01*
X0176724Y0191410D01*
X0176943Y0191551D01*
X0177166Y0191687D01*
X0177392Y0191817D01*
X0177621Y0191941D01*
X0177853Y0192060D01*
X0178088Y0192173D01*
X0178326Y0192281D01*
X0178566Y0192382D01*
X0178809Y0192478D01*
X0179054Y0192568D01*
X0179301Y0192651D01*
X0179550Y0192729D01*
X0179801Y0192800D01*
X0180053Y0192866D01*
X0180307Y0192925D01*
X0180563Y0192977D01*
X0180820Y0193024D01*
X0181077Y0193064D01*
X0181336Y0193098D01*
X0181595Y0193126D01*
X0181855Y0193147D01*
X0182116Y0193162D01*
X0182376Y0193171D01*
X0182637Y0193173D01*
X0182898Y0193169D01*
X0183158Y0193158D01*
X0183419Y0193141D01*
X0183679Y0193118D01*
X0183938Y0193088D01*
X0184196Y0193052D01*
X0184453Y0193010D01*
X0184710Y0192961D01*
X0184965Y0192906D01*
X0185218Y0192845D01*
X0185470Y0192778D01*
X0185720Y0192704D01*
X0185969Y0192625D01*
X0186215Y0192539D01*
X0186459Y0192448D01*
X0186701Y0192350D01*
X0186941Y0192247D01*
X0187178Y0192137D01*
X0187412Y0192022D01*
X0187643Y0191902D01*
X0187871Y0191775D01*
X0188096Y0191644D01*
X0188318Y0191506D01*
X0188536Y0191363D01*
X0188751Y0191215D01*
X0188962Y0191062D01*
X0189169Y0190904D01*
X0189135Y0190860D01*
X0188928Y0191017D01*
X0188719Y0191170D01*
X0188505Y0191317D01*
X0188288Y0191459D01*
X0188067Y0191596D01*
X0187843Y0191727D01*
X0187616Y0191852D01*
X0187386Y0191973D01*
X0187153Y0192087D01*
X0186918Y0192196D01*
X0186680Y0192299D01*
X0186439Y0192396D01*
X0186196Y0192487D01*
X0185951Y0192572D01*
X0185704Y0192651D01*
X0185455Y0192724D01*
X0185204Y0192791D01*
X0184952Y0192852D01*
X0184698Y0192906D01*
X0184444Y0192955D01*
X0184188Y0192997D01*
X0183931Y0193033D01*
X0183673Y0193062D01*
X0183414Y0193085D01*
X0183155Y0193102D01*
X0182896Y0193113D01*
X0182637Y0193117D01*
X0182377Y0193115D01*
X0182118Y0193106D01*
X0181859Y0193091D01*
X0181600Y0193070D01*
X0181342Y0193043D01*
X0181085Y0193009D01*
X0180829Y0192969D01*
X0180574Y0192923D01*
X0180319Y0192870D01*
X0180067Y0192811D01*
X0179816Y0192746D01*
X0179566Y0192675D01*
X0179318Y0192598D01*
X0179073Y0192515D01*
X0178829Y0192426D01*
X0178588Y0192330D01*
X0178349Y0192229D01*
X0178112Y0192123D01*
X0177878Y0192010D01*
X0177647Y0191892D01*
X0177419Y0191768D01*
X0177195Y0191638D01*
X0176973Y0191504D01*
X0176755Y0191363D01*
X0176540Y0191218D01*
X0176329Y0191067D01*
X0176121Y0190911D01*
X0175918Y0190750D01*
X0175718Y0190584D01*
X0175523Y0190414D01*
X0175332Y0190238D01*
X0175145Y0190058D01*
X0174963Y0189874D01*
X0174785Y0189685D01*
X0174612Y0189491D01*
X0174443Y0189294D01*
X0174280Y0189092D01*
X0174121Y0188887D01*
X0173968Y0188678D01*
X0173820Y0188465D01*
X0173677Y0188248D01*
X0173539Y0188028D01*
X0173407Y0187805D01*
X0173280Y0187579D01*
X0173159Y0187349D01*
X0173044Y0187117D01*
X0172934Y0186882D01*
X0172830Y0186644D01*
X0172732Y0186404D01*
X0172640Y0186161D01*
X0172553Y0185917D01*
X0172473Y0185670D01*
X0172527Y0185653D01*
X0172607Y0185899D01*
X0172692Y0186142D01*
X0172784Y0186383D01*
X0172882Y0186622D01*
X0172985Y0186859D01*
X0173094Y0187093D01*
X0173209Y0187324D01*
X0173330Y0187552D01*
X0173456Y0187777D01*
X0173587Y0187999D01*
X0173724Y0188218D01*
X0173866Y0188433D01*
X0174014Y0188645D01*
X0174166Y0188853D01*
X0174324Y0189058D01*
X0174486Y0189258D01*
X0174654Y0189455D01*
X0174826Y0189647D01*
X0175003Y0189835D01*
X0175184Y0190018D01*
X0175370Y0190197D01*
X0175560Y0190372D01*
X0175755Y0190542D01*
X0175953Y0190707D01*
X0176156Y0190867D01*
X0176362Y0191022D01*
X0176572Y0191172D01*
X0176786Y0191317D01*
X0177003Y0191456D01*
X0177223Y0191590D01*
X0177447Y0191719D01*
X0177674Y0191842D01*
X0177903Y0191960D01*
X0178136Y0192072D01*
X0178371Y0192178D01*
X0178609Y0192279D01*
X0178849Y0192373D01*
X0179091Y0192462D01*
X0179336Y0192545D01*
X0179582Y0192621D01*
X0179830Y0192692D01*
X0180080Y0192757D01*
X0180331Y0192815D01*
X0180584Y0192868D01*
X0180838Y0192914D01*
X0181093Y0192954D01*
X0181349Y0192987D01*
X0181606Y0193014D01*
X0181863Y0193036D01*
X0182120Y0193050D01*
X0182378Y0193059D01*
X0182637Y0193061D01*
X0182895Y0193057D01*
X0183152Y0193046D01*
X0183410Y0193029D01*
X0183667Y0193006D01*
X0183923Y0192977D01*
X0184179Y0192941D01*
X0184434Y0192899D01*
X0184687Y0192851D01*
X0184940Y0192797D01*
X0185190Y0192737D01*
X0185440Y0192670D01*
X0185687Y0192597D01*
X0185933Y0192519D01*
X0186177Y0192434D01*
X0186419Y0192343D01*
X0186658Y0192247D01*
X0186895Y0192145D01*
X0187129Y0192036D01*
X0187361Y0191923D01*
X0187590Y0191803D01*
X0187815Y0191678D01*
X0188038Y0191548D01*
X0188258Y0191412D01*
X0188474Y0191271D01*
X0188686Y0191124D01*
X0188895Y0190973D01*
X0189100Y0190816D01*
X0189065Y0190772D01*
X0188861Y0190928D01*
X0188654Y0191079D01*
X0188442Y0191224D01*
X0188227Y0191365D01*
X0188009Y0191500D01*
X0187788Y0191630D01*
X0187563Y0191754D01*
X0187336Y0191873D01*
X0187105Y0191986D01*
X0186872Y0192093D01*
X0186636Y0192195D01*
X0186398Y0192291D01*
X0186158Y0192381D01*
X0185915Y0192466D01*
X0185671Y0192544D01*
X0185425Y0192616D01*
X0185177Y0192682D01*
X0184927Y0192743D01*
X0184676Y0192797D01*
X0184424Y0192844D01*
X0184171Y0192886D01*
X0183916Y0192921D01*
X0183661Y0192951D01*
X0183406Y0192974D01*
X0183149Y0192990D01*
X0182893Y0193001D01*
X0182636Y0193005D01*
X0182380Y0193003D01*
X0182123Y0192994D01*
X0181867Y0192980D01*
X0181611Y0192959D01*
X0181356Y0192932D01*
X0181101Y0192898D01*
X0180847Y0192858D01*
X0180595Y0192813D01*
X0180343Y0192761D01*
X0180093Y0192702D01*
X0179845Y0192638D01*
X0179598Y0192568D01*
X0179353Y0192491D01*
X0179110Y0192409D01*
X0178869Y0192321D01*
X0178630Y0192227D01*
X0178393Y0192127D01*
X0178159Y0192021D01*
X0177928Y0191910D01*
X0177700Y0191793D01*
X0177474Y0191670D01*
X0177252Y0191542D01*
X0177032Y0191409D01*
X0176816Y0191270D01*
X0176604Y0191126D01*
X0176395Y0190977D01*
X0176190Y0190822D01*
X0175988Y0190663D01*
X0175791Y0190499D01*
X0175598Y0190330D01*
X0175409Y0190157D01*
X0175224Y0189979D01*
X0175043Y0189796D01*
X0174867Y0189609D01*
X0174696Y0189418D01*
X0174530Y0189222D01*
X0174368Y0189023D01*
X0174211Y0188820D01*
X0174059Y0188613D01*
X0173913Y0188402D01*
X0173771Y0188188D01*
X0173635Y0187970D01*
X0173504Y0187749D01*
X0173379Y0187525D01*
X0173259Y0187298D01*
X0173145Y0187068D01*
X0173036Y0186836D01*
X0172933Y0186601D01*
X0172836Y0186363D01*
X0172745Y0186123D01*
X0172660Y0185881D01*
X0172580Y0185637D01*
X0172634Y0185620D01*
X0172713Y0185863D01*
X0172798Y0186104D01*
X0172888Y0186343D01*
X0172985Y0186579D01*
X0173087Y0186813D01*
X0173195Y0187044D01*
X0173309Y0187273D01*
X0173428Y0187499D01*
X0173553Y0187721D01*
X0173683Y0187941D01*
X0173818Y0188158D01*
X0173959Y0188371D01*
X0174105Y0188580D01*
X0174256Y0188786D01*
X0174412Y0188988D01*
X0174573Y0189187D01*
X0174738Y0189381D01*
X0174909Y0189571D01*
X0175084Y0189757D01*
X0175263Y0189939D01*
X0175447Y0190116D01*
X0175635Y0190289D01*
X0175827Y0190457D01*
X0176024Y0190620D01*
X0176224Y0190778D01*
X0176428Y0190932D01*
X0176636Y0191080D01*
X0176847Y0191223D01*
X0177062Y0191361D01*
X0177280Y0191494D01*
X0177502Y0191621D01*
X0177726Y0191743D01*
X0177953Y0191860D01*
X0178183Y0191970D01*
X0178416Y0192076D01*
X0178651Y0192175D01*
X0178889Y0192269D01*
X0179128Y0192356D01*
X0179370Y0192438D01*
X0179614Y0192514D01*
X0179860Y0192584D01*
X0180107Y0192648D01*
X0180355Y0192706D01*
X0180606Y0192758D01*
X0180857Y0192803D01*
X0181109Y0192843D01*
X0181362Y0192876D01*
X0181616Y0192903D01*
X0181871Y0192924D01*
X0182125Y0192938D01*
X0182381Y0192947D01*
X0182636Y0192949D01*
X0182891Y0192945D01*
X0183146Y0192934D01*
X0183401Y0192918D01*
X0183655Y0192895D01*
X0183909Y0192866D01*
X0184162Y0192831D01*
X0184414Y0192789D01*
X0184665Y0192742D01*
X0184914Y0192688D01*
X0185163Y0192628D01*
X0185409Y0192562D01*
X0185654Y0192490D01*
X0185898Y0192413D01*
X0186139Y0192329D01*
X0186378Y0192239D01*
X0186615Y0192144D01*
X0186849Y0192042D01*
X0187081Y0191935D01*
X0187310Y0191823D01*
X0187536Y0191705D01*
X0187760Y0191581D01*
X0187980Y0191452D01*
X0188197Y0191317D01*
X0188411Y0191178D01*
X0188621Y0191033D01*
X0188828Y0190883D01*
X0189031Y0190728D01*
X0188996Y0190684D01*
X0188794Y0190838D01*
X0188589Y0190987D01*
X0188380Y0191131D01*
X0188167Y0191270D01*
X0187951Y0191404D01*
X0187732Y0191532D01*
X0187510Y0191655D01*
X0187285Y0191773D01*
X0187057Y0191885D01*
X0186826Y0191991D01*
X0186593Y0192092D01*
X0186357Y0192187D01*
X0186120Y0192276D01*
X0185880Y0192359D01*
X0185638Y0192437D01*
X0185394Y0192508D01*
X0185149Y0192574D01*
X0184902Y0192633D01*
X0184654Y0192687D01*
X0184404Y0192734D01*
X0184154Y0192775D01*
X0183902Y0192810D01*
X0183650Y0192839D01*
X0183397Y0192862D01*
X0183143Y0192879D01*
X0182890Y0192889D01*
X0182636Y0192893D01*
X0182382Y0192891D01*
X0182128Y0192882D01*
X0181874Y0192868D01*
X0181621Y0192847D01*
X0181369Y0192820D01*
X0181117Y0192787D01*
X0180866Y0192748D01*
X0180616Y0192703D01*
X0180367Y0192651D01*
X0180120Y0192594D01*
X0179874Y0192530D01*
X0179630Y0192460D01*
X0179388Y0192385D01*
X0179147Y0192303D01*
X0178909Y0192216D01*
X0178672Y0192123D01*
X0178438Y0192024D01*
X0178207Y0191920D01*
X0177978Y0191809D01*
X0177752Y0191694D01*
X0177529Y0191572D01*
X0177309Y0191446D01*
X0177092Y0191314D01*
X0176878Y0191176D01*
X0176668Y0191034D01*
X0176461Y0190886D01*
X0176258Y0190734D01*
X0176059Y0190576D01*
X0175864Y0190414D01*
X0175673Y0190247D01*
X0175485Y0190075D01*
X0175303Y0189899D01*
X0175124Y0189718D01*
X0174950Y0189533D01*
X0174781Y0189344D01*
X0174616Y0189151D01*
X0174456Y0188954D01*
X0174301Y0188753D01*
X0174151Y0188548D01*
X0174005Y0188339D01*
X0173866Y0188127D01*
X0173731Y0187912D01*
X0173601Y0187694D01*
X0173477Y0187472D01*
X0173359Y0187247D01*
X0173246Y0187020D01*
X0173138Y0186790D01*
X0173037Y0186557D01*
X0172941Y0186322D01*
X0172850Y0186085D01*
X0172766Y0185845D01*
X0172687Y0185604D01*
X0172741Y0185587D01*
X0172819Y0185827D01*
X0172903Y0186066D01*
X0172993Y0186302D01*
X0173088Y0186536D01*
X0173189Y0186767D01*
X0173296Y0186996D01*
X0173409Y0187222D01*
X0173527Y0187445D01*
X0173650Y0187666D01*
X0173779Y0187883D01*
X0173913Y0188097D01*
X0174052Y0188308D01*
X0174196Y0188515D01*
X0174346Y0188719D01*
X0174500Y0188919D01*
X0174659Y0189115D01*
X0174823Y0189307D01*
X0174991Y0189496D01*
X0175164Y0189680D01*
X0175342Y0189859D01*
X0175524Y0190034D01*
X0175710Y0190205D01*
X0175900Y0190371D01*
X0176094Y0190533D01*
X0176293Y0190690D01*
X0176494Y0190841D01*
X0176700Y0190988D01*
X0176909Y0191130D01*
X0177122Y0191266D01*
X0177337Y0191398D01*
X0177556Y0191524D01*
X0177778Y0191644D01*
X0178003Y0191759D01*
X0178231Y0191869D01*
X0178461Y0191973D01*
X0178693Y0192071D01*
X0178928Y0192164D01*
X0179166Y0192251D01*
X0179405Y0192332D01*
X0179646Y0192407D01*
X0179889Y0192476D01*
X0180133Y0192539D01*
X0180379Y0192596D01*
X0180627Y0192648D01*
X0180875Y0192693D01*
X0181125Y0192732D01*
X0181375Y0192765D01*
X0181626Y0192791D01*
X0181878Y0192812D01*
X0182130Y0192827D01*
X0182383Y0192835D01*
X0182635Y0192837D01*
X0182888Y0192833D01*
X0183140Y0192823D01*
X0183392Y0192806D01*
X0183644Y0192784D01*
X0183895Y0192755D01*
X0184145Y0192720D01*
X0184394Y0192679D01*
X0184642Y0192632D01*
X0184889Y0192579D01*
X0185135Y0192520D01*
X0185379Y0192454D01*
X0185621Y0192383D01*
X0185862Y0192306D01*
X0186101Y0192223D01*
X0186337Y0192135D01*
X0186571Y0192040D01*
X0186803Y0191940D01*
X0187033Y0191834D01*
X0187259Y0191723D01*
X0187483Y0191606D01*
X0187704Y0191484D01*
X0187922Y0191356D01*
X0188137Y0191223D01*
X0188348Y0191085D01*
X0188556Y0190942D01*
X0188761Y0190793D01*
X0188961Y0190640D01*
X0188927Y0190596D01*
X0188727Y0190748D01*
X0188524Y0190896D01*
X0188317Y0191039D01*
X0188107Y0191176D01*
X0187893Y0191308D01*
X0187676Y0191435D01*
X0187457Y0191557D01*
X0187234Y0191673D01*
X0187008Y0191784D01*
X0186780Y0191889D01*
X0186550Y0191989D01*
X0186317Y0192083D01*
X0186081Y0192171D01*
X0185844Y0192253D01*
X0185605Y0192330D01*
X0185364Y0192401D01*
X0185121Y0192465D01*
X0184877Y0192524D01*
X0184631Y0192577D01*
X0184384Y0192624D01*
X0184137Y0192665D01*
X0183888Y0192699D01*
X0183638Y0192728D01*
X0183388Y0192750D01*
X0183137Y0192767D01*
X0182886Y0192777D01*
X0182635Y0192781D01*
X0182384Y0192779D01*
X0182133Y0192771D01*
X0181882Y0192756D01*
X0181632Y0192736D01*
X0181382Y0192709D01*
X0181133Y0192676D01*
X0180885Y0192638D01*
X0180637Y0192593D01*
X0180392Y0192542D01*
X0180147Y0192485D01*
X0179904Y0192422D01*
X0179662Y0192353D01*
X0179422Y0192278D01*
X0179184Y0192198D01*
X0178948Y0192111D01*
X0178715Y0192019D01*
X0178483Y0191922D01*
X0178254Y0191818D01*
X0178028Y0191709D01*
X0177804Y0191595D01*
X0177584Y0191475D01*
X0177366Y0191349D01*
X0177151Y0191219D01*
X0176940Y0191083D01*
X0176732Y0190942D01*
X0176528Y0190796D01*
X0176327Y0190645D01*
X0176130Y0190489D01*
X0175937Y0190329D01*
X0175747Y0190164D01*
X0175562Y0189994D01*
X0175381Y0189819D01*
X0175205Y0189641D01*
X0175033Y0189458D01*
X0174865Y0189271D01*
X0174702Y0189079D01*
X0174544Y0188884D01*
X0174390Y0188685D01*
X0174242Y0188483D01*
X0174098Y0188277D01*
X0173960Y0188067D01*
X0173827Y0187854D01*
X0173699Y0187638D01*
X0173576Y0187419D01*
X0173459Y0187197D01*
X0173347Y0186972D01*
X0173241Y0186744D01*
X0173140Y0186514D01*
X0173045Y0186281D01*
X0172956Y0186047D01*
X0172872Y0185810D01*
X0172794Y0185571D01*
D17*
X0160095Y0190013D02*
X0140095Y0190013D01*
X0140095Y0195013D01*
X0160095Y0195013D02*
X0160095Y0190013D01*
X0202595Y0167513D02*
X0207595Y0167513D01*
X0202595Y0167513D02*
X0202595Y0137513D01*
X0207595Y0137513D01*
X0227595Y0137513D02*
X0227595Y0167513D01*
X0232595Y0167513D01*
X0232595Y0137513D02*
X0227595Y0137513D01*
X0227595Y0127513D02*
X0232595Y0127513D01*
X0227595Y0127513D02*
X0227595Y0107513D01*
X0232595Y0107513D01*
X0232595Y0097513D02*
X0227595Y0097513D01*
X0227595Y0087513D01*
X0232595Y0087513D01*
X0232595Y0077513D02*
X0227595Y0077513D01*
X0227595Y0057513D01*
X0232595Y0057513D01*
X0232595Y0047513D02*
X0227595Y0047513D01*
X0227595Y0027513D01*
X0232595Y0027513D01*
X0187595Y0010013D02*
X0187595Y0005013D01*
X0187595Y0010013D02*
X0157595Y0010013D01*
X0157595Y0005013D01*
X0145095Y0005013D02*
X0145095Y0010013D01*
X0125095Y0010013D01*
X0125095Y0005013D01*
X0115095Y0005013D02*
X0115095Y0010013D01*
X0095095Y0010013D01*
X0095095Y0005013D01*
X0080095Y0097513D02*
X0075095Y0097513D01*
X0080095Y0097513D02*
X0080095Y0117513D01*
X0075095Y0117513D01*
X0075095Y0127513D02*
X0080095Y0127513D01*
X0080095Y0137513D01*
X0075095Y0137513D01*
X0075095Y0147513D02*
X0080095Y0147513D01*
X0080095Y0167513D01*
X0075095Y0167513D01*
X0095095Y0190013D02*
X0095095Y0195013D01*
X0095095Y0190013D02*
X0105095Y0190013D01*
X0105095Y0195013D01*
M02*
