G75*
%MOIN*%
%OFA0B0*%
%FSLAX25Y25*%
%IPPOS*%
%LPD*%
%AMOC8*
5,1,8,0,0,1.08239X$1,22.5*
%
%ADD10C,0.00000*%
%ADD11C,0.01600*%
D10*
X0073845Y0002513D02*
X0073845Y0198723D01*
X0073845Y0198724D02*
X0073840Y0198731D01*
X0073837Y0198739D01*
X0073837Y0198747D01*
X0073840Y0198755D01*
X0073845Y0198762D01*
X0073845Y0198763D02*
X0232507Y0198763D01*
X0232507Y0198762D02*
X0232517Y0198761D01*
X0232527Y0198757D01*
X0232535Y0198751D01*
X0232541Y0198743D01*
X0232545Y0198733D01*
X0232546Y0198723D01*
X0232546Y0002513D01*
X0232595Y0002513D01*
X0232596Y0002513D02*
X0232589Y0002519D01*
X0232580Y0002524D01*
X0232571Y0002525D01*
X0232562Y0002524D01*
X0232553Y0002519D01*
X0232546Y0002513D01*
X0073845Y0002513D01*
X0077083Y0012513D02*
X0077085Y0012661D01*
X0077091Y0012809D01*
X0077101Y0012957D01*
X0077115Y0013104D01*
X0077133Y0013251D01*
X0077154Y0013397D01*
X0077180Y0013543D01*
X0077210Y0013688D01*
X0077243Y0013832D01*
X0077281Y0013975D01*
X0077322Y0014117D01*
X0077367Y0014258D01*
X0077415Y0014398D01*
X0077468Y0014537D01*
X0077524Y0014674D01*
X0077584Y0014809D01*
X0077647Y0014943D01*
X0077714Y0015075D01*
X0077785Y0015205D01*
X0077859Y0015333D01*
X0077936Y0015459D01*
X0078017Y0015583D01*
X0078101Y0015705D01*
X0078188Y0015824D01*
X0078279Y0015941D01*
X0078373Y0016056D01*
X0078469Y0016168D01*
X0078569Y0016278D01*
X0078671Y0016384D01*
X0078777Y0016488D01*
X0078885Y0016589D01*
X0078996Y0016687D01*
X0079109Y0016783D01*
X0079225Y0016875D01*
X0079343Y0016964D01*
X0079464Y0017049D01*
X0079587Y0017132D01*
X0079712Y0017211D01*
X0079839Y0017287D01*
X0079968Y0017359D01*
X0080099Y0017428D01*
X0080232Y0017493D01*
X0080367Y0017554D01*
X0080503Y0017612D01*
X0080640Y0017667D01*
X0080779Y0017717D01*
X0080920Y0017764D01*
X0081061Y0017807D01*
X0081204Y0017847D01*
X0081348Y0017882D01*
X0081492Y0017914D01*
X0081638Y0017941D01*
X0081784Y0017965D01*
X0081931Y0017985D01*
X0082078Y0018001D01*
X0082225Y0018013D01*
X0082373Y0018021D01*
X0082521Y0018025D01*
X0082669Y0018025D01*
X0082817Y0018021D01*
X0082965Y0018013D01*
X0083112Y0018001D01*
X0083259Y0017985D01*
X0083406Y0017965D01*
X0083552Y0017941D01*
X0083698Y0017914D01*
X0083842Y0017882D01*
X0083986Y0017847D01*
X0084129Y0017807D01*
X0084270Y0017764D01*
X0084411Y0017717D01*
X0084550Y0017667D01*
X0084687Y0017612D01*
X0084823Y0017554D01*
X0084958Y0017493D01*
X0085091Y0017428D01*
X0085222Y0017359D01*
X0085351Y0017287D01*
X0085478Y0017211D01*
X0085603Y0017132D01*
X0085726Y0017049D01*
X0085847Y0016964D01*
X0085965Y0016875D01*
X0086081Y0016783D01*
X0086194Y0016687D01*
X0086305Y0016589D01*
X0086413Y0016488D01*
X0086519Y0016384D01*
X0086621Y0016278D01*
X0086721Y0016168D01*
X0086817Y0016056D01*
X0086911Y0015941D01*
X0087002Y0015824D01*
X0087089Y0015705D01*
X0087173Y0015583D01*
X0087254Y0015459D01*
X0087331Y0015333D01*
X0087405Y0015205D01*
X0087476Y0015075D01*
X0087543Y0014943D01*
X0087606Y0014809D01*
X0087666Y0014674D01*
X0087722Y0014537D01*
X0087775Y0014398D01*
X0087823Y0014258D01*
X0087868Y0014117D01*
X0087909Y0013975D01*
X0087947Y0013832D01*
X0087980Y0013688D01*
X0088010Y0013543D01*
X0088036Y0013397D01*
X0088057Y0013251D01*
X0088075Y0013104D01*
X0088089Y0012957D01*
X0088099Y0012809D01*
X0088105Y0012661D01*
X0088107Y0012513D01*
X0088105Y0012365D01*
X0088099Y0012217D01*
X0088089Y0012069D01*
X0088075Y0011922D01*
X0088057Y0011775D01*
X0088036Y0011629D01*
X0088010Y0011483D01*
X0087980Y0011338D01*
X0087947Y0011194D01*
X0087909Y0011051D01*
X0087868Y0010909D01*
X0087823Y0010768D01*
X0087775Y0010628D01*
X0087722Y0010489D01*
X0087666Y0010352D01*
X0087606Y0010217D01*
X0087543Y0010083D01*
X0087476Y0009951D01*
X0087405Y0009821D01*
X0087331Y0009693D01*
X0087254Y0009567D01*
X0087173Y0009443D01*
X0087089Y0009321D01*
X0087002Y0009202D01*
X0086911Y0009085D01*
X0086817Y0008970D01*
X0086721Y0008858D01*
X0086621Y0008748D01*
X0086519Y0008642D01*
X0086413Y0008538D01*
X0086305Y0008437D01*
X0086194Y0008339D01*
X0086081Y0008243D01*
X0085965Y0008151D01*
X0085847Y0008062D01*
X0085726Y0007977D01*
X0085603Y0007894D01*
X0085478Y0007815D01*
X0085351Y0007739D01*
X0085222Y0007667D01*
X0085091Y0007598D01*
X0084958Y0007533D01*
X0084823Y0007472D01*
X0084687Y0007414D01*
X0084550Y0007359D01*
X0084411Y0007309D01*
X0084270Y0007262D01*
X0084129Y0007219D01*
X0083986Y0007179D01*
X0083842Y0007144D01*
X0083698Y0007112D01*
X0083552Y0007085D01*
X0083406Y0007061D01*
X0083259Y0007041D01*
X0083112Y0007025D01*
X0082965Y0007013D01*
X0082817Y0007005D01*
X0082669Y0007001D01*
X0082521Y0007001D01*
X0082373Y0007005D01*
X0082225Y0007013D01*
X0082078Y0007025D01*
X0081931Y0007041D01*
X0081784Y0007061D01*
X0081638Y0007085D01*
X0081492Y0007112D01*
X0081348Y0007144D01*
X0081204Y0007179D01*
X0081061Y0007219D01*
X0080920Y0007262D01*
X0080779Y0007309D01*
X0080640Y0007359D01*
X0080503Y0007414D01*
X0080367Y0007472D01*
X0080232Y0007533D01*
X0080099Y0007598D01*
X0079968Y0007667D01*
X0079839Y0007739D01*
X0079712Y0007815D01*
X0079587Y0007894D01*
X0079464Y0007977D01*
X0079343Y0008062D01*
X0079225Y0008151D01*
X0079109Y0008243D01*
X0078996Y0008339D01*
X0078885Y0008437D01*
X0078777Y0008538D01*
X0078671Y0008642D01*
X0078569Y0008748D01*
X0078469Y0008858D01*
X0078373Y0008970D01*
X0078279Y0009085D01*
X0078188Y0009202D01*
X0078101Y0009321D01*
X0078017Y0009443D01*
X0077936Y0009567D01*
X0077859Y0009693D01*
X0077785Y0009821D01*
X0077714Y0009951D01*
X0077647Y0010083D01*
X0077584Y0010217D01*
X0077524Y0010352D01*
X0077468Y0010489D01*
X0077415Y0010628D01*
X0077367Y0010768D01*
X0077322Y0010909D01*
X0077281Y0011051D01*
X0077243Y0011194D01*
X0077210Y0011338D01*
X0077180Y0011483D01*
X0077154Y0011629D01*
X0077133Y0011775D01*
X0077115Y0011922D01*
X0077101Y0012069D01*
X0077091Y0012217D01*
X0077085Y0012365D01*
X0077083Y0012513D01*
X0218796Y0012513D02*
X0218798Y0012671D01*
X0218804Y0012829D01*
X0218814Y0012987D01*
X0218828Y0013145D01*
X0218846Y0013302D01*
X0218867Y0013459D01*
X0218893Y0013615D01*
X0218923Y0013771D01*
X0218956Y0013926D01*
X0218994Y0014079D01*
X0219035Y0014232D01*
X0219080Y0014384D01*
X0219129Y0014535D01*
X0219182Y0014684D01*
X0219238Y0014832D01*
X0219298Y0014978D01*
X0219362Y0015123D01*
X0219430Y0015266D01*
X0219501Y0015408D01*
X0219575Y0015548D01*
X0219653Y0015685D01*
X0219735Y0015821D01*
X0219819Y0015955D01*
X0219908Y0016086D01*
X0219999Y0016215D01*
X0220094Y0016342D01*
X0220191Y0016467D01*
X0220292Y0016589D01*
X0220396Y0016708D01*
X0220503Y0016825D01*
X0220613Y0016939D01*
X0220726Y0017050D01*
X0220841Y0017159D01*
X0220959Y0017264D01*
X0221080Y0017366D01*
X0221203Y0017466D01*
X0221329Y0017562D01*
X0221457Y0017655D01*
X0221587Y0017745D01*
X0221720Y0017831D01*
X0221855Y0017915D01*
X0221991Y0017994D01*
X0222130Y0018071D01*
X0222271Y0018143D01*
X0222413Y0018213D01*
X0222557Y0018278D01*
X0222703Y0018340D01*
X0222850Y0018398D01*
X0222999Y0018453D01*
X0223149Y0018504D01*
X0223300Y0018551D01*
X0223452Y0018594D01*
X0223605Y0018633D01*
X0223760Y0018669D01*
X0223915Y0018700D01*
X0224071Y0018728D01*
X0224227Y0018752D01*
X0224384Y0018772D01*
X0224542Y0018788D01*
X0224699Y0018800D01*
X0224858Y0018808D01*
X0225016Y0018812D01*
X0225174Y0018812D01*
X0225332Y0018808D01*
X0225491Y0018800D01*
X0225648Y0018788D01*
X0225806Y0018772D01*
X0225963Y0018752D01*
X0226119Y0018728D01*
X0226275Y0018700D01*
X0226430Y0018669D01*
X0226585Y0018633D01*
X0226738Y0018594D01*
X0226890Y0018551D01*
X0227041Y0018504D01*
X0227191Y0018453D01*
X0227340Y0018398D01*
X0227487Y0018340D01*
X0227633Y0018278D01*
X0227777Y0018213D01*
X0227919Y0018143D01*
X0228060Y0018071D01*
X0228199Y0017994D01*
X0228335Y0017915D01*
X0228470Y0017831D01*
X0228603Y0017745D01*
X0228733Y0017655D01*
X0228861Y0017562D01*
X0228987Y0017466D01*
X0229110Y0017366D01*
X0229231Y0017264D01*
X0229349Y0017159D01*
X0229464Y0017050D01*
X0229577Y0016939D01*
X0229687Y0016825D01*
X0229794Y0016708D01*
X0229898Y0016589D01*
X0229999Y0016467D01*
X0230096Y0016342D01*
X0230191Y0016215D01*
X0230282Y0016086D01*
X0230371Y0015955D01*
X0230455Y0015821D01*
X0230537Y0015685D01*
X0230615Y0015548D01*
X0230689Y0015408D01*
X0230760Y0015266D01*
X0230828Y0015123D01*
X0230892Y0014978D01*
X0230952Y0014832D01*
X0231008Y0014684D01*
X0231061Y0014535D01*
X0231110Y0014384D01*
X0231155Y0014232D01*
X0231196Y0014079D01*
X0231234Y0013926D01*
X0231267Y0013771D01*
X0231297Y0013615D01*
X0231323Y0013459D01*
X0231344Y0013302D01*
X0231362Y0013145D01*
X0231376Y0012987D01*
X0231386Y0012829D01*
X0231392Y0012671D01*
X0231394Y0012513D01*
X0231392Y0012355D01*
X0231386Y0012197D01*
X0231376Y0012039D01*
X0231362Y0011881D01*
X0231344Y0011724D01*
X0231323Y0011567D01*
X0231297Y0011411D01*
X0231267Y0011255D01*
X0231234Y0011100D01*
X0231196Y0010947D01*
X0231155Y0010794D01*
X0231110Y0010642D01*
X0231061Y0010491D01*
X0231008Y0010342D01*
X0230952Y0010194D01*
X0230892Y0010048D01*
X0230828Y0009903D01*
X0230760Y0009760D01*
X0230689Y0009618D01*
X0230615Y0009478D01*
X0230537Y0009341D01*
X0230455Y0009205D01*
X0230371Y0009071D01*
X0230282Y0008940D01*
X0230191Y0008811D01*
X0230096Y0008684D01*
X0229999Y0008559D01*
X0229898Y0008437D01*
X0229794Y0008318D01*
X0229687Y0008201D01*
X0229577Y0008087D01*
X0229464Y0007976D01*
X0229349Y0007867D01*
X0229231Y0007762D01*
X0229110Y0007660D01*
X0228987Y0007560D01*
X0228861Y0007464D01*
X0228733Y0007371D01*
X0228603Y0007281D01*
X0228470Y0007195D01*
X0228335Y0007111D01*
X0228199Y0007032D01*
X0228060Y0006955D01*
X0227919Y0006883D01*
X0227777Y0006813D01*
X0227633Y0006748D01*
X0227487Y0006686D01*
X0227340Y0006628D01*
X0227191Y0006573D01*
X0227041Y0006522D01*
X0226890Y0006475D01*
X0226738Y0006432D01*
X0226585Y0006393D01*
X0226430Y0006357D01*
X0226275Y0006326D01*
X0226119Y0006298D01*
X0225963Y0006274D01*
X0225806Y0006254D01*
X0225648Y0006238D01*
X0225491Y0006226D01*
X0225332Y0006218D01*
X0225174Y0006214D01*
X0225016Y0006214D01*
X0224858Y0006218D01*
X0224699Y0006226D01*
X0224542Y0006238D01*
X0224384Y0006254D01*
X0224227Y0006274D01*
X0224071Y0006298D01*
X0223915Y0006326D01*
X0223760Y0006357D01*
X0223605Y0006393D01*
X0223452Y0006432D01*
X0223300Y0006475D01*
X0223149Y0006522D01*
X0222999Y0006573D01*
X0222850Y0006628D01*
X0222703Y0006686D01*
X0222557Y0006748D01*
X0222413Y0006813D01*
X0222271Y0006883D01*
X0222130Y0006955D01*
X0221991Y0007032D01*
X0221855Y0007111D01*
X0221720Y0007195D01*
X0221587Y0007281D01*
X0221457Y0007371D01*
X0221329Y0007464D01*
X0221203Y0007560D01*
X0221080Y0007660D01*
X0220959Y0007762D01*
X0220841Y0007867D01*
X0220726Y0007976D01*
X0220613Y0008087D01*
X0220503Y0008201D01*
X0220396Y0008318D01*
X0220292Y0008437D01*
X0220191Y0008559D01*
X0220094Y0008684D01*
X0219999Y0008811D01*
X0219908Y0008940D01*
X0219819Y0009071D01*
X0219735Y0009205D01*
X0219653Y0009341D01*
X0219575Y0009478D01*
X0219501Y0009618D01*
X0219430Y0009760D01*
X0219362Y0009903D01*
X0219298Y0010048D01*
X0219238Y0010194D01*
X0219182Y0010342D01*
X0219129Y0010491D01*
X0219080Y0010642D01*
X0219035Y0010794D01*
X0218994Y0010947D01*
X0218956Y0011100D01*
X0218923Y0011255D01*
X0218893Y0011411D01*
X0218867Y0011567D01*
X0218846Y0011724D01*
X0218828Y0011881D01*
X0218814Y0012039D01*
X0218804Y0012197D01*
X0218798Y0012355D01*
X0218796Y0012513D01*
X0218796Y0187513D02*
X0218798Y0187671D01*
X0218804Y0187829D01*
X0218814Y0187987D01*
X0218828Y0188145D01*
X0218846Y0188302D01*
X0218867Y0188459D01*
X0218893Y0188615D01*
X0218923Y0188771D01*
X0218956Y0188926D01*
X0218994Y0189079D01*
X0219035Y0189232D01*
X0219080Y0189384D01*
X0219129Y0189535D01*
X0219182Y0189684D01*
X0219238Y0189832D01*
X0219298Y0189978D01*
X0219362Y0190123D01*
X0219430Y0190266D01*
X0219501Y0190408D01*
X0219575Y0190548D01*
X0219653Y0190685D01*
X0219735Y0190821D01*
X0219819Y0190955D01*
X0219908Y0191086D01*
X0219999Y0191215D01*
X0220094Y0191342D01*
X0220191Y0191467D01*
X0220292Y0191589D01*
X0220396Y0191708D01*
X0220503Y0191825D01*
X0220613Y0191939D01*
X0220726Y0192050D01*
X0220841Y0192159D01*
X0220959Y0192264D01*
X0221080Y0192366D01*
X0221203Y0192466D01*
X0221329Y0192562D01*
X0221457Y0192655D01*
X0221587Y0192745D01*
X0221720Y0192831D01*
X0221855Y0192915D01*
X0221991Y0192994D01*
X0222130Y0193071D01*
X0222271Y0193143D01*
X0222413Y0193213D01*
X0222557Y0193278D01*
X0222703Y0193340D01*
X0222850Y0193398D01*
X0222999Y0193453D01*
X0223149Y0193504D01*
X0223300Y0193551D01*
X0223452Y0193594D01*
X0223605Y0193633D01*
X0223760Y0193669D01*
X0223915Y0193700D01*
X0224071Y0193728D01*
X0224227Y0193752D01*
X0224384Y0193772D01*
X0224542Y0193788D01*
X0224699Y0193800D01*
X0224858Y0193808D01*
X0225016Y0193812D01*
X0225174Y0193812D01*
X0225332Y0193808D01*
X0225491Y0193800D01*
X0225648Y0193788D01*
X0225806Y0193772D01*
X0225963Y0193752D01*
X0226119Y0193728D01*
X0226275Y0193700D01*
X0226430Y0193669D01*
X0226585Y0193633D01*
X0226738Y0193594D01*
X0226890Y0193551D01*
X0227041Y0193504D01*
X0227191Y0193453D01*
X0227340Y0193398D01*
X0227487Y0193340D01*
X0227633Y0193278D01*
X0227777Y0193213D01*
X0227919Y0193143D01*
X0228060Y0193071D01*
X0228199Y0192994D01*
X0228335Y0192915D01*
X0228470Y0192831D01*
X0228603Y0192745D01*
X0228733Y0192655D01*
X0228861Y0192562D01*
X0228987Y0192466D01*
X0229110Y0192366D01*
X0229231Y0192264D01*
X0229349Y0192159D01*
X0229464Y0192050D01*
X0229577Y0191939D01*
X0229687Y0191825D01*
X0229794Y0191708D01*
X0229898Y0191589D01*
X0229999Y0191467D01*
X0230096Y0191342D01*
X0230191Y0191215D01*
X0230282Y0191086D01*
X0230371Y0190955D01*
X0230455Y0190821D01*
X0230537Y0190685D01*
X0230615Y0190548D01*
X0230689Y0190408D01*
X0230760Y0190266D01*
X0230828Y0190123D01*
X0230892Y0189978D01*
X0230952Y0189832D01*
X0231008Y0189684D01*
X0231061Y0189535D01*
X0231110Y0189384D01*
X0231155Y0189232D01*
X0231196Y0189079D01*
X0231234Y0188926D01*
X0231267Y0188771D01*
X0231297Y0188615D01*
X0231323Y0188459D01*
X0231344Y0188302D01*
X0231362Y0188145D01*
X0231376Y0187987D01*
X0231386Y0187829D01*
X0231392Y0187671D01*
X0231394Y0187513D01*
X0231392Y0187355D01*
X0231386Y0187197D01*
X0231376Y0187039D01*
X0231362Y0186881D01*
X0231344Y0186724D01*
X0231323Y0186567D01*
X0231297Y0186411D01*
X0231267Y0186255D01*
X0231234Y0186100D01*
X0231196Y0185947D01*
X0231155Y0185794D01*
X0231110Y0185642D01*
X0231061Y0185491D01*
X0231008Y0185342D01*
X0230952Y0185194D01*
X0230892Y0185048D01*
X0230828Y0184903D01*
X0230760Y0184760D01*
X0230689Y0184618D01*
X0230615Y0184478D01*
X0230537Y0184341D01*
X0230455Y0184205D01*
X0230371Y0184071D01*
X0230282Y0183940D01*
X0230191Y0183811D01*
X0230096Y0183684D01*
X0229999Y0183559D01*
X0229898Y0183437D01*
X0229794Y0183318D01*
X0229687Y0183201D01*
X0229577Y0183087D01*
X0229464Y0182976D01*
X0229349Y0182867D01*
X0229231Y0182762D01*
X0229110Y0182660D01*
X0228987Y0182560D01*
X0228861Y0182464D01*
X0228733Y0182371D01*
X0228603Y0182281D01*
X0228470Y0182195D01*
X0228335Y0182111D01*
X0228199Y0182032D01*
X0228060Y0181955D01*
X0227919Y0181883D01*
X0227777Y0181813D01*
X0227633Y0181748D01*
X0227487Y0181686D01*
X0227340Y0181628D01*
X0227191Y0181573D01*
X0227041Y0181522D01*
X0226890Y0181475D01*
X0226738Y0181432D01*
X0226585Y0181393D01*
X0226430Y0181357D01*
X0226275Y0181326D01*
X0226119Y0181298D01*
X0225963Y0181274D01*
X0225806Y0181254D01*
X0225648Y0181238D01*
X0225491Y0181226D01*
X0225332Y0181218D01*
X0225174Y0181214D01*
X0225016Y0181214D01*
X0224858Y0181218D01*
X0224699Y0181226D01*
X0224542Y0181238D01*
X0224384Y0181254D01*
X0224227Y0181274D01*
X0224071Y0181298D01*
X0223915Y0181326D01*
X0223760Y0181357D01*
X0223605Y0181393D01*
X0223452Y0181432D01*
X0223300Y0181475D01*
X0223149Y0181522D01*
X0222999Y0181573D01*
X0222850Y0181628D01*
X0222703Y0181686D01*
X0222557Y0181748D01*
X0222413Y0181813D01*
X0222271Y0181883D01*
X0222130Y0181955D01*
X0221991Y0182032D01*
X0221855Y0182111D01*
X0221720Y0182195D01*
X0221587Y0182281D01*
X0221457Y0182371D01*
X0221329Y0182464D01*
X0221203Y0182560D01*
X0221080Y0182660D01*
X0220959Y0182762D01*
X0220841Y0182867D01*
X0220726Y0182976D01*
X0220613Y0183087D01*
X0220503Y0183201D01*
X0220396Y0183318D01*
X0220292Y0183437D01*
X0220191Y0183559D01*
X0220094Y0183684D01*
X0219999Y0183811D01*
X0219908Y0183940D01*
X0219819Y0184071D01*
X0219735Y0184205D01*
X0219653Y0184341D01*
X0219575Y0184478D01*
X0219501Y0184618D01*
X0219430Y0184760D01*
X0219362Y0184903D01*
X0219298Y0185048D01*
X0219238Y0185194D01*
X0219182Y0185342D01*
X0219129Y0185491D01*
X0219080Y0185642D01*
X0219035Y0185794D01*
X0218994Y0185947D01*
X0218956Y0186100D01*
X0218923Y0186255D01*
X0218893Y0186411D01*
X0218867Y0186567D01*
X0218846Y0186724D01*
X0218828Y0186881D01*
X0218814Y0187039D01*
X0218804Y0187197D01*
X0218798Y0187355D01*
X0218796Y0187513D01*
X0076296Y0187513D02*
X0076298Y0187671D01*
X0076304Y0187829D01*
X0076314Y0187987D01*
X0076328Y0188145D01*
X0076346Y0188302D01*
X0076367Y0188459D01*
X0076393Y0188615D01*
X0076423Y0188771D01*
X0076456Y0188926D01*
X0076494Y0189079D01*
X0076535Y0189232D01*
X0076580Y0189384D01*
X0076629Y0189535D01*
X0076682Y0189684D01*
X0076738Y0189832D01*
X0076798Y0189978D01*
X0076862Y0190123D01*
X0076930Y0190266D01*
X0077001Y0190408D01*
X0077075Y0190548D01*
X0077153Y0190685D01*
X0077235Y0190821D01*
X0077319Y0190955D01*
X0077408Y0191086D01*
X0077499Y0191215D01*
X0077594Y0191342D01*
X0077691Y0191467D01*
X0077792Y0191589D01*
X0077896Y0191708D01*
X0078003Y0191825D01*
X0078113Y0191939D01*
X0078226Y0192050D01*
X0078341Y0192159D01*
X0078459Y0192264D01*
X0078580Y0192366D01*
X0078703Y0192466D01*
X0078829Y0192562D01*
X0078957Y0192655D01*
X0079087Y0192745D01*
X0079220Y0192831D01*
X0079355Y0192915D01*
X0079491Y0192994D01*
X0079630Y0193071D01*
X0079771Y0193143D01*
X0079913Y0193213D01*
X0080057Y0193278D01*
X0080203Y0193340D01*
X0080350Y0193398D01*
X0080499Y0193453D01*
X0080649Y0193504D01*
X0080800Y0193551D01*
X0080952Y0193594D01*
X0081105Y0193633D01*
X0081260Y0193669D01*
X0081415Y0193700D01*
X0081571Y0193728D01*
X0081727Y0193752D01*
X0081884Y0193772D01*
X0082042Y0193788D01*
X0082199Y0193800D01*
X0082358Y0193808D01*
X0082516Y0193812D01*
X0082674Y0193812D01*
X0082832Y0193808D01*
X0082991Y0193800D01*
X0083148Y0193788D01*
X0083306Y0193772D01*
X0083463Y0193752D01*
X0083619Y0193728D01*
X0083775Y0193700D01*
X0083930Y0193669D01*
X0084085Y0193633D01*
X0084238Y0193594D01*
X0084390Y0193551D01*
X0084541Y0193504D01*
X0084691Y0193453D01*
X0084840Y0193398D01*
X0084987Y0193340D01*
X0085133Y0193278D01*
X0085277Y0193213D01*
X0085419Y0193143D01*
X0085560Y0193071D01*
X0085699Y0192994D01*
X0085835Y0192915D01*
X0085970Y0192831D01*
X0086103Y0192745D01*
X0086233Y0192655D01*
X0086361Y0192562D01*
X0086487Y0192466D01*
X0086610Y0192366D01*
X0086731Y0192264D01*
X0086849Y0192159D01*
X0086964Y0192050D01*
X0087077Y0191939D01*
X0087187Y0191825D01*
X0087294Y0191708D01*
X0087398Y0191589D01*
X0087499Y0191467D01*
X0087596Y0191342D01*
X0087691Y0191215D01*
X0087782Y0191086D01*
X0087871Y0190955D01*
X0087955Y0190821D01*
X0088037Y0190685D01*
X0088115Y0190548D01*
X0088189Y0190408D01*
X0088260Y0190266D01*
X0088328Y0190123D01*
X0088392Y0189978D01*
X0088452Y0189832D01*
X0088508Y0189684D01*
X0088561Y0189535D01*
X0088610Y0189384D01*
X0088655Y0189232D01*
X0088696Y0189079D01*
X0088734Y0188926D01*
X0088767Y0188771D01*
X0088797Y0188615D01*
X0088823Y0188459D01*
X0088844Y0188302D01*
X0088862Y0188145D01*
X0088876Y0187987D01*
X0088886Y0187829D01*
X0088892Y0187671D01*
X0088894Y0187513D01*
X0088892Y0187355D01*
X0088886Y0187197D01*
X0088876Y0187039D01*
X0088862Y0186881D01*
X0088844Y0186724D01*
X0088823Y0186567D01*
X0088797Y0186411D01*
X0088767Y0186255D01*
X0088734Y0186100D01*
X0088696Y0185947D01*
X0088655Y0185794D01*
X0088610Y0185642D01*
X0088561Y0185491D01*
X0088508Y0185342D01*
X0088452Y0185194D01*
X0088392Y0185048D01*
X0088328Y0184903D01*
X0088260Y0184760D01*
X0088189Y0184618D01*
X0088115Y0184478D01*
X0088037Y0184341D01*
X0087955Y0184205D01*
X0087871Y0184071D01*
X0087782Y0183940D01*
X0087691Y0183811D01*
X0087596Y0183684D01*
X0087499Y0183559D01*
X0087398Y0183437D01*
X0087294Y0183318D01*
X0087187Y0183201D01*
X0087077Y0183087D01*
X0086964Y0182976D01*
X0086849Y0182867D01*
X0086731Y0182762D01*
X0086610Y0182660D01*
X0086487Y0182560D01*
X0086361Y0182464D01*
X0086233Y0182371D01*
X0086103Y0182281D01*
X0085970Y0182195D01*
X0085835Y0182111D01*
X0085699Y0182032D01*
X0085560Y0181955D01*
X0085419Y0181883D01*
X0085277Y0181813D01*
X0085133Y0181748D01*
X0084987Y0181686D01*
X0084840Y0181628D01*
X0084691Y0181573D01*
X0084541Y0181522D01*
X0084390Y0181475D01*
X0084238Y0181432D01*
X0084085Y0181393D01*
X0083930Y0181357D01*
X0083775Y0181326D01*
X0083619Y0181298D01*
X0083463Y0181274D01*
X0083306Y0181254D01*
X0083148Y0181238D01*
X0082991Y0181226D01*
X0082832Y0181218D01*
X0082674Y0181214D01*
X0082516Y0181214D01*
X0082358Y0181218D01*
X0082199Y0181226D01*
X0082042Y0181238D01*
X0081884Y0181254D01*
X0081727Y0181274D01*
X0081571Y0181298D01*
X0081415Y0181326D01*
X0081260Y0181357D01*
X0081105Y0181393D01*
X0080952Y0181432D01*
X0080800Y0181475D01*
X0080649Y0181522D01*
X0080499Y0181573D01*
X0080350Y0181628D01*
X0080203Y0181686D01*
X0080057Y0181748D01*
X0079913Y0181813D01*
X0079771Y0181883D01*
X0079630Y0181955D01*
X0079491Y0182032D01*
X0079355Y0182111D01*
X0079220Y0182195D01*
X0079087Y0182281D01*
X0078957Y0182371D01*
X0078829Y0182464D01*
X0078703Y0182560D01*
X0078580Y0182660D01*
X0078459Y0182762D01*
X0078341Y0182867D01*
X0078226Y0182976D01*
X0078113Y0183087D01*
X0078003Y0183201D01*
X0077896Y0183318D01*
X0077792Y0183437D01*
X0077691Y0183559D01*
X0077594Y0183684D01*
X0077499Y0183811D01*
X0077408Y0183940D01*
X0077319Y0184071D01*
X0077235Y0184205D01*
X0077153Y0184341D01*
X0077075Y0184478D01*
X0077001Y0184618D01*
X0076930Y0184760D01*
X0076862Y0184903D01*
X0076798Y0185048D01*
X0076738Y0185194D01*
X0076682Y0185342D01*
X0076629Y0185491D01*
X0076580Y0185642D01*
X0076535Y0185794D01*
X0076494Y0185947D01*
X0076456Y0186100D01*
X0076423Y0186255D01*
X0076393Y0186411D01*
X0076367Y0186567D01*
X0076346Y0186724D01*
X0076328Y0186881D01*
X0076314Y0187039D01*
X0076304Y0187197D01*
X0076298Y0187355D01*
X0076296Y0187513D01*
D11*
X0073845Y0198763D02*
X0073845Y0002513D01*
X0232595Y0002513D01*
X0232595Y0198763D01*
X0073845Y0198763D01*
M02*
